%TF.GenerationSoftware,KiCad,Pcbnew,6.0.2-378541a8eb~116~ubuntu18.04.1*%
%TF.CreationDate,2022-03-16T16:53:27+09:00*%
%TF.ProjectId,led_a,6c65645f-612e-46b6-9963-61645f706362,rev?*%
%TF.SameCoordinates,Original*%
%TF.FileFunction,Copper,L1,Top*%
%TF.FilePolarity,Positive*%
%FSLAX46Y46*%
G04 Gerber Fmt 4.6, Leading zero omitted, Abs format (unit mm)*
G04 Created by KiCad (PCBNEW 6.0.2-378541a8eb~116~ubuntu18.04.1) date 2022-03-16 16:53:27*
%MOMM*%
%LPD*%
G01*
G04 APERTURE LIST*
%TA.AperFunction,SMDPad,CuDef*%
%ADD10R,0.800000X2.000000*%
%TD*%
%TA.AperFunction,ComponentPad*%
%ADD11R,1.700000X1.700000*%
%TD*%
%TA.AperFunction,ComponentPad*%
%ADD12O,1.700000X1.700000*%
%TD*%
%TA.AperFunction,ViaPad*%
%ADD13C,0.800000*%
%TD*%
%TA.AperFunction,Conductor*%
%ADD14C,0.250000*%
%TD*%
%TA.AperFunction,Conductor*%
%ADD15C,0.500000*%
%TD*%
G04 APERTURE END LIST*
D10*
%TO.P,LD1,1,VDD*%
%TO.N,+5V*%
X92110000Y-44765000D03*
%TO.P,LD1,2,DOUT*%
%TO.N,Net-(LD1-Pad2)*%
X93890000Y-44765000D03*
%TO.P,LD1,3,VSS*%
%TO.N,GND*%
X93890000Y-41235000D03*
%TO.P,LD1,4,DIN*%
%TO.N,Net-(LD1-Pad4)*%
X92110000Y-41235000D03*
%TD*%
%TO.P,LD3,1,VDD*%
%TO.N,+5V*%
X104110000Y-44765000D03*
%TO.P,LD3,2,DOUT*%
%TO.N,Net-(LD3-Pad2)*%
X105890000Y-44765000D03*
%TO.P,LD3,3,VSS*%
%TO.N,GND*%
X105890000Y-41235000D03*
%TO.P,LD3,4,DIN*%
%TO.N,Net-(LD2-Pad2)*%
X104110000Y-41235000D03*
%TD*%
%TO.P,LD22,1,VDD*%
%TO.N,+5V*%
X98110000Y-68765000D03*
%TO.P,LD22,2,DOUT*%
%TO.N,Net-(LD22-Pad2)*%
X99890000Y-68765000D03*
%TO.P,LD22,3,VSS*%
%TO.N,GND*%
X99890000Y-65235000D03*
%TO.P,LD22,4,DIN*%
%TO.N,Net-(LD21-Pad2)*%
X98110000Y-65235000D03*
%TD*%
%TO.P,LD8,1,VDD*%
%TO.N,+5V*%
X104110000Y-50765000D03*
%TO.P,LD8,2,DOUT*%
%TO.N,Net-(LD8-Pad2)*%
X105890000Y-50765000D03*
%TO.P,LD8,3,VSS*%
%TO.N,GND*%
X105890000Y-47235000D03*
%TO.P,LD8,4,DIN*%
%TO.N,Net-(LD7-Pad2)*%
X104110000Y-47235000D03*
%TD*%
%TO.P,LD7,1,VDD*%
%TO.N,+5V*%
X98110000Y-50765000D03*
%TO.P,LD7,2,DOUT*%
%TO.N,Net-(LD7-Pad2)*%
X99890000Y-50765000D03*
%TO.P,LD7,3,VSS*%
%TO.N,GND*%
X99890000Y-47235000D03*
%TO.P,LD7,4,DIN*%
%TO.N,Net-(LD6-Pad2)*%
X98110000Y-47235000D03*
%TD*%
%TO.P,LD12,1,VDD*%
%TO.N,+5V*%
X98110000Y-56765000D03*
%TO.P,LD12,2,DOUT*%
%TO.N,Net-(LD12-Pad2)*%
X99890000Y-56765000D03*
%TO.P,LD12,3,VSS*%
%TO.N,GND*%
X99890000Y-53235000D03*
%TO.P,LD12,4,DIN*%
%TO.N,Net-(LD11-Pad2)*%
X98110000Y-53235000D03*
%TD*%
D11*
%TO.P,J1,1,Pin_1*%
%TO.N,+5V*%
X86540000Y-57540000D03*
D12*
%TO.P,J1,2,Pin_2*%
X84000000Y-57540000D03*
%TO.P,J1,3,Pin_3*%
%TO.N,/SIG_OUT*%
X86540000Y-55000000D03*
%TO.P,J1,4,Pin_4*%
%TO.N,Net-(LD1-Pad4)*%
X84000000Y-55000000D03*
%TO.P,J1,5,Pin_5*%
%TO.N,GND*%
X86540000Y-52460000D03*
%TO.P,J1,6,Pin_6*%
X84000000Y-52460000D03*
%TD*%
D10*
%TO.P,LD4,1,VDD*%
%TO.N,+5V*%
X110110000Y-44765000D03*
%TO.P,LD4,2,DOUT*%
%TO.N,Net-(LD4-Pad2)*%
X111890000Y-44765000D03*
%TO.P,LD4,3,VSS*%
%TO.N,GND*%
X111890000Y-41235000D03*
%TO.P,LD4,4,DIN*%
%TO.N,Net-(LD3-Pad2)*%
X110110000Y-41235000D03*
%TD*%
%TO.P,LD5,1,VDD*%
%TO.N,+5V*%
X116110000Y-44765000D03*
%TO.P,LD5,2,DOUT*%
%TO.N,/SIG1*%
X117890000Y-44765000D03*
%TO.P,LD5,3,VSS*%
%TO.N,GND*%
X117890000Y-41235000D03*
%TO.P,LD5,4,DIN*%
%TO.N,Net-(LD4-Pad2)*%
X116110000Y-41235000D03*
%TD*%
%TO.P,LD2,1,VDD*%
%TO.N,+5V*%
X98110000Y-44765000D03*
%TO.P,LD2,2,DOUT*%
%TO.N,Net-(LD2-Pad2)*%
X99890000Y-44765000D03*
%TO.P,LD2,3,VSS*%
%TO.N,GND*%
X99890000Y-41235000D03*
%TO.P,LD2,4,DIN*%
%TO.N,Net-(LD1-Pad2)*%
X98110000Y-41235000D03*
%TD*%
%TO.P,LD16,1,VDD*%
%TO.N,+5V*%
X92110000Y-62765000D03*
%TO.P,LD16,2,DOUT*%
%TO.N,Net-(LD16-Pad2)*%
X93890000Y-62765000D03*
%TO.P,LD16,3,VSS*%
%TO.N,GND*%
X93890000Y-59235000D03*
%TO.P,LD16,4,DIN*%
%TO.N,/SIG3*%
X92110000Y-59235000D03*
%TD*%
%TO.P,LD18,1,VDD*%
%TO.N,+5V*%
X104110000Y-62875000D03*
%TO.P,LD18,2,DOUT*%
%TO.N,Net-(LD18-Pad2)*%
X105890000Y-62875000D03*
%TO.P,LD18,3,VSS*%
%TO.N,GND*%
X105890000Y-59345000D03*
%TO.P,LD18,4,DIN*%
%TO.N,Net-(LD17-Pad2)*%
X104110000Y-59345000D03*
%TD*%
%TO.P,LD25,1,VDD*%
%TO.N,+5V*%
X116110000Y-68765000D03*
%TO.P,LD25,2,DOUT*%
%TO.N,/SIG_OUT*%
X117890000Y-68765000D03*
%TO.P,LD25,3,VSS*%
%TO.N,GND*%
X117890000Y-65235000D03*
%TO.P,LD25,4,DIN*%
%TO.N,Net-(LD24-Pad2)*%
X116110000Y-65235000D03*
%TD*%
%TO.P,LD10,1,VDD*%
%TO.N,+5V*%
X116110000Y-50765000D03*
%TO.P,LD10,2,DOUT*%
%TO.N,/SIG2*%
X117890000Y-50765000D03*
%TO.P,LD10,3,VSS*%
%TO.N,GND*%
X117890000Y-47235000D03*
%TO.P,LD10,4,DIN*%
%TO.N,Net-(LD10-Pad4)*%
X116110000Y-47235000D03*
%TD*%
%TO.P,LD6,1,VDD*%
%TO.N,+5V*%
X92110000Y-50765000D03*
%TO.P,LD6,2,DOUT*%
%TO.N,Net-(LD6-Pad2)*%
X93890000Y-50765000D03*
%TO.P,LD6,3,VSS*%
%TO.N,GND*%
X93890000Y-47235000D03*
%TO.P,LD6,4,DIN*%
%TO.N,/SIG1*%
X92110000Y-47235000D03*
%TD*%
%TO.P,LD17,1,VDD*%
%TO.N,+5V*%
X98110000Y-62765000D03*
%TO.P,LD17,2,DOUT*%
%TO.N,Net-(LD17-Pad2)*%
X99890000Y-62765000D03*
%TO.P,LD17,3,VSS*%
%TO.N,GND*%
X99890000Y-59235000D03*
%TO.P,LD17,4,DIN*%
%TO.N,Net-(LD16-Pad2)*%
X98110000Y-59235000D03*
%TD*%
%TO.P,LD24,1,VDD*%
%TO.N,+5V*%
X110110000Y-68765000D03*
%TO.P,LD24,2,DOUT*%
%TO.N,Net-(LD24-Pad2)*%
X111890000Y-68765000D03*
%TO.P,LD24,3,VSS*%
%TO.N,GND*%
X111890000Y-65235000D03*
%TO.P,LD24,4,DIN*%
%TO.N,Net-(LD23-Pad2)*%
X110110000Y-65235000D03*
%TD*%
%TO.P,LD14,1,VDD*%
%TO.N,+5V*%
X110110000Y-56765000D03*
%TO.P,LD14,2,DOUT*%
%TO.N,Net-(LD14-Pad2)*%
X111890000Y-56765000D03*
%TO.P,LD14,3,VSS*%
%TO.N,GND*%
X111890000Y-53235000D03*
%TO.P,LD14,4,DIN*%
%TO.N,Net-(LD13-Pad2)*%
X110110000Y-53235000D03*
%TD*%
%TO.P,LD23,1,VDD*%
%TO.N,+5V*%
X104110000Y-68765000D03*
%TO.P,LD23,2,DOUT*%
%TO.N,Net-(LD23-Pad2)*%
X105890000Y-68765000D03*
%TO.P,LD23,3,VSS*%
%TO.N,GND*%
X105890000Y-65235000D03*
%TO.P,LD23,4,DIN*%
%TO.N,Net-(LD22-Pad2)*%
X104110000Y-65235000D03*
%TD*%
%TO.P,LD13,1,VDD*%
%TO.N,+5V*%
X104110000Y-56765000D03*
%TO.P,LD13,2,DOUT*%
%TO.N,Net-(LD13-Pad2)*%
X105890000Y-56765000D03*
%TO.P,LD13,3,VSS*%
%TO.N,GND*%
X105890000Y-53235000D03*
%TO.P,LD13,4,DIN*%
%TO.N,Net-(LD12-Pad2)*%
X104110000Y-53235000D03*
%TD*%
%TO.P,LD9,1,VDD*%
%TO.N,+5V*%
X110110000Y-50765000D03*
%TO.P,LD9,2,DOUT*%
%TO.N,Net-(LD10-Pad4)*%
X111890000Y-50765000D03*
%TO.P,LD9,3,VSS*%
%TO.N,GND*%
X111890000Y-47235000D03*
%TO.P,LD9,4,DIN*%
%TO.N,Net-(LD8-Pad2)*%
X110110000Y-47235000D03*
%TD*%
%TO.P,LD15,1,VDD*%
%TO.N,+5V*%
X116110000Y-56765000D03*
%TO.P,LD15,2,DOUT*%
%TO.N,/SIG3*%
X117890000Y-56765000D03*
%TO.P,LD15,3,VSS*%
%TO.N,GND*%
X117890000Y-53235000D03*
%TO.P,LD15,4,DIN*%
%TO.N,Net-(LD14-Pad2)*%
X116110000Y-53235000D03*
%TD*%
%TO.P,LD20,1,VDD*%
%TO.N,+5V*%
X116110000Y-62765000D03*
%TO.P,LD20,2,DOUT*%
%TO.N,/SIG4*%
X117890000Y-62765000D03*
%TO.P,LD20,3,VSS*%
%TO.N,GND*%
X117890000Y-59235000D03*
%TO.P,LD20,4,DIN*%
%TO.N,Net-(LD19-Pad2)*%
X116110000Y-59235000D03*
%TD*%
%TO.P,LD19,1,VDD*%
%TO.N,+5V*%
X110110000Y-62765000D03*
%TO.P,LD19,2,DOUT*%
%TO.N,Net-(LD19-Pad2)*%
X111890000Y-62765000D03*
%TO.P,LD19,3,VSS*%
%TO.N,GND*%
X111890000Y-59235000D03*
%TO.P,LD19,4,DIN*%
%TO.N,Net-(LD18-Pad2)*%
X110110000Y-59235000D03*
%TD*%
%TO.P,LD11,1,VDD*%
%TO.N,+5V*%
X92110000Y-56765000D03*
%TO.P,LD11,2,DOUT*%
%TO.N,Net-(LD11-Pad2)*%
X93890000Y-56765000D03*
%TO.P,LD11,3,VSS*%
%TO.N,GND*%
X93890000Y-53235000D03*
%TO.P,LD11,4,DIN*%
%TO.N,/SIG2*%
X92110000Y-53235000D03*
%TD*%
%TO.P,LD21,1,VDD*%
%TO.N,+5V*%
X92110000Y-68765000D03*
%TO.P,LD21,2,DOUT*%
%TO.N,Net-(LD21-Pad2)*%
X93890000Y-68765000D03*
%TO.P,LD21,3,VSS*%
%TO.N,GND*%
X93890000Y-65235000D03*
%TO.P,LD21,4,DIN*%
%TO.N,/SIG4*%
X92110000Y-65235000D03*
%TD*%
D13*
%TO.N,+5V*%
X97000000Y-51000000D03*
X92000000Y-49000000D03*
X103000000Y-45000000D03*
X92000000Y-61000000D03*
X103000000Y-51000000D03*
X109000000Y-57000000D03*
X97000000Y-45000000D03*
X115000000Y-51000000D03*
X97000000Y-69000000D03*
X109000000Y-63000000D03*
X97000000Y-57000000D03*
X92000000Y-67000000D03*
X103000000Y-57000000D03*
X115000000Y-45000000D03*
X115000000Y-57000000D03*
X92000000Y-43000000D03*
X109000000Y-69000000D03*
X109000000Y-51000000D03*
X109000000Y-45000000D03*
X115000000Y-69000000D03*
X103000000Y-69000000D03*
X92000000Y-55000000D03*
X97000000Y-63000000D03*
X103000000Y-63000000D03*
X115000000Y-63000000D03*
%TO.N,GND*%
X101000000Y-41000000D03*
X101000000Y-65000000D03*
X107000000Y-65000000D03*
X107000000Y-59000000D03*
X95000000Y-59000000D03*
X113000000Y-65000000D03*
X101000000Y-59000000D03*
X119000000Y-47000000D03*
X113000000Y-47000000D03*
X95000000Y-41000000D03*
X113000000Y-59000000D03*
X95000000Y-47000000D03*
X119000000Y-53000000D03*
X119000000Y-41000000D03*
X119000000Y-59000000D03*
X113000000Y-41000000D03*
X107000000Y-53000000D03*
X107000000Y-47000000D03*
X95000000Y-53000000D03*
X107000000Y-41000000D03*
X101000000Y-53000000D03*
X119000000Y-65000000D03*
X113000000Y-53000000D03*
X101000000Y-47000000D03*
%TO.N,/SIG1*%
X117000000Y-43000000D03*
X93000000Y-43000000D03*
%TO.N,/SIG2*%
X117000000Y-49000000D03*
X93000000Y-49000000D03*
%TO.N,/SIG3*%
X117000000Y-55000000D03*
X93000000Y-55000000D03*
%TO.N,/SIG4*%
X93000000Y-61000000D03*
X117000000Y-61000000D03*
%TO.N,/SIG_OUT*%
X117000000Y-67000000D03*
%TD*%
D14*
%TO.N,+5V*%
X103235000Y-56765000D02*
X103000000Y-57000000D01*
X115235000Y-68765000D02*
X115000000Y-69000000D01*
X92110000Y-43110000D02*
X92000000Y-43000000D01*
D15*
X92000000Y-55000000D02*
X91500000Y-55000000D01*
D14*
X103125000Y-62875000D02*
X103000000Y-63000000D01*
D15*
X91500000Y-55000000D02*
X91260489Y-55239511D01*
D14*
X110110000Y-62765000D02*
X109235000Y-62765000D01*
X110110000Y-44765000D02*
X109235000Y-44765000D01*
X104110000Y-56765000D02*
X103235000Y-56765000D01*
D15*
X91055000Y-57555000D02*
X91260489Y-57760489D01*
D14*
X110110000Y-68765000D02*
X109235000Y-68765000D01*
D15*
X91500000Y-61000000D02*
X91260489Y-61239511D01*
D14*
X116110000Y-44765000D02*
X115235000Y-44765000D01*
X92110000Y-56765000D02*
X92110000Y-55110000D01*
D15*
X91520978Y-49000000D02*
X91260489Y-48739511D01*
X91260489Y-66760489D02*
X91500000Y-67000000D01*
D14*
X97235000Y-56765000D02*
X97000000Y-57000000D01*
X109235000Y-56765000D02*
X109000000Y-57000000D01*
X116110000Y-62765000D02*
X115235000Y-62765000D01*
X98110000Y-68765000D02*
X97235000Y-68765000D01*
X116110000Y-50765000D02*
X115235000Y-50765000D01*
X104110000Y-68765000D02*
X103235000Y-68765000D01*
X104110000Y-50765000D02*
X103235000Y-50765000D01*
D15*
X84000000Y-57555000D02*
X91055000Y-57555000D01*
X91260489Y-55239511D02*
X91260489Y-57760489D01*
D14*
X92110000Y-62765000D02*
X92110000Y-61110000D01*
X92110000Y-49110000D02*
X92000000Y-49000000D01*
X92110000Y-68765000D02*
X92110000Y-67110000D01*
X116110000Y-56765000D02*
X115235000Y-56765000D01*
X109235000Y-62765000D02*
X109000000Y-63000000D01*
X115235000Y-44765000D02*
X115000000Y-45000000D01*
D15*
X91260489Y-61239511D02*
X91260489Y-66760489D01*
D14*
X92110000Y-67110000D02*
X92000000Y-67000000D01*
D15*
X91260489Y-43739511D02*
X91260489Y-48739511D01*
D14*
X110110000Y-56765000D02*
X109235000Y-56765000D01*
X92110000Y-55110000D02*
X92000000Y-55000000D01*
X103235000Y-68765000D02*
X103000000Y-69000000D01*
X97235000Y-62765000D02*
X97000000Y-63000000D01*
X97235000Y-50765000D02*
X97000000Y-51000000D01*
X116110000Y-68765000D02*
X115235000Y-68765000D01*
X104110000Y-44765000D02*
X103235000Y-44765000D01*
X97235000Y-44765000D02*
X97000000Y-45000000D01*
X98110000Y-44765000D02*
X97235000Y-44765000D01*
X115235000Y-50765000D02*
X115000000Y-51000000D01*
X98110000Y-50765000D02*
X97235000Y-50765000D01*
X104110000Y-62875000D02*
X103125000Y-62875000D01*
X92110000Y-50765000D02*
X92110000Y-49110000D01*
D15*
X91260489Y-57760489D02*
X91260489Y-61239511D01*
X91500000Y-67000000D02*
X92000000Y-67000000D01*
D14*
X103235000Y-50765000D02*
X103000000Y-51000000D01*
X115235000Y-62765000D02*
X115000000Y-63000000D01*
D15*
X92000000Y-49000000D02*
X91520978Y-49000000D01*
D14*
X115235000Y-56765000D02*
X115000000Y-57000000D01*
X109235000Y-44765000D02*
X109000000Y-45000000D01*
D15*
X92000000Y-61000000D02*
X91500000Y-61000000D01*
X92000000Y-43000000D02*
X91260489Y-43739511D01*
D14*
X92110000Y-44765000D02*
X92110000Y-43110000D01*
X98110000Y-62765000D02*
X97235000Y-62765000D01*
X98110000Y-56765000D02*
X97235000Y-56765000D01*
X109235000Y-50765000D02*
X109000000Y-51000000D01*
D15*
X91260489Y-48739511D02*
X91260489Y-55239511D01*
D14*
X110110000Y-50765000D02*
X109235000Y-50765000D01*
X92110000Y-61110000D02*
X92000000Y-61000000D01*
X109235000Y-68765000D02*
X109000000Y-69000000D01*
X97235000Y-68765000D02*
X97000000Y-69000000D01*
X103235000Y-44765000D02*
X103000000Y-45000000D01*
%TO.N,GND*%
X112765000Y-53235000D02*
X113000000Y-53000000D01*
X111890000Y-53235000D02*
X112765000Y-53235000D01*
X100765000Y-41235000D02*
X101000000Y-41000000D01*
X93890000Y-41235000D02*
X94765000Y-41235000D01*
X105890000Y-41235000D02*
X106765000Y-41235000D01*
X106765000Y-41235000D02*
X107000000Y-41000000D01*
X100765000Y-59235000D02*
X101000000Y-59000000D01*
X118765000Y-59235000D02*
X119000000Y-59000000D01*
X93890000Y-47235000D02*
X94765000Y-47235000D01*
X99890000Y-47235000D02*
X100765000Y-47235000D01*
X106765000Y-53235000D02*
X107000000Y-53000000D01*
X112765000Y-47235000D02*
X113000000Y-47000000D01*
X94765000Y-41235000D02*
X95000000Y-41000000D01*
X100765000Y-47235000D02*
X101000000Y-47000000D01*
X94765000Y-53235000D02*
X95000000Y-53000000D01*
X93890000Y-53235000D02*
X94765000Y-53235000D01*
X117890000Y-41235000D02*
X118765000Y-41235000D01*
X111890000Y-47235000D02*
X112765000Y-47235000D01*
X99890000Y-53235000D02*
X100765000Y-53235000D01*
X117890000Y-53235000D02*
X118765000Y-53235000D01*
X94765000Y-65235000D02*
X95000000Y-65000000D01*
X111890000Y-59235000D02*
X112765000Y-59235000D01*
X118765000Y-53235000D02*
X119000000Y-53000000D01*
X100765000Y-53235000D02*
X101000000Y-53000000D01*
X105890000Y-53235000D02*
X106765000Y-53235000D01*
X99890000Y-59235000D02*
X100765000Y-59235000D01*
X118765000Y-41235000D02*
X119000000Y-41000000D01*
X93890000Y-65235000D02*
X94765000Y-65235000D01*
X99890000Y-41235000D02*
X100765000Y-41235000D01*
X118765000Y-47235000D02*
X119000000Y-47000000D01*
X117890000Y-59235000D02*
X118765000Y-59235000D01*
X111890000Y-65235000D02*
X112765000Y-65235000D01*
X118765000Y-65235000D02*
X119000000Y-65000000D01*
X117890000Y-47235000D02*
X118765000Y-47235000D01*
X106765000Y-47235000D02*
X107000000Y-47000000D01*
X99890000Y-65235000D02*
X100765000Y-65235000D01*
X106765000Y-65235000D02*
X107000000Y-65000000D01*
X100765000Y-65235000D02*
X101000000Y-65000000D01*
X94765000Y-47235000D02*
X95000000Y-47000000D01*
X93890000Y-59235000D02*
X94765000Y-59235000D01*
X105890000Y-59235000D02*
X106765000Y-59235000D01*
X111890000Y-41235000D02*
X112765000Y-41235000D01*
X106765000Y-59235000D02*
X107000000Y-59000000D01*
X105890000Y-47235000D02*
X106765000Y-47235000D01*
X112765000Y-41235000D02*
X113000000Y-41000000D01*
X105890000Y-65235000D02*
X106765000Y-65235000D01*
X112765000Y-59235000D02*
X113000000Y-59000000D01*
X117890000Y-65235000D02*
X118765000Y-65235000D01*
X112765000Y-65235000D02*
X113000000Y-65000000D01*
X94765000Y-59235000D02*
X95000000Y-59000000D01*
%TO.N,Net-(LD10-Pad4)*%
X112580000Y-50765000D02*
X116110000Y-47235000D01*
X111890000Y-50765000D02*
X112580000Y-50765000D01*
%TO.N,Net-(LD1-Pad2)*%
X94580000Y-44765000D02*
X98110000Y-41235000D01*
X93890000Y-44890000D02*
X94000000Y-45000000D01*
X93890000Y-44765000D02*
X94580000Y-44765000D01*
X93890000Y-44765000D02*
X93890000Y-44890000D01*
%TO.N,Net-(LD2-Pad2)*%
X99890000Y-44765000D02*
X100580000Y-44765000D01*
X100580000Y-44765000D02*
X104110000Y-41235000D01*
%TO.N,Net-(LD3-Pad2)*%
X106580000Y-44765000D02*
X110110000Y-41235000D01*
X105890000Y-44765000D02*
X106580000Y-44765000D01*
%TO.N,Net-(LD6-Pad2)*%
X94580000Y-50765000D02*
X98110000Y-47235000D01*
X93890000Y-50765000D02*
X94580000Y-50765000D01*
%TO.N,Net-(LD7-Pad2)*%
X99890000Y-50765000D02*
X100580000Y-50765000D01*
X100580000Y-50765000D02*
X104110000Y-47235000D01*
%TO.N,Net-(LD11-Pad2)*%
X93890000Y-56765000D02*
X94580000Y-56765000D01*
X94580000Y-56765000D02*
X98110000Y-53235000D01*
%TO.N,Net-(LD13-Pad2)*%
X105890000Y-56765000D02*
X106580000Y-56765000D01*
X106580000Y-56765000D02*
X110110000Y-53235000D01*
%TO.N,Net-(LD14-Pad2)*%
X111890000Y-56765000D02*
X112580000Y-56765000D01*
X112580000Y-56765000D02*
X116110000Y-53235000D01*
%TO.N,Net-(LD16-Pad2)*%
X93890000Y-62765000D02*
X94580000Y-62765000D01*
X94580000Y-62765000D02*
X98110000Y-59235000D01*
%TO.N,Net-(LD4-Pad2)*%
X111890000Y-44765000D02*
X112580000Y-44765000D01*
X112580000Y-44765000D02*
X116110000Y-41235000D01*
%TO.N,Net-(LD8-Pad2)*%
X105890000Y-50765000D02*
X106580000Y-50765000D01*
X106580000Y-50765000D02*
X110110000Y-47235000D01*
%TO.N,/SIG1*%
X93000000Y-43000000D02*
X93000000Y-46345000D01*
X117890000Y-44765000D02*
X117890000Y-43890000D01*
X93000000Y-46345000D02*
X92110000Y-47235000D01*
X117890000Y-43890000D02*
X117000000Y-43000000D01*
%TO.N,Net-(LD12-Pad2)*%
X100580000Y-56765000D02*
X104110000Y-53235000D01*
X99890000Y-56765000D02*
X100580000Y-56765000D01*
%TO.N,Net-(LD17-Pad2)*%
X100690000Y-62765000D02*
X104110000Y-59345000D01*
X99890000Y-62765000D02*
X100690000Y-62765000D01*
%TO.N,Net-(LD18-Pad2)*%
X105890000Y-62875000D02*
X106470000Y-62875000D01*
X106470000Y-62875000D02*
X110110000Y-59235000D01*
%TO.N,Net-(LD19-Pad2)*%
X112580000Y-62765000D02*
X116110000Y-59235000D01*
X111890000Y-62765000D02*
X112580000Y-62765000D01*
%TO.N,/SIG2*%
X93000000Y-49000000D02*
X93000000Y-52345000D01*
X93000000Y-52345000D02*
X92110000Y-53235000D01*
X117890000Y-49890000D02*
X117000000Y-49000000D01*
X117890000Y-50765000D02*
X117890000Y-49890000D01*
%TO.N,Net-(LD21-Pad2)*%
X94580000Y-68765000D02*
X98110000Y-65235000D01*
X93890000Y-68765000D02*
X94580000Y-68765000D01*
%TO.N,Net-(LD22-Pad2)*%
X99890000Y-68765000D02*
X100580000Y-68765000D01*
X100580000Y-68765000D02*
X104110000Y-65235000D01*
%TO.N,Net-(LD23-Pad2)*%
X105890000Y-68765000D02*
X106580000Y-68765000D01*
X106580000Y-68765000D02*
X110110000Y-65235000D01*
%TO.N,Net-(LD24-Pad2)*%
X112580000Y-68765000D02*
X116110000Y-65235000D01*
X111890000Y-68765000D02*
X112580000Y-68765000D01*
%TO.N,/SIG3*%
X117890000Y-56765000D02*
X117890000Y-55890000D01*
X93000000Y-58345000D02*
X92110000Y-59235000D01*
X93000000Y-55000000D02*
X93000000Y-58345000D01*
X117890000Y-55890000D02*
X117000000Y-55000000D01*
%TO.N,/SIG4*%
X117890000Y-62765000D02*
X117890000Y-61890000D01*
X93000000Y-64345000D02*
X92110000Y-65235000D01*
X93000000Y-61000000D02*
X93000000Y-64345000D01*
X117890000Y-61890000D02*
X117000000Y-61000000D01*
%TO.N,/SIG_OUT*%
X117890000Y-68765000D02*
X117890000Y-67890000D01*
X117890000Y-67890000D02*
X117000000Y-67000000D01*
%TO.N,Net-(LD1-Pad4)*%
X90500000Y-42845000D02*
X90500000Y-49000000D01*
X92110000Y-41235000D02*
X90500000Y-42845000D01*
X82500000Y-50000000D02*
X82500000Y-53515000D01*
X83000000Y-49500000D02*
X82500000Y-50000000D01*
X92110000Y-41235000D02*
X92110000Y-41110000D01*
X90500000Y-49000000D02*
X90000000Y-49500000D01*
X92110000Y-41110000D02*
X92000000Y-41000000D01*
X82500000Y-53515000D02*
X84000000Y-55015000D01*
X90000000Y-49500000D02*
X83000000Y-49500000D01*
%TD*%
%TA.AperFunction,Conductor*%
%TO.N,GND*%
G36*
X117149191Y-40318907D02*
G01*
X117185155Y-40368407D01*
X117190000Y-40399000D01*
X117190000Y-41069320D01*
X117194122Y-41082005D01*
X117198243Y-41085000D01*
X118574320Y-41085000D01*
X118587005Y-41080878D01*
X118590000Y-41076757D01*
X118590000Y-40399000D01*
X118608907Y-40340809D01*
X118658407Y-40304845D01*
X118689000Y-40300000D01*
X119601000Y-40300000D01*
X119659191Y-40318907D01*
X119695155Y-40368407D01*
X119700000Y-40399000D01*
X119700000Y-69601000D01*
X119681093Y-69659191D01*
X119631593Y-69695155D01*
X119601000Y-69700000D01*
X118589500Y-69700000D01*
X118531309Y-69681093D01*
X118495345Y-69631593D01*
X118490500Y-69601000D01*
X118490500Y-67745252D01*
X118478867Y-67686769D01*
X118434552Y-67620448D01*
X118368231Y-67576133D01*
X118358668Y-67574231D01*
X118358666Y-67574230D01*
X118335995Y-67569721D01*
X118309748Y-67564500D01*
X118065834Y-67564500D01*
X118007643Y-67545593D01*
X117995830Y-67535504D01*
X117623293Y-67162967D01*
X117595516Y-67108450D01*
X117595144Y-67080045D01*
X117605682Y-67000000D01*
X117585044Y-66843238D01*
X117524536Y-66697159D01*
X117520585Y-66692010D01*
X117517342Y-66686393D01*
X117519157Y-66685345D01*
X117501893Y-66636589D01*
X117519272Y-66577924D01*
X117567814Y-66540678D01*
X117600859Y-66535000D01*
X117724320Y-66535000D01*
X117737005Y-66530878D01*
X117740000Y-66526757D01*
X117740000Y-66519320D01*
X118040000Y-66519320D01*
X118044122Y-66532005D01*
X118048243Y-66535000D01*
X118331639Y-66535000D01*
X118337485Y-66534654D01*
X118353353Y-66532766D01*
X118367519Y-66528872D01*
X118454514Y-66490230D01*
X118469321Y-66480054D01*
X118535367Y-66413892D01*
X118545517Y-66399069D01*
X118584000Y-66312020D01*
X118587873Y-66297815D01*
X118589668Y-66282420D01*
X118590000Y-66276708D01*
X118590000Y-65400680D01*
X118585878Y-65387995D01*
X118581757Y-65385000D01*
X118055680Y-65385000D01*
X118042995Y-65389122D01*
X118040000Y-65393243D01*
X118040000Y-66519320D01*
X117740000Y-66519320D01*
X117740000Y-65400680D01*
X117735878Y-65387995D01*
X117731757Y-65385000D01*
X117205680Y-65385000D01*
X117192995Y-65389122D01*
X117190000Y-65393243D01*
X117190000Y-66276639D01*
X117190346Y-66282487D01*
X117191845Y-66295082D01*
X117179945Y-66355099D01*
X117135040Y-66396659D01*
X117080616Y-66404931D01*
X117006434Y-66395165D01*
X117000000Y-66394318D01*
X116843238Y-66414956D01*
X116837240Y-66417440D01*
X116837238Y-66417441D01*
X116834968Y-66418381D01*
X116833214Y-66418519D01*
X116830975Y-66419119D01*
X116830864Y-66418704D01*
X116773971Y-66423180D01*
X116721803Y-66391209D01*
X116698390Y-66334680D01*
X116699987Y-66307603D01*
X116709552Y-66259514D01*
X116709552Y-66259512D01*
X116710500Y-66254748D01*
X116710500Y-64215252D01*
X116704983Y-64187515D01*
X116700770Y-64166334D01*
X116700769Y-64166332D01*
X116698867Y-64156769D01*
X116654552Y-64090448D01*
X116642380Y-64082315D01*
X116604501Y-64034266D01*
X116602099Y-63973128D01*
X116636091Y-63922254D01*
X116642372Y-63917691D01*
X116654552Y-63909552D01*
X116698867Y-63843231D01*
X116710500Y-63784748D01*
X116710500Y-61745252D01*
X116709552Y-61740486D01*
X116699987Y-61692397D01*
X116707179Y-61631636D01*
X116748712Y-61586707D01*
X116808722Y-61574770D01*
X116834968Y-61581619D01*
X116837238Y-61582559D01*
X116837240Y-61582560D01*
X116843238Y-61585044D01*
X117000000Y-61605682D01*
X117080042Y-61595144D01*
X117140201Y-61606294D01*
X117162967Y-61623293D01*
X117260504Y-61720830D01*
X117288281Y-61775347D01*
X117289500Y-61790834D01*
X117289500Y-63784748D01*
X117301133Y-63843231D01*
X117318588Y-63869353D01*
X117335196Y-63928239D01*
X117314019Y-63985643D01*
X117306337Y-63994296D01*
X117244633Y-64056108D01*
X117234483Y-64070931D01*
X117196000Y-64157980D01*
X117192127Y-64172185D01*
X117190332Y-64187580D01*
X117190000Y-64193292D01*
X117190000Y-65069320D01*
X117194122Y-65082005D01*
X117198243Y-65085000D01*
X118574320Y-65085000D01*
X118587005Y-65080878D01*
X118590000Y-65076757D01*
X118590000Y-64193361D01*
X118589654Y-64187515D01*
X118587766Y-64171647D01*
X118583872Y-64157481D01*
X118545230Y-64070486D01*
X118535054Y-64055679D01*
X118473746Y-63994479D01*
X118445921Y-63939987D01*
X118455439Y-63879546D01*
X118461373Y-63869412D01*
X118461414Y-63869351D01*
X118478867Y-63843231D01*
X118490500Y-63784748D01*
X118490500Y-61745252D01*
X118478867Y-61686769D01*
X118434552Y-61620448D01*
X118368231Y-61576133D01*
X118358668Y-61574231D01*
X118358666Y-61574230D01*
X118335995Y-61569721D01*
X118309748Y-61564500D01*
X118065834Y-61564500D01*
X118007643Y-61545593D01*
X117995830Y-61535504D01*
X117623293Y-61162967D01*
X117595516Y-61108450D01*
X117595144Y-61080045D01*
X117605682Y-61000000D01*
X117585044Y-60843238D01*
X117524536Y-60697159D01*
X117520585Y-60692010D01*
X117517342Y-60686393D01*
X117519157Y-60685345D01*
X117501893Y-60636589D01*
X117519272Y-60577924D01*
X117567814Y-60540678D01*
X117600859Y-60535000D01*
X117724320Y-60535000D01*
X117737005Y-60530878D01*
X117740000Y-60526757D01*
X117740000Y-60519320D01*
X118040000Y-60519320D01*
X118044122Y-60532005D01*
X118048243Y-60535000D01*
X118331639Y-60535000D01*
X118337485Y-60534654D01*
X118353353Y-60532766D01*
X118367519Y-60528872D01*
X118454514Y-60490230D01*
X118469321Y-60480054D01*
X118535367Y-60413892D01*
X118545517Y-60399069D01*
X118584000Y-60312020D01*
X118587873Y-60297815D01*
X118589668Y-60282420D01*
X118590000Y-60276708D01*
X118590000Y-59400680D01*
X118585878Y-59387995D01*
X118581757Y-59385000D01*
X118055680Y-59385000D01*
X118042995Y-59389122D01*
X118040000Y-59393243D01*
X118040000Y-60519320D01*
X117740000Y-60519320D01*
X117740000Y-59400680D01*
X117735878Y-59387995D01*
X117731757Y-59385000D01*
X117205680Y-59385000D01*
X117192995Y-59389122D01*
X117190000Y-59393243D01*
X117190000Y-60276639D01*
X117190346Y-60282487D01*
X117191845Y-60295082D01*
X117179945Y-60355099D01*
X117135040Y-60396659D01*
X117080616Y-60404931D01*
X117006434Y-60395165D01*
X117000000Y-60394318D01*
X116843238Y-60414956D01*
X116837240Y-60417440D01*
X116837238Y-60417441D01*
X116834968Y-60418381D01*
X116833214Y-60418519D01*
X116830975Y-60419119D01*
X116830864Y-60418704D01*
X116773971Y-60423180D01*
X116721803Y-60391209D01*
X116698390Y-60334680D01*
X116699987Y-60307603D01*
X116709552Y-60259514D01*
X116709552Y-60259512D01*
X116710500Y-60254748D01*
X116710500Y-58215252D01*
X116703585Y-58180486D01*
X116700770Y-58166334D01*
X116700769Y-58166332D01*
X116698867Y-58156769D01*
X116654552Y-58090448D01*
X116642380Y-58082315D01*
X116604501Y-58034266D01*
X116602099Y-57973128D01*
X116636091Y-57922254D01*
X116642372Y-57917691D01*
X116654552Y-57909552D01*
X116698867Y-57843231D01*
X116710500Y-57784748D01*
X116710500Y-55745252D01*
X116700770Y-55696334D01*
X116699987Y-55692397D01*
X116707179Y-55631636D01*
X116748712Y-55586707D01*
X116808722Y-55574770D01*
X116834968Y-55581619D01*
X116837238Y-55582559D01*
X116837240Y-55582560D01*
X116843238Y-55585044D01*
X117000000Y-55605682D01*
X117080042Y-55595144D01*
X117140201Y-55606294D01*
X117162967Y-55623293D01*
X117260504Y-55720830D01*
X117288281Y-55775347D01*
X117289500Y-55790834D01*
X117289500Y-57784748D01*
X117301133Y-57843231D01*
X117318588Y-57869353D01*
X117335196Y-57928239D01*
X117314019Y-57985643D01*
X117306337Y-57994296D01*
X117244633Y-58056108D01*
X117234483Y-58070931D01*
X117196000Y-58157980D01*
X117192127Y-58172185D01*
X117190332Y-58187580D01*
X117190000Y-58193292D01*
X117190000Y-59069320D01*
X117194122Y-59082005D01*
X117198243Y-59085000D01*
X118574320Y-59085000D01*
X118587005Y-59080878D01*
X118590000Y-59076757D01*
X118590000Y-58193361D01*
X118589654Y-58187515D01*
X118587766Y-58171647D01*
X118583872Y-58157481D01*
X118545230Y-58070486D01*
X118535054Y-58055679D01*
X118473746Y-57994479D01*
X118445921Y-57939987D01*
X118455439Y-57879546D01*
X118461373Y-57869412D01*
X118461414Y-57869351D01*
X118478867Y-57843231D01*
X118490500Y-57784748D01*
X118490500Y-55745252D01*
X118478867Y-55686769D01*
X118434552Y-55620448D01*
X118368231Y-55576133D01*
X118358668Y-55574231D01*
X118358666Y-55574230D01*
X118335995Y-55569721D01*
X118309748Y-55564500D01*
X118065834Y-55564500D01*
X118007643Y-55545593D01*
X117995830Y-55535504D01*
X117623293Y-55162967D01*
X117595516Y-55108450D01*
X117595144Y-55080045D01*
X117605682Y-55000000D01*
X117585044Y-54843238D01*
X117524536Y-54697159D01*
X117520585Y-54692010D01*
X117517342Y-54686393D01*
X117519157Y-54685345D01*
X117501893Y-54636589D01*
X117519272Y-54577924D01*
X117567814Y-54540678D01*
X117600859Y-54535000D01*
X117724320Y-54535000D01*
X117737005Y-54530878D01*
X117740000Y-54526757D01*
X117740000Y-54519320D01*
X118040000Y-54519320D01*
X118044122Y-54532005D01*
X118048243Y-54535000D01*
X118331639Y-54535000D01*
X118337485Y-54534654D01*
X118353353Y-54532766D01*
X118367519Y-54528872D01*
X118454514Y-54490230D01*
X118469321Y-54480054D01*
X118535367Y-54413892D01*
X118545517Y-54399069D01*
X118584000Y-54312020D01*
X118587873Y-54297815D01*
X118589668Y-54282420D01*
X118590000Y-54276708D01*
X118590000Y-53400680D01*
X118585878Y-53387995D01*
X118581757Y-53385000D01*
X118055680Y-53385000D01*
X118042995Y-53389122D01*
X118040000Y-53393243D01*
X118040000Y-54519320D01*
X117740000Y-54519320D01*
X117740000Y-53400680D01*
X117735878Y-53387995D01*
X117731757Y-53385000D01*
X117205680Y-53385000D01*
X117192995Y-53389122D01*
X117190000Y-53393243D01*
X117190000Y-54276639D01*
X117190346Y-54282487D01*
X117191845Y-54295082D01*
X117179945Y-54355099D01*
X117135040Y-54396659D01*
X117080616Y-54404931D01*
X117006434Y-54395165D01*
X117000000Y-54394318D01*
X116843238Y-54414956D01*
X116837240Y-54417440D01*
X116837238Y-54417441D01*
X116834968Y-54418381D01*
X116833214Y-54418519D01*
X116830975Y-54419119D01*
X116830864Y-54418704D01*
X116773971Y-54423180D01*
X116721803Y-54391209D01*
X116698390Y-54334680D01*
X116699987Y-54307603D01*
X116709552Y-54259514D01*
X116709552Y-54259512D01*
X116710500Y-54254748D01*
X116710500Y-52215252D01*
X116704983Y-52187515D01*
X116700770Y-52166334D01*
X116700769Y-52166332D01*
X116698867Y-52156769D01*
X116654552Y-52090448D01*
X116642380Y-52082315D01*
X116604501Y-52034266D01*
X116602099Y-51973128D01*
X116636091Y-51922254D01*
X116642372Y-51917691D01*
X116654552Y-51909552D01*
X116698867Y-51843231D01*
X116710500Y-51784748D01*
X116710500Y-49745252D01*
X116705499Y-49720110D01*
X116699987Y-49692397D01*
X116707179Y-49631636D01*
X116748712Y-49586707D01*
X116808722Y-49574770D01*
X116834968Y-49581619D01*
X116837238Y-49582559D01*
X116837240Y-49582560D01*
X116843238Y-49585044D01*
X117000000Y-49605682D01*
X117080042Y-49595144D01*
X117140201Y-49606294D01*
X117162967Y-49623293D01*
X117260504Y-49720830D01*
X117288281Y-49775347D01*
X117289500Y-49790834D01*
X117289500Y-51784748D01*
X117301133Y-51843231D01*
X117318588Y-51869353D01*
X117335196Y-51928239D01*
X117314019Y-51985643D01*
X117306337Y-51994296D01*
X117244633Y-52056108D01*
X117234483Y-52070931D01*
X117196000Y-52157980D01*
X117192127Y-52172185D01*
X117190332Y-52187580D01*
X117190000Y-52193292D01*
X117190000Y-53069320D01*
X117194122Y-53082005D01*
X117198243Y-53085000D01*
X118574320Y-53085000D01*
X118587005Y-53080878D01*
X118590000Y-53076757D01*
X118590000Y-52193361D01*
X118589654Y-52187515D01*
X118587766Y-52171647D01*
X118583872Y-52157481D01*
X118545230Y-52070486D01*
X118535054Y-52055679D01*
X118473746Y-51994479D01*
X118445921Y-51939987D01*
X118455439Y-51879546D01*
X118461373Y-51869412D01*
X118467245Y-51860624D01*
X118478867Y-51843231D01*
X118490500Y-51784748D01*
X118490500Y-49745252D01*
X118478867Y-49686769D01*
X118434552Y-49620448D01*
X118368231Y-49576133D01*
X118358668Y-49574231D01*
X118358666Y-49574230D01*
X118335995Y-49569721D01*
X118309748Y-49564500D01*
X118065834Y-49564500D01*
X118007643Y-49545593D01*
X117995830Y-49535504D01*
X117623293Y-49162967D01*
X117595516Y-49108450D01*
X117595144Y-49080045D01*
X117605682Y-49000000D01*
X117585044Y-48843238D01*
X117524536Y-48697159D01*
X117520585Y-48692010D01*
X117517342Y-48686393D01*
X117519157Y-48685345D01*
X117501893Y-48636589D01*
X117519272Y-48577924D01*
X117567814Y-48540678D01*
X117600859Y-48535000D01*
X117724320Y-48535000D01*
X117737005Y-48530878D01*
X117740000Y-48526757D01*
X117740000Y-48519320D01*
X118040000Y-48519320D01*
X118044122Y-48532005D01*
X118048243Y-48535000D01*
X118331639Y-48535000D01*
X118337485Y-48534654D01*
X118353353Y-48532766D01*
X118367519Y-48528872D01*
X118454514Y-48490230D01*
X118469321Y-48480054D01*
X118535367Y-48413892D01*
X118545517Y-48399069D01*
X118584000Y-48312020D01*
X118587873Y-48297815D01*
X118589668Y-48282420D01*
X118590000Y-48276708D01*
X118590000Y-47400680D01*
X118585878Y-47387995D01*
X118581757Y-47385000D01*
X118055680Y-47385000D01*
X118042995Y-47389122D01*
X118040000Y-47393243D01*
X118040000Y-48519320D01*
X117740000Y-48519320D01*
X117740000Y-47400680D01*
X117735878Y-47387995D01*
X117731757Y-47385000D01*
X117205680Y-47385000D01*
X117192995Y-47389122D01*
X117190000Y-47393243D01*
X117190000Y-48276639D01*
X117190346Y-48282487D01*
X117191845Y-48295082D01*
X117179945Y-48355099D01*
X117135040Y-48396659D01*
X117080616Y-48404931D01*
X117006434Y-48395165D01*
X117000000Y-48394318D01*
X116843238Y-48414956D01*
X116837240Y-48417440D01*
X116837238Y-48417441D01*
X116834968Y-48418381D01*
X116833214Y-48418519D01*
X116830975Y-48419119D01*
X116830864Y-48418704D01*
X116773971Y-48423180D01*
X116721803Y-48391209D01*
X116698390Y-48334680D01*
X116699987Y-48307603D01*
X116709552Y-48259514D01*
X116709552Y-48259512D01*
X116710500Y-48254748D01*
X116710500Y-46215252D01*
X116704983Y-46187515D01*
X116700770Y-46166334D01*
X116700769Y-46166332D01*
X116698867Y-46156769D01*
X116654552Y-46090448D01*
X116642380Y-46082315D01*
X116604501Y-46034266D01*
X116602099Y-45973128D01*
X116636091Y-45922254D01*
X116642372Y-45917691D01*
X116654552Y-45909552D01*
X116698867Y-45843231D01*
X116710500Y-45784748D01*
X116710500Y-43745252D01*
X116700770Y-43696334D01*
X116699987Y-43692397D01*
X116707179Y-43631636D01*
X116748712Y-43586707D01*
X116808722Y-43574770D01*
X116834968Y-43581619D01*
X116837238Y-43582559D01*
X116837240Y-43582560D01*
X116843238Y-43585044D01*
X117000000Y-43605682D01*
X117080042Y-43595144D01*
X117140201Y-43606294D01*
X117162967Y-43623293D01*
X117260504Y-43720830D01*
X117288281Y-43775347D01*
X117289500Y-43790834D01*
X117289500Y-45784748D01*
X117301133Y-45843231D01*
X117318588Y-45869353D01*
X117335196Y-45928239D01*
X117314019Y-45985643D01*
X117306337Y-45994296D01*
X117244633Y-46056108D01*
X117234483Y-46070931D01*
X117196000Y-46157980D01*
X117192127Y-46172185D01*
X117190332Y-46187580D01*
X117190000Y-46193292D01*
X117190000Y-47069320D01*
X117194122Y-47082005D01*
X117198243Y-47085000D01*
X118574320Y-47085000D01*
X118587005Y-47080878D01*
X118590000Y-47076757D01*
X118590000Y-46193361D01*
X118589654Y-46187515D01*
X118587766Y-46171647D01*
X118583872Y-46157481D01*
X118545230Y-46070486D01*
X118535054Y-46055679D01*
X118473746Y-45994479D01*
X118445921Y-45939987D01*
X118455439Y-45879546D01*
X118461373Y-45869412D01*
X118461414Y-45869351D01*
X118478867Y-45843231D01*
X118490500Y-45784748D01*
X118490500Y-43745252D01*
X118478867Y-43686769D01*
X118434552Y-43620448D01*
X118368231Y-43576133D01*
X118358668Y-43574231D01*
X118358666Y-43574230D01*
X118335995Y-43569721D01*
X118309748Y-43564500D01*
X118065834Y-43564500D01*
X118007643Y-43545593D01*
X117995830Y-43535504D01*
X117623293Y-43162967D01*
X117595516Y-43108450D01*
X117595144Y-43080045D01*
X117605682Y-43000000D01*
X117604047Y-42987577D01*
X117585891Y-42849674D01*
X117585044Y-42843238D01*
X117524536Y-42697159D01*
X117520585Y-42692010D01*
X117517342Y-42686393D01*
X117519157Y-42685345D01*
X117501893Y-42636589D01*
X117519272Y-42577924D01*
X117567814Y-42540678D01*
X117600859Y-42535000D01*
X117724320Y-42535000D01*
X117737005Y-42530878D01*
X117740000Y-42526757D01*
X117740000Y-42519320D01*
X118040000Y-42519320D01*
X118044122Y-42532005D01*
X118048243Y-42535000D01*
X118331639Y-42535000D01*
X118337485Y-42534654D01*
X118353353Y-42532766D01*
X118367519Y-42528872D01*
X118454514Y-42490230D01*
X118469321Y-42480054D01*
X118535367Y-42413892D01*
X118545517Y-42399069D01*
X118584000Y-42312020D01*
X118587873Y-42297815D01*
X118589668Y-42282420D01*
X118590000Y-42276708D01*
X118590000Y-41400680D01*
X118585878Y-41387995D01*
X118581757Y-41385000D01*
X118055680Y-41385000D01*
X118042995Y-41389122D01*
X118040000Y-41393243D01*
X118040000Y-42519320D01*
X117740000Y-42519320D01*
X117740000Y-41400680D01*
X117735878Y-41387995D01*
X117731757Y-41385000D01*
X117205680Y-41385000D01*
X117192995Y-41389122D01*
X117190000Y-41393243D01*
X117190000Y-42276639D01*
X117190346Y-42282487D01*
X117191845Y-42295082D01*
X117179945Y-42355099D01*
X117135040Y-42396659D01*
X117080616Y-42404931D01*
X117006434Y-42395165D01*
X117000000Y-42394318D01*
X116843238Y-42414956D01*
X116837240Y-42417440D01*
X116837238Y-42417441D01*
X116834968Y-42418381D01*
X116833214Y-42418519D01*
X116830975Y-42419119D01*
X116830864Y-42418704D01*
X116773971Y-42423180D01*
X116721803Y-42391209D01*
X116698390Y-42334680D01*
X116699987Y-42307603D01*
X116709552Y-42259514D01*
X116709552Y-42259512D01*
X116710500Y-42254748D01*
X116710500Y-40399000D01*
X116729407Y-40340809D01*
X116778907Y-40304845D01*
X116809500Y-40300000D01*
X117091000Y-40300000D01*
X117149191Y-40318907D01*
G37*
%TD.AperFunction*%
%TA.AperFunction,Conductor*%
G36*
X99149191Y-40318907D02*
G01*
X99185155Y-40368407D01*
X99190000Y-40399000D01*
X99190000Y-41069320D01*
X99194122Y-41082005D01*
X99198243Y-41085000D01*
X100574320Y-41085000D01*
X100587005Y-41080878D01*
X100590000Y-41076757D01*
X100590000Y-40399000D01*
X100608907Y-40340809D01*
X100658407Y-40304845D01*
X100689000Y-40300000D01*
X103410500Y-40300000D01*
X103468691Y-40318907D01*
X103504655Y-40368407D01*
X103509500Y-40399000D01*
X103509500Y-41334166D01*
X103490593Y-41392357D01*
X103480504Y-41404170D01*
X100659504Y-44225170D01*
X100604987Y-44252947D01*
X100544555Y-44243376D01*
X100501290Y-44200111D01*
X100490500Y-44155166D01*
X100490500Y-43745252D01*
X100478867Y-43686769D01*
X100434552Y-43620448D01*
X100368231Y-43576133D01*
X100358668Y-43574231D01*
X100358666Y-43574230D01*
X100335995Y-43569721D01*
X100309748Y-43564500D01*
X99470252Y-43564500D01*
X99444005Y-43569721D01*
X99421334Y-43574230D01*
X99421332Y-43574231D01*
X99411769Y-43576133D01*
X99345448Y-43620448D01*
X99301133Y-43686769D01*
X99289500Y-43745252D01*
X99289500Y-45784748D01*
X99301133Y-45843231D01*
X99318588Y-45869353D01*
X99335196Y-45928239D01*
X99314019Y-45985643D01*
X99306337Y-45994296D01*
X99244633Y-46056108D01*
X99234483Y-46070931D01*
X99196000Y-46157980D01*
X99192127Y-46172185D01*
X99190332Y-46187580D01*
X99190000Y-46193292D01*
X99190000Y-47069320D01*
X99194122Y-47082005D01*
X99198243Y-47085000D01*
X100574320Y-47085000D01*
X100587005Y-47080878D01*
X100590000Y-47076757D01*
X100590000Y-46193361D01*
X100589654Y-46187515D01*
X100587766Y-46171647D01*
X100583872Y-46157481D01*
X100545230Y-46070486D01*
X100535054Y-46055679D01*
X100473746Y-45994479D01*
X100445921Y-45939987D01*
X100455439Y-45879546D01*
X100461373Y-45869412D01*
X100461414Y-45869351D01*
X100478867Y-45843231D01*
X100490500Y-45784748D01*
X100490500Y-45191953D01*
X100509407Y-45133762D01*
X100558907Y-45097798D01*
X100598127Y-45093330D01*
X100600176Y-45093509D01*
X100600177Y-45093509D01*
X100608807Y-45094264D01*
X100646350Y-45084204D01*
X100654784Y-45082334D01*
X100684517Y-45077092D01*
X100684519Y-45077091D01*
X100693045Y-45075588D01*
X100700544Y-45071258D01*
X100706029Y-45069262D01*
X100711316Y-45066796D01*
X100719684Y-45064554D01*
X100751511Y-45042268D01*
X100758795Y-45037627D01*
X100792455Y-45018194D01*
X100817431Y-44988429D01*
X100823265Y-44982061D01*
X103426953Y-42378374D01*
X103481470Y-42350597D01*
X103541902Y-42360168D01*
X103562491Y-42375126D01*
X103565448Y-42379552D01*
X103631769Y-42423867D01*
X103641332Y-42425769D01*
X103641334Y-42425770D01*
X103664005Y-42430279D01*
X103690252Y-42435500D01*
X104529748Y-42435500D01*
X104555995Y-42430279D01*
X104578666Y-42425770D01*
X104578668Y-42425769D01*
X104588231Y-42423867D01*
X104654552Y-42379552D01*
X104698867Y-42313231D01*
X104701827Y-42298353D01*
X104706146Y-42276639D01*
X105190000Y-42276639D01*
X105190346Y-42282485D01*
X105192234Y-42298353D01*
X105196128Y-42312519D01*
X105234770Y-42399514D01*
X105244946Y-42414321D01*
X105311108Y-42480367D01*
X105325931Y-42490517D01*
X105412980Y-42529000D01*
X105427185Y-42532873D01*
X105442580Y-42534668D01*
X105448292Y-42535000D01*
X105724320Y-42535000D01*
X105737005Y-42530878D01*
X105740000Y-42526757D01*
X105740000Y-42519320D01*
X106040000Y-42519320D01*
X106044122Y-42532005D01*
X106048243Y-42535000D01*
X106331639Y-42535000D01*
X106337485Y-42534654D01*
X106353353Y-42532766D01*
X106367519Y-42528872D01*
X106454514Y-42490230D01*
X106469321Y-42480054D01*
X106535367Y-42413892D01*
X106545517Y-42399069D01*
X106584000Y-42312020D01*
X106587873Y-42297815D01*
X106589668Y-42282420D01*
X106590000Y-42276708D01*
X106590000Y-41400680D01*
X106585878Y-41387995D01*
X106581757Y-41385000D01*
X106055680Y-41385000D01*
X106042995Y-41389122D01*
X106040000Y-41393243D01*
X106040000Y-42519320D01*
X105740000Y-42519320D01*
X105740000Y-41400680D01*
X105735878Y-41387995D01*
X105731757Y-41385000D01*
X105205680Y-41385000D01*
X105192995Y-41389122D01*
X105190000Y-41393243D01*
X105190000Y-42276639D01*
X104706146Y-42276639D01*
X104709552Y-42259512D01*
X104710500Y-42254748D01*
X104710500Y-40399000D01*
X104729407Y-40340809D01*
X104778907Y-40304845D01*
X104809500Y-40300000D01*
X105091000Y-40300000D01*
X105149191Y-40318907D01*
X105185155Y-40368407D01*
X105190000Y-40399000D01*
X105190000Y-41069320D01*
X105194122Y-41082005D01*
X105198243Y-41085000D01*
X106574320Y-41085000D01*
X106587005Y-41080878D01*
X106590000Y-41076757D01*
X106590000Y-40399000D01*
X106608907Y-40340809D01*
X106658407Y-40304845D01*
X106689000Y-40300000D01*
X109410500Y-40300000D01*
X109468691Y-40318907D01*
X109504655Y-40368407D01*
X109509500Y-40399000D01*
X109509500Y-41334166D01*
X109490593Y-41392357D01*
X109480504Y-41404170D01*
X106659504Y-44225170D01*
X106604987Y-44252947D01*
X106544555Y-44243376D01*
X106501290Y-44200111D01*
X106490500Y-44155166D01*
X106490500Y-43745252D01*
X106478867Y-43686769D01*
X106434552Y-43620448D01*
X106368231Y-43576133D01*
X106358668Y-43574231D01*
X106358666Y-43574230D01*
X106335995Y-43569721D01*
X106309748Y-43564500D01*
X105470252Y-43564500D01*
X105444005Y-43569721D01*
X105421334Y-43574230D01*
X105421332Y-43574231D01*
X105411769Y-43576133D01*
X105345448Y-43620448D01*
X105301133Y-43686769D01*
X105289500Y-43745252D01*
X105289500Y-45784748D01*
X105301133Y-45843231D01*
X105318588Y-45869353D01*
X105335196Y-45928239D01*
X105314019Y-45985643D01*
X105306337Y-45994296D01*
X105244633Y-46056108D01*
X105234483Y-46070931D01*
X105196000Y-46157980D01*
X105192127Y-46172185D01*
X105190332Y-46187580D01*
X105190000Y-46193292D01*
X105190000Y-47069320D01*
X105194122Y-47082005D01*
X105198243Y-47085000D01*
X106574320Y-47085000D01*
X106587005Y-47080878D01*
X106590000Y-47076757D01*
X106590000Y-46193361D01*
X106589654Y-46187515D01*
X106587766Y-46171647D01*
X106583872Y-46157481D01*
X106545230Y-46070486D01*
X106535054Y-46055679D01*
X106473746Y-45994479D01*
X106445921Y-45939987D01*
X106455439Y-45879546D01*
X106461373Y-45869412D01*
X106461414Y-45869351D01*
X106478867Y-45843231D01*
X106490500Y-45784748D01*
X106490500Y-45191953D01*
X106509407Y-45133762D01*
X106558907Y-45097798D01*
X106598127Y-45093330D01*
X106600176Y-45093509D01*
X106600177Y-45093509D01*
X106608807Y-45094264D01*
X106646350Y-45084204D01*
X106654784Y-45082334D01*
X106684517Y-45077092D01*
X106684519Y-45077091D01*
X106693045Y-45075588D01*
X106700544Y-45071258D01*
X106706029Y-45069262D01*
X106711316Y-45066796D01*
X106719684Y-45064554D01*
X106751511Y-45042268D01*
X106758795Y-45037627D01*
X106792455Y-45018194D01*
X106817431Y-44988429D01*
X106823265Y-44982061D01*
X109426953Y-42378374D01*
X109481470Y-42350597D01*
X109541902Y-42360168D01*
X109562491Y-42375126D01*
X109565448Y-42379552D01*
X109631769Y-42423867D01*
X109641332Y-42425769D01*
X109641334Y-42425770D01*
X109664005Y-42430279D01*
X109690252Y-42435500D01*
X110529748Y-42435500D01*
X110555995Y-42430279D01*
X110578666Y-42425770D01*
X110578668Y-42425769D01*
X110588231Y-42423867D01*
X110654552Y-42379552D01*
X110698867Y-42313231D01*
X110701827Y-42298353D01*
X110706146Y-42276639D01*
X111190000Y-42276639D01*
X111190346Y-42282485D01*
X111192234Y-42298353D01*
X111196128Y-42312519D01*
X111234770Y-42399514D01*
X111244946Y-42414321D01*
X111311108Y-42480367D01*
X111325931Y-42490517D01*
X111412980Y-42529000D01*
X111427185Y-42532873D01*
X111442580Y-42534668D01*
X111448292Y-42535000D01*
X111724320Y-42535000D01*
X111737005Y-42530878D01*
X111740000Y-42526757D01*
X111740000Y-42519320D01*
X112040000Y-42519320D01*
X112044122Y-42532005D01*
X112048243Y-42535000D01*
X112331639Y-42535000D01*
X112337485Y-42534654D01*
X112353353Y-42532766D01*
X112367519Y-42528872D01*
X112454514Y-42490230D01*
X112469321Y-42480054D01*
X112535367Y-42413892D01*
X112545517Y-42399069D01*
X112584000Y-42312020D01*
X112587873Y-42297815D01*
X112589668Y-42282420D01*
X112590000Y-42276708D01*
X112590000Y-41400680D01*
X112585878Y-41387995D01*
X112581757Y-41385000D01*
X112055680Y-41385000D01*
X112042995Y-41389122D01*
X112040000Y-41393243D01*
X112040000Y-42519320D01*
X111740000Y-42519320D01*
X111740000Y-41400680D01*
X111735878Y-41387995D01*
X111731757Y-41385000D01*
X111205680Y-41385000D01*
X111192995Y-41389122D01*
X111190000Y-41393243D01*
X111190000Y-42276639D01*
X110706146Y-42276639D01*
X110709552Y-42259512D01*
X110710500Y-42254748D01*
X110710500Y-40399000D01*
X110729407Y-40340809D01*
X110778907Y-40304845D01*
X110809500Y-40300000D01*
X111091000Y-40300000D01*
X111149191Y-40318907D01*
X111185155Y-40368407D01*
X111190000Y-40399000D01*
X111190000Y-41069320D01*
X111194122Y-41082005D01*
X111198243Y-41085000D01*
X112574320Y-41085000D01*
X112587005Y-41080878D01*
X112590000Y-41076757D01*
X112590000Y-40399000D01*
X112608907Y-40340809D01*
X112658407Y-40304845D01*
X112689000Y-40300000D01*
X115410500Y-40300000D01*
X115468691Y-40318907D01*
X115504655Y-40368407D01*
X115509500Y-40399000D01*
X115509500Y-41334166D01*
X115490593Y-41392357D01*
X115480504Y-41404170D01*
X112659504Y-44225170D01*
X112604987Y-44252947D01*
X112544555Y-44243376D01*
X112501290Y-44200111D01*
X112490500Y-44155166D01*
X112490500Y-43745252D01*
X112478867Y-43686769D01*
X112434552Y-43620448D01*
X112368231Y-43576133D01*
X112358668Y-43574231D01*
X112358666Y-43574230D01*
X112335995Y-43569721D01*
X112309748Y-43564500D01*
X111470252Y-43564500D01*
X111444005Y-43569721D01*
X111421334Y-43574230D01*
X111421332Y-43574231D01*
X111411769Y-43576133D01*
X111345448Y-43620448D01*
X111301133Y-43686769D01*
X111289500Y-43745252D01*
X111289500Y-45784748D01*
X111301133Y-45843231D01*
X111318588Y-45869353D01*
X111335196Y-45928239D01*
X111314019Y-45985643D01*
X111306337Y-45994296D01*
X111244633Y-46056108D01*
X111234483Y-46070931D01*
X111196000Y-46157980D01*
X111192127Y-46172185D01*
X111190332Y-46187580D01*
X111190000Y-46193292D01*
X111190000Y-47069320D01*
X111194122Y-47082005D01*
X111198243Y-47085000D01*
X112574320Y-47085000D01*
X112587005Y-47080878D01*
X112590000Y-47076757D01*
X112590000Y-46193361D01*
X112589654Y-46187515D01*
X112587766Y-46171647D01*
X112583872Y-46157481D01*
X112545230Y-46070486D01*
X112535054Y-46055679D01*
X112473746Y-45994479D01*
X112445921Y-45939987D01*
X112455439Y-45879546D01*
X112461373Y-45869412D01*
X112461414Y-45869351D01*
X112478867Y-45843231D01*
X112490500Y-45784748D01*
X112490500Y-45191953D01*
X112509407Y-45133762D01*
X112558907Y-45097798D01*
X112598127Y-45093330D01*
X112600176Y-45093509D01*
X112600177Y-45093509D01*
X112608807Y-45094264D01*
X112646350Y-45084204D01*
X112654784Y-45082334D01*
X112684517Y-45077092D01*
X112684519Y-45077091D01*
X112693045Y-45075588D01*
X112700544Y-45071258D01*
X112706029Y-45069262D01*
X112711316Y-45066796D01*
X112719684Y-45064554D01*
X112751511Y-45042268D01*
X112758795Y-45037627D01*
X112792455Y-45018194D01*
X112817431Y-44988429D01*
X112823265Y-44982061D01*
X115426953Y-42378374D01*
X115481470Y-42350597D01*
X115541902Y-42360168D01*
X115562491Y-42375126D01*
X115565448Y-42379552D01*
X115631769Y-42423867D01*
X115641332Y-42425769D01*
X115641334Y-42425770D01*
X115664005Y-42430279D01*
X115690252Y-42435500D01*
X116475490Y-42435500D01*
X116533681Y-42454407D01*
X116569645Y-42503907D01*
X116569645Y-42565093D01*
X116554032Y-42594767D01*
X116475464Y-42697159D01*
X116414956Y-42843238D01*
X116414109Y-42849674D01*
X116395954Y-42987577D01*
X116394318Y-43000000D01*
X116414956Y-43156762D01*
X116475464Y-43302841D01*
X116479415Y-43307990D01*
X116554032Y-43405233D01*
X116574456Y-43462909D01*
X116557078Y-43521574D01*
X116508537Y-43558822D01*
X116475490Y-43564500D01*
X115690252Y-43564500D01*
X115664005Y-43569721D01*
X115641334Y-43574230D01*
X115641332Y-43574231D01*
X115631769Y-43576133D01*
X115565448Y-43620448D01*
X115521133Y-43686769D01*
X115509500Y-43745252D01*
X115509500Y-44340500D01*
X115490593Y-44398691D01*
X115441093Y-44434655D01*
X115410500Y-44439500D01*
X115253525Y-44439500D01*
X115244897Y-44439123D01*
X115222310Y-44437147D01*
X115193052Y-44429988D01*
X115162759Y-44417440D01*
X115162758Y-44417440D01*
X115156762Y-44414956D01*
X115000000Y-44394318D01*
X114843238Y-44414956D01*
X114697159Y-44475464D01*
X114571718Y-44571718D01*
X114475464Y-44697159D01*
X114414956Y-44843238D01*
X114394318Y-45000000D01*
X114414956Y-45156762D01*
X114475464Y-45302841D01*
X114571718Y-45428282D01*
X114697159Y-45524536D01*
X114843238Y-45585044D01*
X115000000Y-45605682D01*
X115156762Y-45585044D01*
X115302841Y-45524536D01*
X115350233Y-45488171D01*
X115407909Y-45467747D01*
X115466574Y-45485125D01*
X115503822Y-45533666D01*
X115509500Y-45566713D01*
X115509500Y-45784748D01*
X115521133Y-45843231D01*
X115565448Y-45909552D01*
X115577620Y-45917685D01*
X115615499Y-45965734D01*
X115617901Y-46026872D01*
X115583909Y-46077746D01*
X115577628Y-46082309D01*
X115565448Y-46090448D01*
X115521133Y-46156769D01*
X115519231Y-46166332D01*
X115519230Y-46166334D01*
X115515017Y-46187515D01*
X115509500Y-46215252D01*
X115509500Y-47334166D01*
X115490593Y-47392357D01*
X115480504Y-47404170D01*
X112659504Y-50225170D01*
X112604987Y-50252947D01*
X112544555Y-50243376D01*
X112501290Y-50200111D01*
X112490500Y-50155166D01*
X112490500Y-49745252D01*
X112478867Y-49686769D01*
X112434552Y-49620448D01*
X112368231Y-49576133D01*
X112358668Y-49574231D01*
X112358666Y-49574230D01*
X112335995Y-49569721D01*
X112309748Y-49564500D01*
X111470252Y-49564500D01*
X111444005Y-49569721D01*
X111421334Y-49574230D01*
X111421332Y-49574231D01*
X111411769Y-49576133D01*
X111345448Y-49620448D01*
X111301133Y-49686769D01*
X111289500Y-49745252D01*
X111289500Y-51784748D01*
X111301133Y-51843231D01*
X111318588Y-51869353D01*
X111335196Y-51928239D01*
X111314019Y-51985643D01*
X111306337Y-51994296D01*
X111244633Y-52056108D01*
X111234483Y-52070931D01*
X111196000Y-52157980D01*
X111192127Y-52172185D01*
X111190332Y-52187580D01*
X111190000Y-52193292D01*
X111190000Y-53069320D01*
X111194122Y-53082005D01*
X111198243Y-53085000D01*
X112574320Y-53085000D01*
X112587005Y-53080878D01*
X112590000Y-53076757D01*
X112590000Y-52193361D01*
X112589654Y-52187515D01*
X112587766Y-52171647D01*
X112583872Y-52157481D01*
X112545230Y-52070486D01*
X112535054Y-52055679D01*
X112473746Y-51994479D01*
X112445921Y-51939987D01*
X112455439Y-51879546D01*
X112461373Y-51869412D01*
X112467245Y-51860624D01*
X112478867Y-51843231D01*
X112490500Y-51784748D01*
X112490500Y-51191953D01*
X112509407Y-51133762D01*
X112558907Y-51097798D01*
X112598127Y-51093330D01*
X112600176Y-51093509D01*
X112600177Y-51093509D01*
X112608807Y-51094264D01*
X112646350Y-51084204D01*
X112654784Y-51082334D01*
X112684517Y-51077092D01*
X112684519Y-51077091D01*
X112693045Y-51075588D01*
X112700544Y-51071258D01*
X112706029Y-51069262D01*
X112711316Y-51066796D01*
X112719684Y-51064554D01*
X112751511Y-51042268D01*
X112758795Y-51037627D01*
X112792455Y-51018194D01*
X112817431Y-50988429D01*
X112823265Y-50982061D01*
X115426953Y-48378374D01*
X115481470Y-48350597D01*
X115541902Y-48360168D01*
X115562491Y-48375126D01*
X115565448Y-48379552D01*
X115631769Y-48423867D01*
X115641332Y-48425769D01*
X115641334Y-48425770D01*
X115664005Y-48430279D01*
X115690252Y-48435500D01*
X116475490Y-48435500D01*
X116533681Y-48454407D01*
X116569645Y-48503907D01*
X116569645Y-48565093D01*
X116554032Y-48594767D01*
X116475464Y-48697159D01*
X116414956Y-48843238D01*
X116394318Y-49000000D01*
X116414956Y-49156762D01*
X116475464Y-49302841D01*
X116495992Y-49329593D01*
X116554032Y-49405233D01*
X116574456Y-49462909D01*
X116557078Y-49521574D01*
X116508537Y-49558822D01*
X116475490Y-49564500D01*
X115690252Y-49564500D01*
X115664005Y-49569721D01*
X115641334Y-49574230D01*
X115641332Y-49574231D01*
X115631769Y-49576133D01*
X115565448Y-49620448D01*
X115521133Y-49686769D01*
X115509500Y-49745252D01*
X115509500Y-50340500D01*
X115490593Y-50398691D01*
X115441093Y-50434655D01*
X115410500Y-50439500D01*
X115253525Y-50439500D01*
X115244897Y-50439123D01*
X115222310Y-50437147D01*
X115193052Y-50429988D01*
X115162759Y-50417440D01*
X115162758Y-50417440D01*
X115156762Y-50414956D01*
X115000000Y-50394318D01*
X114843238Y-50414956D01*
X114697159Y-50475464D01*
X114571718Y-50571718D01*
X114475464Y-50697159D01*
X114414956Y-50843238D01*
X114394318Y-51000000D01*
X114414956Y-51156762D01*
X114475464Y-51302841D01*
X114571718Y-51428282D01*
X114697159Y-51524536D01*
X114843238Y-51585044D01*
X115000000Y-51605682D01*
X115156762Y-51585044D01*
X115302841Y-51524536D01*
X115350233Y-51488171D01*
X115407909Y-51467747D01*
X115466574Y-51485125D01*
X115503822Y-51533666D01*
X115509500Y-51566713D01*
X115509500Y-51784748D01*
X115521133Y-51843231D01*
X115565448Y-51909552D01*
X115577620Y-51917685D01*
X115615499Y-51965734D01*
X115617901Y-52026872D01*
X115583909Y-52077746D01*
X115577628Y-52082309D01*
X115565448Y-52090448D01*
X115521133Y-52156769D01*
X115519231Y-52166332D01*
X115519230Y-52166334D01*
X115515017Y-52187515D01*
X115509500Y-52215252D01*
X115509500Y-53334166D01*
X115490593Y-53392357D01*
X115480504Y-53404170D01*
X112659504Y-56225170D01*
X112604987Y-56252947D01*
X112544555Y-56243376D01*
X112501290Y-56200111D01*
X112490500Y-56155166D01*
X112490500Y-55745252D01*
X112478867Y-55686769D01*
X112434552Y-55620448D01*
X112368231Y-55576133D01*
X112358668Y-55574231D01*
X112358666Y-55574230D01*
X112335995Y-55569721D01*
X112309748Y-55564500D01*
X111470252Y-55564500D01*
X111444005Y-55569721D01*
X111421334Y-55574230D01*
X111421332Y-55574231D01*
X111411769Y-55576133D01*
X111345448Y-55620448D01*
X111301133Y-55686769D01*
X111289500Y-55745252D01*
X111289500Y-57784748D01*
X111301133Y-57843231D01*
X111318588Y-57869353D01*
X111335196Y-57928239D01*
X111314019Y-57985643D01*
X111306337Y-57994296D01*
X111244633Y-58056108D01*
X111234483Y-58070931D01*
X111196000Y-58157980D01*
X111192127Y-58172185D01*
X111190332Y-58187580D01*
X111190000Y-58193292D01*
X111190000Y-59069320D01*
X111194122Y-59082005D01*
X111198243Y-59085000D01*
X112574320Y-59085000D01*
X112587005Y-59080878D01*
X112590000Y-59076757D01*
X112590000Y-58193361D01*
X112589654Y-58187515D01*
X112587766Y-58171647D01*
X112583872Y-58157481D01*
X112545230Y-58070486D01*
X112535054Y-58055679D01*
X112473746Y-57994479D01*
X112445921Y-57939987D01*
X112455439Y-57879546D01*
X112461373Y-57869412D01*
X112461414Y-57869351D01*
X112478867Y-57843231D01*
X112490500Y-57784748D01*
X112490500Y-57191953D01*
X112509407Y-57133762D01*
X112558907Y-57097798D01*
X112598127Y-57093330D01*
X112600176Y-57093509D01*
X112600177Y-57093509D01*
X112608807Y-57094264D01*
X112646350Y-57084204D01*
X112654784Y-57082334D01*
X112684517Y-57077092D01*
X112684519Y-57077091D01*
X112693045Y-57075588D01*
X112700544Y-57071258D01*
X112706029Y-57069262D01*
X112711316Y-57066796D01*
X112719684Y-57064554D01*
X112751511Y-57042268D01*
X112758795Y-57037627D01*
X112761452Y-57036093D01*
X112792455Y-57018194D01*
X112817431Y-56988429D01*
X112823265Y-56982061D01*
X115426953Y-54378374D01*
X115481470Y-54350597D01*
X115541902Y-54360168D01*
X115562491Y-54375126D01*
X115565448Y-54379552D01*
X115631769Y-54423867D01*
X115641332Y-54425769D01*
X115641334Y-54425770D01*
X115664005Y-54430279D01*
X115690252Y-54435500D01*
X116475490Y-54435500D01*
X116533681Y-54454407D01*
X116569645Y-54503907D01*
X116569645Y-54565093D01*
X116554032Y-54594767D01*
X116475464Y-54697159D01*
X116414956Y-54843238D01*
X116394318Y-55000000D01*
X116414956Y-55156762D01*
X116475464Y-55302841D01*
X116544566Y-55392896D01*
X116554032Y-55405233D01*
X116574456Y-55462909D01*
X116557078Y-55521574D01*
X116508537Y-55558822D01*
X116475490Y-55564500D01*
X115690252Y-55564500D01*
X115664005Y-55569721D01*
X115641334Y-55574230D01*
X115641332Y-55574231D01*
X115631769Y-55576133D01*
X115565448Y-55620448D01*
X115521133Y-55686769D01*
X115509500Y-55745252D01*
X115509500Y-56340500D01*
X115490593Y-56398691D01*
X115441093Y-56434655D01*
X115410500Y-56439500D01*
X115253525Y-56439500D01*
X115244897Y-56439123D01*
X115222310Y-56437147D01*
X115193052Y-56429988D01*
X115162759Y-56417440D01*
X115162758Y-56417440D01*
X115156762Y-56414956D01*
X115000000Y-56394318D01*
X114843238Y-56414956D01*
X114697159Y-56475464D01*
X114571718Y-56571718D01*
X114475464Y-56697159D01*
X114414956Y-56843238D01*
X114394318Y-57000000D01*
X114414956Y-57156762D01*
X114475464Y-57302841D01*
X114571718Y-57428282D01*
X114697159Y-57524536D01*
X114843238Y-57585044D01*
X115000000Y-57605682D01*
X115156762Y-57585044D01*
X115302841Y-57524536D01*
X115350233Y-57488171D01*
X115407909Y-57467747D01*
X115466574Y-57485125D01*
X115503822Y-57533666D01*
X115509500Y-57566713D01*
X115509500Y-57784748D01*
X115521133Y-57843231D01*
X115565448Y-57909552D01*
X115577620Y-57917685D01*
X115615499Y-57965734D01*
X115617901Y-58026872D01*
X115583909Y-58077746D01*
X115577628Y-58082309D01*
X115565448Y-58090448D01*
X115521133Y-58156769D01*
X115519231Y-58166332D01*
X115519230Y-58166334D01*
X115516415Y-58180486D01*
X115509500Y-58215252D01*
X115509500Y-59334166D01*
X115490593Y-59392357D01*
X115480504Y-59404170D01*
X112659504Y-62225170D01*
X112604987Y-62252947D01*
X112544555Y-62243376D01*
X112501290Y-62200111D01*
X112490500Y-62155166D01*
X112490500Y-61745252D01*
X112478867Y-61686769D01*
X112434552Y-61620448D01*
X112368231Y-61576133D01*
X112358668Y-61574231D01*
X112358666Y-61574230D01*
X112335995Y-61569721D01*
X112309748Y-61564500D01*
X111470252Y-61564500D01*
X111444005Y-61569721D01*
X111421334Y-61574230D01*
X111421332Y-61574231D01*
X111411769Y-61576133D01*
X111345448Y-61620448D01*
X111301133Y-61686769D01*
X111289500Y-61745252D01*
X111289500Y-63784748D01*
X111301133Y-63843231D01*
X111318588Y-63869353D01*
X111335196Y-63928239D01*
X111314019Y-63985643D01*
X111306337Y-63994296D01*
X111244633Y-64056108D01*
X111234483Y-64070931D01*
X111196000Y-64157980D01*
X111192127Y-64172185D01*
X111190332Y-64187580D01*
X111190000Y-64193292D01*
X111190000Y-65069320D01*
X111194122Y-65082005D01*
X111198243Y-65085000D01*
X112574320Y-65085000D01*
X112587005Y-65080878D01*
X112590000Y-65076757D01*
X112590000Y-64193361D01*
X112589654Y-64187515D01*
X112587766Y-64171647D01*
X112583872Y-64157481D01*
X112545230Y-64070486D01*
X112535054Y-64055679D01*
X112473746Y-63994479D01*
X112445921Y-63939987D01*
X112455439Y-63879546D01*
X112461373Y-63869412D01*
X112461414Y-63869351D01*
X112478867Y-63843231D01*
X112490500Y-63784748D01*
X112490500Y-63191953D01*
X112509407Y-63133762D01*
X112558907Y-63097798D01*
X112598127Y-63093330D01*
X112600176Y-63093509D01*
X112600177Y-63093509D01*
X112608807Y-63094264D01*
X112646350Y-63084204D01*
X112654784Y-63082334D01*
X112684517Y-63077092D01*
X112684519Y-63077091D01*
X112693045Y-63075588D01*
X112700544Y-63071258D01*
X112706029Y-63069262D01*
X112711316Y-63066796D01*
X112719684Y-63064554D01*
X112751511Y-63042268D01*
X112758795Y-63037627D01*
X112792455Y-63018194D01*
X112817431Y-62988429D01*
X112823265Y-62982061D01*
X115426953Y-60378374D01*
X115481470Y-60350597D01*
X115541902Y-60360168D01*
X115562491Y-60375126D01*
X115565448Y-60379552D01*
X115631769Y-60423867D01*
X115641332Y-60425769D01*
X115641334Y-60425770D01*
X115664005Y-60430279D01*
X115690252Y-60435500D01*
X116475490Y-60435500D01*
X116533681Y-60454407D01*
X116569645Y-60503907D01*
X116569645Y-60565093D01*
X116554032Y-60594767D01*
X116475464Y-60697159D01*
X116414956Y-60843238D01*
X116394318Y-61000000D01*
X116414956Y-61156762D01*
X116475464Y-61302841D01*
X116479415Y-61307990D01*
X116554032Y-61405233D01*
X116574456Y-61462909D01*
X116557078Y-61521574D01*
X116508537Y-61558822D01*
X116475490Y-61564500D01*
X115690252Y-61564500D01*
X115664005Y-61569721D01*
X115641334Y-61574230D01*
X115641332Y-61574231D01*
X115631769Y-61576133D01*
X115565448Y-61620448D01*
X115521133Y-61686769D01*
X115509500Y-61745252D01*
X115509500Y-62340500D01*
X115490593Y-62398691D01*
X115441093Y-62434655D01*
X115410500Y-62439500D01*
X115253525Y-62439500D01*
X115244897Y-62439123D01*
X115222310Y-62437147D01*
X115193052Y-62429988D01*
X115162759Y-62417440D01*
X115162758Y-62417440D01*
X115156762Y-62414956D01*
X115000000Y-62394318D01*
X114843238Y-62414956D01*
X114697159Y-62475464D01*
X114571718Y-62571718D01*
X114475464Y-62697159D01*
X114414956Y-62843238D01*
X114394318Y-63000000D01*
X114414956Y-63156762D01*
X114475464Y-63302841D01*
X114571718Y-63428282D01*
X114697159Y-63524536D01*
X114843238Y-63585044D01*
X115000000Y-63605682D01*
X115156762Y-63585044D01*
X115302841Y-63524536D01*
X115350233Y-63488171D01*
X115407909Y-63467747D01*
X115466574Y-63485125D01*
X115503822Y-63533666D01*
X115509500Y-63566713D01*
X115509500Y-63784748D01*
X115521133Y-63843231D01*
X115565448Y-63909552D01*
X115577620Y-63917685D01*
X115615499Y-63965734D01*
X115617901Y-64026872D01*
X115583909Y-64077746D01*
X115577628Y-64082309D01*
X115565448Y-64090448D01*
X115521133Y-64156769D01*
X115519231Y-64166332D01*
X115519230Y-64166334D01*
X115515017Y-64187515D01*
X115509500Y-64215252D01*
X115509500Y-65334166D01*
X115490593Y-65392357D01*
X115480504Y-65404170D01*
X112659504Y-68225170D01*
X112604987Y-68252947D01*
X112544555Y-68243376D01*
X112501290Y-68200111D01*
X112490500Y-68155166D01*
X112490500Y-67745252D01*
X112478867Y-67686769D01*
X112434552Y-67620448D01*
X112368231Y-67576133D01*
X112358668Y-67574231D01*
X112358666Y-67574230D01*
X112335995Y-67569721D01*
X112309748Y-67564500D01*
X111470252Y-67564500D01*
X111444005Y-67569721D01*
X111421334Y-67574230D01*
X111421332Y-67574231D01*
X111411769Y-67576133D01*
X111345448Y-67620448D01*
X111301133Y-67686769D01*
X111289500Y-67745252D01*
X111289500Y-69601000D01*
X111270593Y-69659191D01*
X111221093Y-69695155D01*
X111190500Y-69700000D01*
X110809500Y-69700000D01*
X110751309Y-69681093D01*
X110715345Y-69631593D01*
X110710500Y-69601000D01*
X110710500Y-67745252D01*
X110698867Y-67686769D01*
X110654552Y-67620448D01*
X110588231Y-67576133D01*
X110578668Y-67574231D01*
X110578666Y-67574230D01*
X110555995Y-67569721D01*
X110529748Y-67564500D01*
X109690252Y-67564500D01*
X109664005Y-67569721D01*
X109641334Y-67574230D01*
X109641332Y-67574231D01*
X109631769Y-67576133D01*
X109565448Y-67620448D01*
X109521133Y-67686769D01*
X109509500Y-67745252D01*
X109509500Y-68340500D01*
X109490593Y-68398691D01*
X109441093Y-68434655D01*
X109410500Y-68439500D01*
X109253525Y-68439500D01*
X109244897Y-68439123D01*
X109222310Y-68437147D01*
X109193052Y-68429988D01*
X109162759Y-68417440D01*
X109162758Y-68417440D01*
X109156762Y-68414956D01*
X109000000Y-68394318D01*
X108843238Y-68414956D01*
X108697159Y-68475464D01*
X108571718Y-68571718D01*
X108475464Y-68697159D01*
X108414956Y-68843238D01*
X108394318Y-69000000D01*
X108414956Y-69156762D01*
X108475464Y-69302841D01*
X108571718Y-69428282D01*
X108645798Y-69485125D01*
X108694451Y-69522458D01*
X108729107Y-69572882D01*
X108727506Y-69634047D01*
X108690258Y-69682588D01*
X108634184Y-69700000D01*
X106589500Y-69700000D01*
X106531309Y-69681093D01*
X106495345Y-69631593D01*
X106490500Y-69601000D01*
X106490500Y-69191953D01*
X106509407Y-69133762D01*
X106558907Y-69097798D01*
X106598127Y-69093330D01*
X106600176Y-69093509D01*
X106600177Y-69093509D01*
X106608807Y-69094264D01*
X106646350Y-69084204D01*
X106654784Y-69082334D01*
X106684517Y-69077092D01*
X106684519Y-69077091D01*
X106693045Y-69075588D01*
X106700544Y-69071258D01*
X106706029Y-69069262D01*
X106711316Y-69066796D01*
X106719684Y-69064554D01*
X106751511Y-69042268D01*
X106758795Y-69037627D01*
X106792455Y-69018194D01*
X106817431Y-68988429D01*
X106823265Y-68982061D01*
X109426953Y-66378374D01*
X109481470Y-66350597D01*
X109541902Y-66360168D01*
X109562491Y-66375126D01*
X109565448Y-66379552D01*
X109631769Y-66423867D01*
X109641332Y-66425769D01*
X109641334Y-66425770D01*
X109664005Y-66430279D01*
X109690252Y-66435500D01*
X110529748Y-66435500D01*
X110555995Y-66430279D01*
X110578666Y-66425770D01*
X110578668Y-66425769D01*
X110588231Y-66423867D01*
X110654552Y-66379552D01*
X110698867Y-66313231D01*
X110701827Y-66298353D01*
X110706146Y-66276639D01*
X111190000Y-66276639D01*
X111190346Y-66282485D01*
X111192234Y-66298353D01*
X111196128Y-66312519D01*
X111234770Y-66399514D01*
X111244946Y-66414321D01*
X111311108Y-66480367D01*
X111325931Y-66490517D01*
X111412980Y-66529000D01*
X111427185Y-66532873D01*
X111442580Y-66534668D01*
X111448292Y-66535000D01*
X111724320Y-66535000D01*
X111737005Y-66530878D01*
X111740000Y-66526757D01*
X111740000Y-66519320D01*
X112040000Y-66519320D01*
X112044122Y-66532005D01*
X112048243Y-66535000D01*
X112331639Y-66535000D01*
X112337485Y-66534654D01*
X112353353Y-66532766D01*
X112367519Y-66528872D01*
X112454514Y-66490230D01*
X112469321Y-66480054D01*
X112535367Y-66413892D01*
X112545517Y-66399069D01*
X112584000Y-66312020D01*
X112587873Y-66297815D01*
X112589668Y-66282420D01*
X112590000Y-66276708D01*
X112590000Y-65400680D01*
X112585878Y-65387995D01*
X112581757Y-65385000D01*
X112055680Y-65385000D01*
X112042995Y-65389122D01*
X112040000Y-65393243D01*
X112040000Y-66519320D01*
X111740000Y-66519320D01*
X111740000Y-65400680D01*
X111735878Y-65387995D01*
X111731757Y-65385000D01*
X111205680Y-65385000D01*
X111192995Y-65389122D01*
X111190000Y-65393243D01*
X111190000Y-66276639D01*
X110706146Y-66276639D01*
X110709552Y-66259512D01*
X110710500Y-66254748D01*
X110710500Y-64215252D01*
X110704983Y-64187515D01*
X110700770Y-64166334D01*
X110700769Y-64166332D01*
X110698867Y-64156769D01*
X110654552Y-64090448D01*
X110642380Y-64082315D01*
X110604501Y-64034266D01*
X110602099Y-63973128D01*
X110636091Y-63922254D01*
X110642372Y-63917691D01*
X110654552Y-63909552D01*
X110698867Y-63843231D01*
X110710500Y-63784748D01*
X110710500Y-61745252D01*
X110698867Y-61686769D01*
X110654552Y-61620448D01*
X110588231Y-61576133D01*
X110578668Y-61574231D01*
X110578666Y-61574230D01*
X110555995Y-61569721D01*
X110529748Y-61564500D01*
X109690252Y-61564500D01*
X109664005Y-61569721D01*
X109641334Y-61574230D01*
X109641332Y-61574231D01*
X109631769Y-61576133D01*
X109565448Y-61620448D01*
X109521133Y-61686769D01*
X109509500Y-61745252D01*
X109509500Y-62340500D01*
X109490593Y-62398691D01*
X109441093Y-62434655D01*
X109410500Y-62439500D01*
X109253525Y-62439500D01*
X109244897Y-62439123D01*
X109222310Y-62437147D01*
X109193052Y-62429988D01*
X109162759Y-62417440D01*
X109162758Y-62417440D01*
X109156762Y-62414956D01*
X109000000Y-62394318D01*
X108843238Y-62414956D01*
X108697159Y-62475464D01*
X108571718Y-62571718D01*
X108475464Y-62697159D01*
X108414956Y-62843238D01*
X108394318Y-63000000D01*
X108414956Y-63156762D01*
X108475464Y-63302841D01*
X108571718Y-63428282D01*
X108697159Y-63524536D01*
X108843238Y-63585044D01*
X109000000Y-63605682D01*
X109156762Y-63585044D01*
X109302841Y-63524536D01*
X109350233Y-63488171D01*
X109407909Y-63467747D01*
X109466574Y-63485125D01*
X109503822Y-63533666D01*
X109509500Y-63566713D01*
X109509500Y-63784748D01*
X109521133Y-63843231D01*
X109565448Y-63909552D01*
X109577620Y-63917685D01*
X109615499Y-63965734D01*
X109617901Y-64026872D01*
X109583909Y-64077746D01*
X109577628Y-64082309D01*
X109565448Y-64090448D01*
X109521133Y-64156769D01*
X109519231Y-64166332D01*
X109519230Y-64166334D01*
X109515017Y-64187515D01*
X109509500Y-64215252D01*
X109509500Y-65334166D01*
X109490593Y-65392357D01*
X109480504Y-65404170D01*
X106659504Y-68225170D01*
X106604987Y-68252947D01*
X106544555Y-68243376D01*
X106501290Y-68200111D01*
X106490500Y-68155166D01*
X106490500Y-67745252D01*
X106478867Y-67686769D01*
X106434552Y-67620448D01*
X106368231Y-67576133D01*
X106358668Y-67574231D01*
X106358666Y-67574230D01*
X106335995Y-67569721D01*
X106309748Y-67564500D01*
X105470252Y-67564500D01*
X105444005Y-67569721D01*
X105421334Y-67574230D01*
X105421332Y-67574231D01*
X105411769Y-67576133D01*
X105345448Y-67620448D01*
X105301133Y-67686769D01*
X105289500Y-67745252D01*
X105289500Y-69601000D01*
X105270593Y-69659191D01*
X105221093Y-69695155D01*
X105190500Y-69700000D01*
X104809500Y-69700000D01*
X104751309Y-69681093D01*
X104715345Y-69631593D01*
X104710500Y-69601000D01*
X104710500Y-67745252D01*
X104698867Y-67686769D01*
X104654552Y-67620448D01*
X104588231Y-67576133D01*
X104578668Y-67574231D01*
X104578666Y-67574230D01*
X104555995Y-67569721D01*
X104529748Y-67564500D01*
X103690252Y-67564500D01*
X103664005Y-67569721D01*
X103641334Y-67574230D01*
X103641332Y-67574231D01*
X103631769Y-67576133D01*
X103565448Y-67620448D01*
X103521133Y-67686769D01*
X103509500Y-67745252D01*
X103509500Y-68340500D01*
X103490593Y-68398691D01*
X103441093Y-68434655D01*
X103410500Y-68439500D01*
X103253525Y-68439500D01*
X103244897Y-68439123D01*
X103222310Y-68437147D01*
X103193052Y-68429988D01*
X103162759Y-68417440D01*
X103162758Y-68417440D01*
X103156762Y-68414956D01*
X103000000Y-68394318D01*
X102843238Y-68414956D01*
X102697159Y-68475464D01*
X102571718Y-68571718D01*
X102475464Y-68697159D01*
X102414956Y-68843238D01*
X102394318Y-69000000D01*
X102414956Y-69156762D01*
X102475464Y-69302841D01*
X102571718Y-69428282D01*
X102645798Y-69485125D01*
X102694451Y-69522458D01*
X102729107Y-69572882D01*
X102727506Y-69634047D01*
X102690258Y-69682588D01*
X102634184Y-69700000D01*
X100589500Y-69700000D01*
X100531309Y-69681093D01*
X100495345Y-69631593D01*
X100490500Y-69601000D01*
X100490500Y-69191953D01*
X100509407Y-69133762D01*
X100558907Y-69097798D01*
X100598127Y-69093330D01*
X100600176Y-69093509D01*
X100600177Y-69093509D01*
X100608807Y-69094264D01*
X100646350Y-69084204D01*
X100654784Y-69082334D01*
X100684517Y-69077092D01*
X100684519Y-69077091D01*
X100693045Y-69075588D01*
X100700544Y-69071258D01*
X100706029Y-69069262D01*
X100711316Y-69066796D01*
X100719684Y-69064554D01*
X100751511Y-69042268D01*
X100758795Y-69037627D01*
X100792455Y-69018194D01*
X100817431Y-68988429D01*
X100823265Y-68982061D01*
X103426953Y-66378374D01*
X103481470Y-66350597D01*
X103541902Y-66360168D01*
X103562491Y-66375126D01*
X103565448Y-66379552D01*
X103631769Y-66423867D01*
X103641332Y-66425769D01*
X103641334Y-66425770D01*
X103664005Y-66430279D01*
X103690252Y-66435500D01*
X104529748Y-66435500D01*
X104555995Y-66430279D01*
X104578666Y-66425770D01*
X104578668Y-66425769D01*
X104588231Y-66423867D01*
X104654552Y-66379552D01*
X104698867Y-66313231D01*
X104701827Y-66298353D01*
X104706146Y-66276639D01*
X105190000Y-66276639D01*
X105190346Y-66282485D01*
X105192234Y-66298353D01*
X105196128Y-66312519D01*
X105234770Y-66399514D01*
X105244946Y-66414321D01*
X105311108Y-66480367D01*
X105325931Y-66490517D01*
X105412980Y-66529000D01*
X105427185Y-66532873D01*
X105442580Y-66534668D01*
X105448292Y-66535000D01*
X105724320Y-66535000D01*
X105737005Y-66530878D01*
X105740000Y-66526757D01*
X105740000Y-66519320D01*
X106040000Y-66519320D01*
X106044122Y-66532005D01*
X106048243Y-66535000D01*
X106331639Y-66535000D01*
X106337485Y-66534654D01*
X106353353Y-66532766D01*
X106367519Y-66528872D01*
X106454514Y-66490230D01*
X106469321Y-66480054D01*
X106535367Y-66413892D01*
X106545517Y-66399069D01*
X106584000Y-66312020D01*
X106587873Y-66297815D01*
X106589668Y-66282420D01*
X106590000Y-66276708D01*
X106590000Y-65400680D01*
X106585878Y-65387995D01*
X106581757Y-65385000D01*
X106055680Y-65385000D01*
X106042995Y-65389122D01*
X106040000Y-65393243D01*
X106040000Y-66519320D01*
X105740000Y-66519320D01*
X105740000Y-65400680D01*
X105735878Y-65387995D01*
X105731757Y-65385000D01*
X105205680Y-65385000D01*
X105192995Y-65389122D01*
X105190000Y-65393243D01*
X105190000Y-66276639D01*
X104706146Y-66276639D01*
X104709552Y-66259512D01*
X104710500Y-66254748D01*
X104710500Y-65069320D01*
X105190000Y-65069320D01*
X105194122Y-65082005D01*
X105198243Y-65085000D01*
X106574320Y-65085000D01*
X106587005Y-65080878D01*
X106590000Y-65076757D01*
X106590000Y-64193361D01*
X106589654Y-64187515D01*
X106587766Y-64171647D01*
X106583872Y-64157481D01*
X106545230Y-64070486D01*
X106535053Y-64055679D01*
X106508663Y-64029334D01*
X106480838Y-63974842D01*
X106481508Y-63939957D01*
X106489552Y-63899514D01*
X106489552Y-63899512D01*
X106490500Y-63894748D01*
X106490500Y-63284977D01*
X106509407Y-63226786D01*
X106558907Y-63190822D01*
X106572306Y-63187481D01*
X106583045Y-63185588D01*
X106590545Y-63181258D01*
X106596029Y-63179262D01*
X106601316Y-63176796D01*
X106609684Y-63174554D01*
X106641511Y-63152268D01*
X106648795Y-63147627D01*
X106682455Y-63128194D01*
X106707431Y-63098429D01*
X106713265Y-63092061D01*
X109426953Y-60378374D01*
X109481470Y-60350597D01*
X109541902Y-60360168D01*
X109562491Y-60375126D01*
X109565448Y-60379552D01*
X109631769Y-60423867D01*
X109641332Y-60425769D01*
X109641334Y-60425770D01*
X109664005Y-60430279D01*
X109690252Y-60435500D01*
X110529748Y-60435500D01*
X110555995Y-60430279D01*
X110578666Y-60425770D01*
X110578668Y-60425769D01*
X110588231Y-60423867D01*
X110654552Y-60379552D01*
X110698867Y-60313231D01*
X110701827Y-60298353D01*
X110706146Y-60276639D01*
X111190000Y-60276639D01*
X111190346Y-60282485D01*
X111192234Y-60298353D01*
X111196128Y-60312519D01*
X111234770Y-60399514D01*
X111244946Y-60414321D01*
X111311108Y-60480367D01*
X111325931Y-60490517D01*
X111412980Y-60529000D01*
X111427185Y-60532873D01*
X111442580Y-60534668D01*
X111448292Y-60535000D01*
X111724320Y-60535000D01*
X111737005Y-60530878D01*
X111740000Y-60526757D01*
X111740000Y-60519320D01*
X112040000Y-60519320D01*
X112044122Y-60532005D01*
X112048243Y-60535000D01*
X112331639Y-60535000D01*
X112337485Y-60534654D01*
X112353353Y-60532766D01*
X112367519Y-60528872D01*
X112454514Y-60490230D01*
X112469321Y-60480054D01*
X112535367Y-60413892D01*
X112545517Y-60399069D01*
X112584000Y-60312020D01*
X112587873Y-60297815D01*
X112589668Y-60282420D01*
X112590000Y-60276708D01*
X112590000Y-59400680D01*
X112585878Y-59387995D01*
X112581757Y-59385000D01*
X112055680Y-59385000D01*
X112042995Y-59389122D01*
X112040000Y-59393243D01*
X112040000Y-60519320D01*
X111740000Y-60519320D01*
X111740000Y-59400680D01*
X111735878Y-59387995D01*
X111731757Y-59385000D01*
X111205680Y-59385000D01*
X111192995Y-59389122D01*
X111190000Y-59393243D01*
X111190000Y-60276639D01*
X110706146Y-60276639D01*
X110709552Y-60259512D01*
X110710500Y-60254748D01*
X110710500Y-58215252D01*
X110703585Y-58180486D01*
X110700770Y-58166334D01*
X110700769Y-58166332D01*
X110698867Y-58156769D01*
X110654552Y-58090448D01*
X110642380Y-58082315D01*
X110604501Y-58034266D01*
X110602099Y-57973128D01*
X110636091Y-57922254D01*
X110642372Y-57917691D01*
X110654552Y-57909552D01*
X110698867Y-57843231D01*
X110710500Y-57784748D01*
X110710500Y-55745252D01*
X110698867Y-55686769D01*
X110654552Y-55620448D01*
X110588231Y-55576133D01*
X110578668Y-55574231D01*
X110578666Y-55574230D01*
X110555995Y-55569721D01*
X110529748Y-55564500D01*
X109690252Y-55564500D01*
X109664005Y-55569721D01*
X109641334Y-55574230D01*
X109641332Y-55574231D01*
X109631769Y-55576133D01*
X109565448Y-55620448D01*
X109521133Y-55686769D01*
X109509500Y-55745252D01*
X109509500Y-56340500D01*
X109490593Y-56398691D01*
X109441093Y-56434655D01*
X109410500Y-56439500D01*
X109253525Y-56439500D01*
X109244897Y-56439123D01*
X109222310Y-56437147D01*
X109193052Y-56429988D01*
X109162759Y-56417440D01*
X109162758Y-56417440D01*
X109156762Y-56414956D01*
X109000000Y-56394318D01*
X108843238Y-56414956D01*
X108697159Y-56475464D01*
X108571718Y-56571718D01*
X108475464Y-56697159D01*
X108414956Y-56843238D01*
X108394318Y-57000000D01*
X108414956Y-57156762D01*
X108475464Y-57302841D01*
X108571718Y-57428282D01*
X108697159Y-57524536D01*
X108843238Y-57585044D01*
X109000000Y-57605682D01*
X109156762Y-57585044D01*
X109302841Y-57524536D01*
X109350233Y-57488171D01*
X109407909Y-57467747D01*
X109466574Y-57485125D01*
X109503822Y-57533666D01*
X109509500Y-57566713D01*
X109509500Y-57784748D01*
X109521133Y-57843231D01*
X109565448Y-57909552D01*
X109577620Y-57917685D01*
X109615499Y-57965734D01*
X109617901Y-58026872D01*
X109583909Y-58077746D01*
X109577628Y-58082309D01*
X109565448Y-58090448D01*
X109521133Y-58156769D01*
X109519231Y-58166332D01*
X109519230Y-58166334D01*
X109516415Y-58180486D01*
X109509500Y-58215252D01*
X109509500Y-59334165D01*
X109490593Y-59392356D01*
X109480504Y-59404169D01*
X108001720Y-60882954D01*
X106659504Y-62225170D01*
X106604987Y-62252947D01*
X106544555Y-62243376D01*
X106501290Y-62200111D01*
X106490500Y-62155166D01*
X106490500Y-61855252D01*
X106478867Y-61796769D01*
X106434552Y-61730448D01*
X106368231Y-61686133D01*
X106358668Y-61684231D01*
X106358666Y-61684230D01*
X106335995Y-61679721D01*
X106309748Y-61674500D01*
X105470252Y-61674500D01*
X105444005Y-61679721D01*
X105421334Y-61684230D01*
X105421332Y-61684231D01*
X105411769Y-61686133D01*
X105345448Y-61730448D01*
X105301133Y-61796769D01*
X105289500Y-61855252D01*
X105289500Y-63894748D01*
X105294062Y-63917684D01*
X105298496Y-63939975D01*
X105291304Y-64000737D01*
X105271462Y-64029232D01*
X105244633Y-64056108D01*
X105234483Y-64070931D01*
X105196000Y-64157980D01*
X105192127Y-64172185D01*
X105190332Y-64187580D01*
X105190000Y-64193292D01*
X105190000Y-65069320D01*
X104710500Y-65069320D01*
X104710500Y-64215252D01*
X104704983Y-64187515D01*
X104700770Y-64166334D01*
X104700769Y-64166332D01*
X104698867Y-64156769D01*
X104667618Y-64110002D01*
X104651009Y-64051114D01*
X104667618Y-63999998D01*
X104693448Y-63961341D01*
X104698867Y-63953231D01*
X104701502Y-63939987D01*
X104705938Y-63917684D01*
X104710500Y-63894748D01*
X104710500Y-61855252D01*
X104698867Y-61796769D01*
X104654552Y-61730448D01*
X104588231Y-61686133D01*
X104578668Y-61684231D01*
X104578666Y-61684230D01*
X104555995Y-61679721D01*
X104529748Y-61674500D01*
X103690252Y-61674500D01*
X103664005Y-61679721D01*
X103641334Y-61684230D01*
X103641332Y-61684231D01*
X103631769Y-61686133D01*
X103565448Y-61730448D01*
X103521133Y-61796769D01*
X103509500Y-61855252D01*
X103509500Y-62433287D01*
X103490593Y-62491478D01*
X103441093Y-62527442D01*
X103379907Y-62527442D01*
X103350233Y-62511829D01*
X103307990Y-62479415D01*
X103302841Y-62475464D01*
X103156762Y-62414956D01*
X103000000Y-62394318D01*
X102843238Y-62414956D01*
X102697159Y-62475464D01*
X102571718Y-62571718D01*
X102475464Y-62697159D01*
X102414956Y-62843238D01*
X102394318Y-63000000D01*
X102414956Y-63156762D01*
X102475464Y-63302841D01*
X102571718Y-63428282D01*
X102697159Y-63524536D01*
X102843238Y-63585044D01*
X103000000Y-63605682D01*
X103156762Y-63585044D01*
X103302841Y-63524536D01*
X103350233Y-63488171D01*
X103407909Y-63467747D01*
X103466574Y-63485125D01*
X103503822Y-63533666D01*
X103509500Y-63566713D01*
X103509500Y-63894748D01*
X103514062Y-63917684D01*
X103518499Y-63939987D01*
X103521133Y-63953231D01*
X103526552Y-63961341D01*
X103552382Y-63999998D01*
X103568991Y-64058886D01*
X103552382Y-64110002D01*
X103521133Y-64156769D01*
X103519231Y-64166332D01*
X103519230Y-64166334D01*
X103515017Y-64187515D01*
X103509500Y-64215252D01*
X103509500Y-65334166D01*
X103490593Y-65392357D01*
X103480504Y-65404170D01*
X100659504Y-68225170D01*
X100604987Y-68252947D01*
X100544555Y-68243376D01*
X100501290Y-68200111D01*
X100490500Y-68155166D01*
X100490500Y-67745252D01*
X100478867Y-67686769D01*
X100434552Y-67620448D01*
X100368231Y-67576133D01*
X100358668Y-67574231D01*
X100358666Y-67574230D01*
X100335995Y-67569721D01*
X100309748Y-67564500D01*
X99470252Y-67564500D01*
X99444005Y-67569721D01*
X99421334Y-67574230D01*
X99421332Y-67574231D01*
X99411769Y-67576133D01*
X99345448Y-67620448D01*
X99301133Y-67686769D01*
X99289500Y-67745252D01*
X99289500Y-69601000D01*
X99270593Y-69659191D01*
X99221093Y-69695155D01*
X99190500Y-69700000D01*
X98809500Y-69700000D01*
X98751309Y-69681093D01*
X98715345Y-69631593D01*
X98710500Y-69601000D01*
X98710500Y-67745252D01*
X98698867Y-67686769D01*
X98654552Y-67620448D01*
X98588231Y-67576133D01*
X98578668Y-67574231D01*
X98578666Y-67574230D01*
X98555995Y-67569721D01*
X98529748Y-67564500D01*
X97690252Y-67564500D01*
X97664005Y-67569721D01*
X97641334Y-67574230D01*
X97641332Y-67574231D01*
X97631769Y-67576133D01*
X97565448Y-67620448D01*
X97521133Y-67686769D01*
X97509500Y-67745252D01*
X97509500Y-68340500D01*
X97490593Y-68398691D01*
X97441093Y-68434655D01*
X97410500Y-68439500D01*
X97253525Y-68439500D01*
X97244897Y-68439123D01*
X97222310Y-68437147D01*
X97193052Y-68429988D01*
X97162759Y-68417440D01*
X97162758Y-68417440D01*
X97156762Y-68414956D01*
X97000000Y-68394318D01*
X96843238Y-68414956D01*
X96697159Y-68475464D01*
X96571718Y-68571718D01*
X96475464Y-68697159D01*
X96414956Y-68843238D01*
X96394318Y-69000000D01*
X96414956Y-69156762D01*
X96475464Y-69302841D01*
X96571718Y-69428282D01*
X96645798Y-69485125D01*
X96694451Y-69522458D01*
X96729107Y-69572882D01*
X96727506Y-69634047D01*
X96690258Y-69682588D01*
X96634184Y-69700000D01*
X94589500Y-69700000D01*
X94531309Y-69681093D01*
X94495345Y-69631593D01*
X94490500Y-69601000D01*
X94490500Y-69191953D01*
X94509407Y-69133762D01*
X94558907Y-69097798D01*
X94598127Y-69093330D01*
X94600176Y-69093509D01*
X94600177Y-69093509D01*
X94608807Y-69094264D01*
X94646350Y-69084204D01*
X94654784Y-69082334D01*
X94684517Y-69077092D01*
X94684519Y-69077091D01*
X94693045Y-69075588D01*
X94700544Y-69071258D01*
X94706029Y-69069262D01*
X94711316Y-69066796D01*
X94719684Y-69064554D01*
X94751511Y-69042268D01*
X94758795Y-69037627D01*
X94792455Y-69018194D01*
X94817431Y-68988429D01*
X94823265Y-68982061D01*
X97426953Y-66378374D01*
X97481470Y-66350597D01*
X97541902Y-66360168D01*
X97562491Y-66375126D01*
X97565448Y-66379552D01*
X97631769Y-66423867D01*
X97641332Y-66425769D01*
X97641334Y-66425770D01*
X97664005Y-66430279D01*
X97690252Y-66435500D01*
X98529748Y-66435500D01*
X98555995Y-66430279D01*
X98578666Y-66425770D01*
X98578668Y-66425769D01*
X98588231Y-66423867D01*
X98654552Y-66379552D01*
X98698867Y-66313231D01*
X98701827Y-66298353D01*
X98706146Y-66276639D01*
X99190000Y-66276639D01*
X99190346Y-66282485D01*
X99192234Y-66298353D01*
X99196128Y-66312519D01*
X99234770Y-66399514D01*
X99244946Y-66414321D01*
X99311108Y-66480367D01*
X99325931Y-66490517D01*
X99412980Y-66529000D01*
X99427185Y-66532873D01*
X99442580Y-66534668D01*
X99448292Y-66535000D01*
X99724320Y-66535000D01*
X99737005Y-66530878D01*
X99740000Y-66526757D01*
X99740000Y-66519320D01*
X100040000Y-66519320D01*
X100044122Y-66532005D01*
X100048243Y-66535000D01*
X100331639Y-66535000D01*
X100337485Y-66534654D01*
X100353353Y-66532766D01*
X100367519Y-66528872D01*
X100454514Y-66490230D01*
X100469321Y-66480054D01*
X100535367Y-66413892D01*
X100545517Y-66399069D01*
X100584000Y-66312020D01*
X100587873Y-66297815D01*
X100589668Y-66282420D01*
X100590000Y-66276708D01*
X100590000Y-65400680D01*
X100585878Y-65387995D01*
X100581757Y-65385000D01*
X100055680Y-65385000D01*
X100042995Y-65389122D01*
X100040000Y-65393243D01*
X100040000Y-66519320D01*
X99740000Y-66519320D01*
X99740000Y-65400680D01*
X99735878Y-65387995D01*
X99731757Y-65385000D01*
X99205680Y-65385000D01*
X99192995Y-65389122D01*
X99190000Y-65393243D01*
X99190000Y-66276639D01*
X98706146Y-66276639D01*
X98709552Y-66259512D01*
X98710500Y-66254748D01*
X98710500Y-65069320D01*
X99190000Y-65069320D01*
X99194122Y-65082005D01*
X99198243Y-65085000D01*
X100574320Y-65085000D01*
X100587005Y-65080878D01*
X100590000Y-65076757D01*
X100590000Y-64193361D01*
X100589654Y-64187515D01*
X100587766Y-64171647D01*
X100583872Y-64157481D01*
X100545230Y-64070486D01*
X100535054Y-64055679D01*
X100473746Y-63994479D01*
X100445921Y-63939987D01*
X100455439Y-63879546D01*
X100461373Y-63869412D01*
X100461414Y-63869351D01*
X100478867Y-63843231D01*
X100490500Y-63784748D01*
X100490500Y-63189500D01*
X100509407Y-63131309D01*
X100558907Y-63095345D01*
X100589500Y-63090500D01*
X100671466Y-63090500D01*
X100680095Y-63090877D01*
X100718807Y-63094264D01*
X100756350Y-63084204D01*
X100764784Y-63082334D01*
X100794517Y-63077092D01*
X100794519Y-63077091D01*
X100803045Y-63075588D01*
X100810544Y-63071258D01*
X100816029Y-63069262D01*
X100821316Y-63066796D01*
X100829684Y-63064554D01*
X100861511Y-63042268D01*
X100868795Y-63037627D01*
X100902455Y-63018194D01*
X100927431Y-62988429D01*
X100933265Y-62982061D01*
X103426953Y-60488374D01*
X103481470Y-60460597D01*
X103541902Y-60470168D01*
X103562491Y-60485126D01*
X103565448Y-60489552D01*
X103631769Y-60533867D01*
X103641332Y-60535769D01*
X103641334Y-60535770D01*
X103664005Y-60540279D01*
X103690252Y-60545500D01*
X104529748Y-60545500D01*
X104555995Y-60540279D01*
X104578666Y-60535770D01*
X104578668Y-60535769D01*
X104588231Y-60533867D01*
X104654552Y-60489552D01*
X104698867Y-60423231D01*
X104701827Y-60408353D01*
X104706146Y-60386639D01*
X105190000Y-60386639D01*
X105190346Y-60392485D01*
X105192234Y-60408353D01*
X105196128Y-60422519D01*
X105234770Y-60509514D01*
X105244946Y-60524321D01*
X105311108Y-60590367D01*
X105325931Y-60600517D01*
X105412980Y-60639000D01*
X105427185Y-60642873D01*
X105442580Y-60644668D01*
X105448292Y-60645000D01*
X105724320Y-60645000D01*
X105737005Y-60640878D01*
X105740000Y-60636757D01*
X105740000Y-60629320D01*
X106040000Y-60629320D01*
X106044122Y-60642005D01*
X106048243Y-60645000D01*
X106331639Y-60645000D01*
X106337485Y-60644654D01*
X106353353Y-60642766D01*
X106367519Y-60638872D01*
X106454514Y-60600230D01*
X106469321Y-60590054D01*
X106535367Y-60523892D01*
X106545517Y-60509069D01*
X106584000Y-60422020D01*
X106587873Y-60407815D01*
X106589668Y-60392420D01*
X106590000Y-60386708D01*
X106590000Y-59510680D01*
X106585878Y-59497995D01*
X106581757Y-59495000D01*
X106055680Y-59495000D01*
X106042995Y-59499122D01*
X106040000Y-59503243D01*
X106040000Y-60629320D01*
X105740000Y-60629320D01*
X105740000Y-59510680D01*
X105735878Y-59497995D01*
X105731757Y-59495000D01*
X105205680Y-59495000D01*
X105192995Y-59499122D01*
X105190000Y-59503243D01*
X105190000Y-60386639D01*
X104706146Y-60386639D01*
X104707555Y-60379552D01*
X104710500Y-60364748D01*
X104710500Y-59179320D01*
X105190000Y-59179320D01*
X105194122Y-59192005D01*
X105198243Y-59195000D01*
X106574320Y-59195000D01*
X106587005Y-59190878D01*
X106590000Y-59186757D01*
X106590000Y-58303361D01*
X106589654Y-58297515D01*
X106587766Y-58281647D01*
X106583872Y-58267481D01*
X106545230Y-58180486D01*
X106535054Y-58165679D01*
X106468892Y-58099633D01*
X106454069Y-58089483D01*
X106444966Y-58085459D01*
X106399389Y-58044637D01*
X106386512Y-57984822D01*
X106411252Y-57928862D01*
X106421082Y-57920331D01*
X106426442Y-57914971D01*
X106434552Y-57909552D01*
X106478867Y-57843231D01*
X106490500Y-57784748D01*
X106490500Y-57191953D01*
X106509407Y-57133762D01*
X106558907Y-57097798D01*
X106598127Y-57093330D01*
X106600176Y-57093509D01*
X106600177Y-57093509D01*
X106608807Y-57094264D01*
X106646350Y-57084204D01*
X106654784Y-57082334D01*
X106684517Y-57077092D01*
X106684519Y-57077091D01*
X106693045Y-57075588D01*
X106700544Y-57071258D01*
X106706029Y-57069262D01*
X106711316Y-57066796D01*
X106719684Y-57064554D01*
X106751511Y-57042268D01*
X106758795Y-57037627D01*
X106761452Y-57036093D01*
X106792455Y-57018194D01*
X106817431Y-56988429D01*
X106823265Y-56982061D01*
X109426953Y-54378374D01*
X109481470Y-54350597D01*
X109541902Y-54360168D01*
X109562491Y-54375126D01*
X109565448Y-54379552D01*
X109631769Y-54423867D01*
X109641332Y-54425769D01*
X109641334Y-54425770D01*
X109664005Y-54430279D01*
X109690252Y-54435500D01*
X110529748Y-54435500D01*
X110555995Y-54430279D01*
X110578666Y-54425770D01*
X110578668Y-54425769D01*
X110588231Y-54423867D01*
X110654552Y-54379552D01*
X110698867Y-54313231D01*
X110701827Y-54298353D01*
X110706146Y-54276639D01*
X111190000Y-54276639D01*
X111190346Y-54282485D01*
X111192234Y-54298353D01*
X111196128Y-54312519D01*
X111234770Y-54399514D01*
X111244946Y-54414321D01*
X111311108Y-54480367D01*
X111325931Y-54490517D01*
X111412980Y-54529000D01*
X111427185Y-54532873D01*
X111442580Y-54534668D01*
X111448292Y-54535000D01*
X111724320Y-54535000D01*
X111737005Y-54530878D01*
X111740000Y-54526757D01*
X111740000Y-54519320D01*
X112040000Y-54519320D01*
X112044122Y-54532005D01*
X112048243Y-54535000D01*
X112331639Y-54535000D01*
X112337485Y-54534654D01*
X112353353Y-54532766D01*
X112367519Y-54528872D01*
X112454514Y-54490230D01*
X112469321Y-54480054D01*
X112535367Y-54413892D01*
X112545517Y-54399069D01*
X112584000Y-54312020D01*
X112587873Y-54297815D01*
X112589668Y-54282420D01*
X112590000Y-54276708D01*
X112590000Y-53400680D01*
X112585878Y-53387995D01*
X112581757Y-53385000D01*
X112055680Y-53385000D01*
X112042995Y-53389122D01*
X112040000Y-53393243D01*
X112040000Y-54519320D01*
X111740000Y-54519320D01*
X111740000Y-53400680D01*
X111735878Y-53387995D01*
X111731757Y-53385000D01*
X111205680Y-53385000D01*
X111192995Y-53389122D01*
X111190000Y-53393243D01*
X111190000Y-54276639D01*
X110706146Y-54276639D01*
X110710500Y-54254748D01*
X110710500Y-52215252D01*
X110704983Y-52187515D01*
X110700770Y-52166334D01*
X110700769Y-52166332D01*
X110698867Y-52156769D01*
X110654552Y-52090448D01*
X110642380Y-52082315D01*
X110604501Y-52034266D01*
X110602099Y-51973128D01*
X110636091Y-51922254D01*
X110642372Y-51917691D01*
X110654552Y-51909552D01*
X110698867Y-51843231D01*
X110710500Y-51784748D01*
X110710500Y-49745252D01*
X110698867Y-49686769D01*
X110654552Y-49620448D01*
X110588231Y-49576133D01*
X110578668Y-49574231D01*
X110578666Y-49574230D01*
X110555995Y-49569721D01*
X110529748Y-49564500D01*
X109690252Y-49564500D01*
X109664005Y-49569721D01*
X109641334Y-49574230D01*
X109641332Y-49574231D01*
X109631769Y-49576133D01*
X109565448Y-49620448D01*
X109521133Y-49686769D01*
X109509500Y-49745252D01*
X109509500Y-50340500D01*
X109490593Y-50398691D01*
X109441093Y-50434655D01*
X109410500Y-50439500D01*
X109253525Y-50439500D01*
X109244897Y-50439123D01*
X109222310Y-50437147D01*
X109193052Y-50429988D01*
X109162759Y-50417440D01*
X109162758Y-50417440D01*
X109156762Y-50414956D01*
X109000000Y-50394318D01*
X108843238Y-50414956D01*
X108697159Y-50475464D01*
X108571718Y-50571718D01*
X108475464Y-50697159D01*
X108414956Y-50843238D01*
X108394318Y-51000000D01*
X108414956Y-51156762D01*
X108475464Y-51302841D01*
X108571718Y-51428282D01*
X108697159Y-51524536D01*
X108843238Y-51585044D01*
X109000000Y-51605682D01*
X109156762Y-51585044D01*
X109302841Y-51524536D01*
X109350233Y-51488171D01*
X109407909Y-51467747D01*
X109466574Y-51485125D01*
X109503822Y-51533666D01*
X109509500Y-51566713D01*
X109509500Y-51784748D01*
X109521133Y-51843231D01*
X109565448Y-51909552D01*
X109577620Y-51917685D01*
X109615499Y-51965734D01*
X109617901Y-52026872D01*
X109583909Y-52077746D01*
X109577628Y-52082309D01*
X109565448Y-52090448D01*
X109521133Y-52156769D01*
X109519231Y-52166332D01*
X109519230Y-52166334D01*
X109515017Y-52187515D01*
X109509500Y-52215252D01*
X109509500Y-53334166D01*
X109490593Y-53392357D01*
X109480504Y-53404170D01*
X106659504Y-56225170D01*
X106604987Y-56252947D01*
X106544555Y-56243376D01*
X106501290Y-56200111D01*
X106490500Y-56155166D01*
X106490500Y-55745252D01*
X106478867Y-55686769D01*
X106434552Y-55620448D01*
X106368231Y-55576133D01*
X106358668Y-55574231D01*
X106358666Y-55574230D01*
X106335995Y-55569721D01*
X106309748Y-55564500D01*
X105470252Y-55564500D01*
X105444005Y-55569721D01*
X105421334Y-55574230D01*
X105421332Y-55574231D01*
X105411769Y-55576133D01*
X105345448Y-55620448D01*
X105301133Y-55686769D01*
X105289500Y-55745252D01*
X105289500Y-57784748D01*
X105301133Y-57843231D01*
X105345448Y-57909552D01*
X105353558Y-57914971D01*
X105360450Y-57921863D01*
X105358712Y-57923601D01*
X105387950Y-57960694D01*
X105390349Y-58021833D01*
X105356353Y-58072705D01*
X105335252Y-58085432D01*
X105325486Y-58089769D01*
X105310679Y-58099946D01*
X105244633Y-58166108D01*
X105234483Y-58180931D01*
X105196000Y-58267980D01*
X105192127Y-58282185D01*
X105190332Y-58297580D01*
X105190000Y-58303292D01*
X105190000Y-59179320D01*
X104710500Y-59179320D01*
X104710500Y-58325252D01*
X104704983Y-58297515D01*
X104700770Y-58276334D01*
X104700769Y-58276332D01*
X104698867Y-58266769D01*
X104654552Y-58200448D01*
X104588231Y-58156133D01*
X104578668Y-58154231D01*
X104578666Y-58154230D01*
X104567946Y-58152098D01*
X104514562Y-58122201D01*
X104488946Y-58066636D01*
X104500883Y-58006626D01*
X104545813Y-57965094D01*
X104567946Y-57957902D01*
X104578666Y-57955770D01*
X104578668Y-57955769D01*
X104588231Y-57953867D01*
X104654552Y-57909552D01*
X104698867Y-57843231D01*
X104710500Y-57784748D01*
X104710500Y-55745252D01*
X104698867Y-55686769D01*
X104654552Y-55620448D01*
X104588231Y-55576133D01*
X104578668Y-55574231D01*
X104578666Y-55574230D01*
X104555995Y-55569721D01*
X104529748Y-55564500D01*
X103690252Y-55564500D01*
X103664005Y-55569721D01*
X103641334Y-55574230D01*
X103641332Y-55574231D01*
X103631769Y-55576133D01*
X103565448Y-55620448D01*
X103521133Y-55686769D01*
X103509500Y-55745252D01*
X103509500Y-56340500D01*
X103490593Y-56398691D01*
X103441093Y-56434655D01*
X103410500Y-56439500D01*
X103253525Y-56439500D01*
X103244897Y-56439123D01*
X103222310Y-56437147D01*
X103193052Y-56429988D01*
X103162759Y-56417440D01*
X103162758Y-56417440D01*
X103156762Y-56414956D01*
X103000000Y-56394318D01*
X102843238Y-56414956D01*
X102697159Y-56475464D01*
X102571718Y-56571718D01*
X102475464Y-56697159D01*
X102414956Y-56843238D01*
X102394318Y-57000000D01*
X102414956Y-57156762D01*
X102475464Y-57302841D01*
X102571718Y-57428282D01*
X102697159Y-57524536D01*
X102843238Y-57585044D01*
X103000000Y-57605682D01*
X103156762Y-57585044D01*
X103302841Y-57524536D01*
X103350233Y-57488171D01*
X103407909Y-57467747D01*
X103466574Y-57485125D01*
X103503822Y-57533666D01*
X103509500Y-57566713D01*
X103509500Y-57784748D01*
X103521133Y-57843231D01*
X103565448Y-57909552D01*
X103631769Y-57953867D01*
X103641332Y-57955769D01*
X103641334Y-57955770D01*
X103652054Y-57957902D01*
X103705438Y-57987799D01*
X103731054Y-58043364D01*
X103719117Y-58103374D01*
X103674187Y-58144906D01*
X103652054Y-58152098D01*
X103641334Y-58154230D01*
X103641332Y-58154231D01*
X103631769Y-58156133D01*
X103565448Y-58200448D01*
X103521133Y-58266769D01*
X103519231Y-58276332D01*
X103519230Y-58276334D01*
X103515017Y-58297515D01*
X103509500Y-58325252D01*
X103509500Y-59444165D01*
X103490593Y-59502356D01*
X103480504Y-59514169D01*
X102040123Y-60954551D01*
X100659504Y-62335170D01*
X100604987Y-62362947D01*
X100544555Y-62353376D01*
X100501290Y-62310111D01*
X100490500Y-62265166D01*
X100490500Y-61745252D01*
X100478867Y-61686769D01*
X100434552Y-61620448D01*
X100368231Y-61576133D01*
X100358668Y-61574231D01*
X100358666Y-61574230D01*
X100335995Y-61569721D01*
X100309748Y-61564500D01*
X99470252Y-61564500D01*
X99444005Y-61569721D01*
X99421334Y-61574230D01*
X99421332Y-61574231D01*
X99411769Y-61576133D01*
X99345448Y-61620448D01*
X99301133Y-61686769D01*
X99289500Y-61745252D01*
X99289500Y-63784748D01*
X99301133Y-63843231D01*
X99318588Y-63869353D01*
X99335196Y-63928239D01*
X99314019Y-63985643D01*
X99306337Y-63994296D01*
X99244633Y-64056108D01*
X99234483Y-64070931D01*
X99196000Y-64157980D01*
X99192127Y-64172185D01*
X99190332Y-64187580D01*
X99190000Y-64193292D01*
X99190000Y-65069320D01*
X98710500Y-65069320D01*
X98710500Y-64215252D01*
X98704983Y-64187515D01*
X98700770Y-64166334D01*
X98700769Y-64166332D01*
X98698867Y-64156769D01*
X98654552Y-64090448D01*
X98642380Y-64082315D01*
X98604501Y-64034266D01*
X98602099Y-63973128D01*
X98636091Y-63922254D01*
X98642372Y-63917691D01*
X98654552Y-63909552D01*
X98698867Y-63843231D01*
X98710500Y-63784748D01*
X98710500Y-61745252D01*
X98698867Y-61686769D01*
X98654552Y-61620448D01*
X98588231Y-61576133D01*
X98578668Y-61574231D01*
X98578666Y-61574230D01*
X98555995Y-61569721D01*
X98529748Y-61564500D01*
X97690252Y-61564500D01*
X97664005Y-61569721D01*
X97641334Y-61574230D01*
X97641332Y-61574231D01*
X97631769Y-61576133D01*
X97565448Y-61620448D01*
X97521133Y-61686769D01*
X97509500Y-61745252D01*
X97509500Y-62340500D01*
X97490593Y-62398691D01*
X97441093Y-62434655D01*
X97410500Y-62439500D01*
X97253525Y-62439500D01*
X97244897Y-62439123D01*
X97222310Y-62437147D01*
X97193052Y-62429988D01*
X97162759Y-62417440D01*
X97162758Y-62417440D01*
X97156762Y-62414956D01*
X97000000Y-62394318D01*
X96843238Y-62414956D01*
X96697159Y-62475464D01*
X96571718Y-62571718D01*
X96475464Y-62697159D01*
X96414956Y-62843238D01*
X96394318Y-63000000D01*
X96414956Y-63156762D01*
X96475464Y-63302841D01*
X96571718Y-63428282D01*
X96697159Y-63524536D01*
X96843238Y-63585044D01*
X97000000Y-63605682D01*
X97156762Y-63585044D01*
X97302841Y-63524536D01*
X97350233Y-63488171D01*
X97407909Y-63467747D01*
X97466574Y-63485125D01*
X97503822Y-63533666D01*
X97509500Y-63566713D01*
X97509500Y-63784748D01*
X97521133Y-63843231D01*
X97565448Y-63909552D01*
X97577620Y-63917685D01*
X97615499Y-63965734D01*
X97617901Y-64026872D01*
X97583909Y-64077746D01*
X97577628Y-64082309D01*
X97565448Y-64090448D01*
X97521133Y-64156769D01*
X97519231Y-64166332D01*
X97519230Y-64166334D01*
X97515017Y-64187515D01*
X97509500Y-64215252D01*
X97509500Y-65334166D01*
X97490593Y-65392357D01*
X97480504Y-65404170D01*
X94659504Y-68225170D01*
X94604987Y-68252947D01*
X94544555Y-68243376D01*
X94501290Y-68200111D01*
X94490500Y-68155166D01*
X94490500Y-67745252D01*
X94478867Y-67686769D01*
X94434552Y-67620448D01*
X94368231Y-67576133D01*
X94358668Y-67574231D01*
X94358666Y-67574230D01*
X94335995Y-67569721D01*
X94309748Y-67564500D01*
X93470252Y-67564500D01*
X93444005Y-67569721D01*
X93421334Y-67574230D01*
X93421332Y-67574231D01*
X93411769Y-67576133D01*
X93345448Y-67620448D01*
X93301133Y-67686769D01*
X93289500Y-67745252D01*
X93289500Y-69601000D01*
X93270593Y-69659191D01*
X93221093Y-69695155D01*
X93190500Y-69700000D01*
X92809500Y-69700000D01*
X92751309Y-69681093D01*
X92715345Y-69631593D01*
X92710500Y-69601000D01*
X92710500Y-67745252D01*
X92698867Y-67686769D01*
X92654552Y-67620448D01*
X92588231Y-67576133D01*
X92578668Y-67574231D01*
X92578666Y-67574230D01*
X92555995Y-67569721D01*
X92529748Y-67564500D01*
X92524889Y-67564500D01*
X92524798Y-67564491D01*
X92468740Y-67539972D01*
X92437801Y-67487186D01*
X92435500Y-67465968D01*
X92435500Y-67452481D01*
X92455958Y-67392214D01*
X92520585Y-67307990D01*
X92524536Y-67302841D01*
X92585044Y-67156762D01*
X92602803Y-67021872D01*
X92604835Y-67006434D01*
X92604835Y-67006432D01*
X92605682Y-67000000D01*
X92585044Y-66843238D01*
X92524536Y-66697159D01*
X92445968Y-66594767D01*
X92425544Y-66537091D01*
X92442922Y-66478426D01*
X92491463Y-66441178D01*
X92520074Y-66436262D01*
X92520046Y-66435977D01*
X92524000Y-66435588D01*
X92524510Y-66435500D01*
X92529748Y-66435500D01*
X92555995Y-66430279D01*
X92578666Y-66425770D01*
X92578668Y-66425769D01*
X92588231Y-66423867D01*
X92654552Y-66379552D01*
X92698867Y-66313231D01*
X92701827Y-66298353D01*
X92706146Y-66276639D01*
X93190000Y-66276639D01*
X93190346Y-66282485D01*
X93192234Y-66298353D01*
X93196128Y-66312519D01*
X93234770Y-66399514D01*
X93244946Y-66414321D01*
X93311108Y-66480367D01*
X93325931Y-66490517D01*
X93412980Y-66529000D01*
X93427185Y-66532873D01*
X93442580Y-66534668D01*
X93448292Y-66535000D01*
X93724320Y-66535000D01*
X93737005Y-66530878D01*
X93740000Y-66526757D01*
X93740000Y-66519320D01*
X94040000Y-66519320D01*
X94044122Y-66532005D01*
X94048243Y-66535000D01*
X94331639Y-66535000D01*
X94337485Y-66534654D01*
X94353353Y-66532766D01*
X94367519Y-66528872D01*
X94454514Y-66490230D01*
X94469321Y-66480054D01*
X94535367Y-66413892D01*
X94545517Y-66399069D01*
X94584000Y-66312020D01*
X94587873Y-66297815D01*
X94589668Y-66282420D01*
X94590000Y-66276708D01*
X94590000Y-65400680D01*
X94585878Y-65387995D01*
X94581757Y-65385000D01*
X94055680Y-65385000D01*
X94042995Y-65389122D01*
X94040000Y-65393243D01*
X94040000Y-66519320D01*
X93740000Y-66519320D01*
X93740000Y-65400680D01*
X93735878Y-65387995D01*
X93731757Y-65385000D01*
X93205680Y-65385000D01*
X93192995Y-65389122D01*
X93190000Y-65393243D01*
X93190000Y-66276639D01*
X92706146Y-66276639D01*
X92709552Y-66259512D01*
X92710500Y-66254748D01*
X92710500Y-65135834D01*
X92729407Y-65077643D01*
X92739496Y-65065830D01*
X93020996Y-64784330D01*
X93075513Y-64756553D01*
X93135945Y-64766124D01*
X93179210Y-64809389D01*
X93190000Y-64854334D01*
X93190000Y-65069320D01*
X93194122Y-65082005D01*
X93198243Y-65085000D01*
X94574320Y-65085000D01*
X94587005Y-65080878D01*
X94590000Y-65076757D01*
X94590000Y-64193361D01*
X94589654Y-64187515D01*
X94587766Y-64171647D01*
X94583872Y-64157481D01*
X94545230Y-64070486D01*
X94535054Y-64055679D01*
X94473746Y-63994479D01*
X94445921Y-63939987D01*
X94455439Y-63879546D01*
X94461373Y-63869412D01*
X94461414Y-63869351D01*
X94478867Y-63843231D01*
X94490500Y-63784748D01*
X94490500Y-63191953D01*
X94509407Y-63133762D01*
X94558907Y-63097798D01*
X94598127Y-63093330D01*
X94600176Y-63093509D01*
X94600177Y-63093509D01*
X94608807Y-63094264D01*
X94646350Y-63084204D01*
X94654784Y-63082334D01*
X94684517Y-63077092D01*
X94684519Y-63077091D01*
X94693045Y-63075588D01*
X94700544Y-63071258D01*
X94706029Y-63069262D01*
X94711316Y-63066796D01*
X94719684Y-63064554D01*
X94751511Y-63042268D01*
X94758795Y-63037627D01*
X94792455Y-63018194D01*
X94817431Y-62988429D01*
X94823265Y-62982061D01*
X97426953Y-60378374D01*
X97481470Y-60350597D01*
X97541902Y-60360168D01*
X97562491Y-60375126D01*
X97565448Y-60379552D01*
X97631769Y-60423867D01*
X97641332Y-60425769D01*
X97641334Y-60425770D01*
X97664005Y-60430279D01*
X97690252Y-60435500D01*
X98529748Y-60435500D01*
X98555995Y-60430279D01*
X98578666Y-60425770D01*
X98578668Y-60425769D01*
X98588231Y-60423867D01*
X98654552Y-60379552D01*
X98698867Y-60313231D01*
X98701827Y-60298353D01*
X98706146Y-60276639D01*
X99190000Y-60276639D01*
X99190346Y-60282485D01*
X99192234Y-60298353D01*
X99196128Y-60312519D01*
X99234770Y-60399514D01*
X99244946Y-60414321D01*
X99311108Y-60480367D01*
X99325931Y-60490517D01*
X99412980Y-60529000D01*
X99427185Y-60532873D01*
X99442580Y-60534668D01*
X99448292Y-60535000D01*
X99724320Y-60535000D01*
X99737005Y-60530878D01*
X99740000Y-60526757D01*
X99740000Y-60519320D01*
X100040000Y-60519320D01*
X100044122Y-60532005D01*
X100048243Y-60535000D01*
X100331639Y-60535000D01*
X100337485Y-60534654D01*
X100353353Y-60532766D01*
X100367519Y-60528872D01*
X100454514Y-60490230D01*
X100469321Y-60480054D01*
X100535367Y-60413892D01*
X100545517Y-60399069D01*
X100584000Y-60312020D01*
X100587873Y-60297815D01*
X100589668Y-60282420D01*
X100590000Y-60276708D01*
X100590000Y-59400680D01*
X100585878Y-59387995D01*
X100581757Y-59385000D01*
X100055680Y-59385000D01*
X100042995Y-59389122D01*
X100040000Y-59393243D01*
X100040000Y-60519320D01*
X99740000Y-60519320D01*
X99740000Y-59400680D01*
X99735878Y-59387995D01*
X99731757Y-59385000D01*
X99205680Y-59385000D01*
X99192995Y-59389122D01*
X99190000Y-59393243D01*
X99190000Y-60276639D01*
X98706146Y-60276639D01*
X98709552Y-60259512D01*
X98710500Y-60254748D01*
X98710500Y-59069320D01*
X99190000Y-59069320D01*
X99194122Y-59082005D01*
X99198243Y-59085000D01*
X100574320Y-59085000D01*
X100587005Y-59080878D01*
X100590000Y-59076757D01*
X100590000Y-58193361D01*
X100589654Y-58187515D01*
X100587766Y-58171647D01*
X100583872Y-58157481D01*
X100545230Y-58070486D01*
X100535054Y-58055679D01*
X100473746Y-57994479D01*
X100445921Y-57939987D01*
X100455439Y-57879546D01*
X100461373Y-57869412D01*
X100461414Y-57869351D01*
X100478867Y-57843231D01*
X100490500Y-57784748D01*
X100490500Y-57191953D01*
X100509407Y-57133762D01*
X100558907Y-57097798D01*
X100598127Y-57093330D01*
X100600176Y-57093509D01*
X100600177Y-57093509D01*
X100608807Y-57094264D01*
X100646350Y-57084204D01*
X100654784Y-57082334D01*
X100684517Y-57077092D01*
X100684519Y-57077091D01*
X100693045Y-57075588D01*
X100700544Y-57071258D01*
X100706029Y-57069262D01*
X100711316Y-57066796D01*
X100719684Y-57064554D01*
X100751511Y-57042268D01*
X100758795Y-57037627D01*
X100761452Y-57036093D01*
X100792455Y-57018194D01*
X100817431Y-56988429D01*
X100823265Y-56982061D01*
X103426953Y-54378374D01*
X103481470Y-54350597D01*
X103541902Y-54360168D01*
X103562491Y-54375126D01*
X103565448Y-54379552D01*
X103631769Y-54423867D01*
X103641332Y-54425769D01*
X103641334Y-54425770D01*
X103664005Y-54430279D01*
X103690252Y-54435500D01*
X104529748Y-54435500D01*
X104555995Y-54430279D01*
X104578666Y-54425770D01*
X104578668Y-54425769D01*
X104588231Y-54423867D01*
X104654552Y-54379552D01*
X104698867Y-54313231D01*
X104701827Y-54298353D01*
X104706146Y-54276639D01*
X105190000Y-54276639D01*
X105190346Y-54282485D01*
X105192234Y-54298353D01*
X105196128Y-54312519D01*
X105234770Y-54399514D01*
X105244946Y-54414321D01*
X105311108Y-54480367D01*
X105325931Y-54490517D01*
X105412980Y-54529000D01*
X105427185Y-54532873D01*
X105442580Y-54534668D01*
X105448292Y-54535000D01*
X105724320Y-54535000D01*
X105737005Y-54530878D01*
X105740000Y-54526757D01*
X105740000Y-54519320D01*
X106040000Y-54519320D01*
X106044122Y-54532005D01*
X106048243Y-54535000D01*
X106331639Y-54535000D01*
X106337485Y-54534654D01*
X106353353Y-54532766D01*
X106367519Y-54528872D01*
X106454514Y-54490230D01*
X106469321Y-54480054D01*
X106535367Y-54413892D01*
X106545517Y-54399069D01*
X106584000Y-54312020D01*
X106587873Y-54297815D01*
X106589668Y-54282420D01*
X106590000Y-54276708D01*
X106590000Y-53400680D01*
X106585878Y-53387995D01*
X106581757Y-53385000D01*
X106055680Y-53385000D01*
X106042995Y-53389122D01*
X106040000Y-53393243D01*
X106040000Y-54519320D01*
X105740000Y-54519320D01*
X105740000Y-53400680D01*
X105735878Y-53387995D01*
X105731757Y-53385000D01*
X105205680Y-53385000D01*
X105192995Y-53389122D01*
X105190000Y-53393243D01*
X105190000Y-54276639D01*
X104706146Y-54276639D01*
X104710500Y-54254748D01*
X104710500Y-53069320D01*
X105190000Y-53069320D01*
X105194122Y-53082005D01*
X105198243Y-53085000D01*
X106574320Y-53085000D01*
X106587005Y-53080878D01*
X106590000Y-53076757D01*
X106590000Y-52193361D01*
X106589654Y-52187515D01*
X106587766Y-52171647D01*
X106583872Y-52157481D01*
X106545230Y-52070486D01*
X106535054Y-52055679D01*
X106473746Y-51994479D01*
X106445921Y-51939987D01*
X106455439Y-51879546D01*
X106461373Y-51869412D01*
X106467245Y-51860624D01*
X106478867Y-51843231D01*
X106490500Y-51784748D01*
X106490500Y-51191953D01*
X106509407Y-51133762D01*
X106558907Y-51097798D01*
X106598127Y-51093330D01*
X106600176Y-51093509D01*
X106600177Y-51093509D01*
X106608807Y-51094264D01*
X106646350Y-51084204D01*
X106654784Y-51082334D01*
X106684517Y-51077092D01*
X106684519Y-51077091D01*
X106693045Y-51075588D01*
X106700544Y-51071258D01*
X106706029Y-51069262D01*
X106711316Y-51066796D01*
X106719684Y-51064554D01*
X106751511Y-51042268D01*
X106758795Y-51037627D01*
X106792455Y-51018194D01*
X106817431Y-50988429D01*
X106823265Y-50982061D01*
X109426953Y-48378374D01*
X109481470Y-48350597D01*
X109541902Y-48360168D01*
X109562491Y-48375126D01*
X109565448Y-48379552D01*
X109631769Y-48423867D01*
X109641332Y-48425769D01*
X109641334Y-48425770D01*
X109664005Y-48430279D01*
X109690252Y-48435500D01*
X110529748Y-48435500D01*
X110555995Y-48430279D01*
X110578666Y-48425770D01*
X110578668Y-48425769D01*
X110588231Y-48423867D01*
X110654552Y-48379552D01*
X110698867Y-48313231D01*
X110701827Y-48298353D01*
X110706146Y-48276639D01*
X111190000Y-48276639D01*
X111190346Y-48282485D01*
X111192234Y-48298353D01*
X111196128Y-48312519D01*
X111234770Y-48399514D01*
X111244946Y-48414321D01*
X111311108Y-48480367D01*
X111325931Y-48490517D01*
X111412980Y-48529000D01*
X111427185Y-48532873D01*
X111442580Y-48534668D01*
X111448292Y-48535000D01*
X111724320Y-48535000D01*
X111737005Y-48530878D01*
X111740000Y-48526757D01*
X111740000Y-48519320D01*
X112040000Y-48519320D01*
X112044122Y-48532005D01*
X112048243Y-48535000D01*
X112331639Y-48535000D01*
X112337485Y-48534654D01*
X112353353Y-48532766D01*
X112367519Y-48528872D01*
X112454514Y-48490230D01*
X112469321Y-48480054D01*
X112535367Y-48413892D01*
X112545517Y-48399069D01*
X112584000Y-48312020D01*
X112587873Y-48297815D01*
X112589668Y-48282420D01*
X112590000Y-48276708D01*
X112590000Y-47400680D01*
X112585878Y-47387995D01*
X112581757Y-47385000D01*
X112055680Y-47385000D01*
X112042995Y-47389122D01*
X112040000Y-47393243D01*
X112040000Y-48519320D01*
X111740000Y-48519320D01*
X111740000Y-47400680D01*
X111735878Y-47387995D01*
X111731757Y-47385000D01*
X111205680Y-47385000D01*
X111192995Y-47389122D01*
X111190000Y-47393243D01*
X111190000Y-48276639D01*
X110706146Y-48276639D01*
X110709552Y-48259512D01*
X110710500Y-48254748D01*
X110710500Y-46215252D01*
X110704983Y-46187515D01*
X110700770Y-46166334D01*
X110700769Y-46166332D01*
X110698867Y-46156769D01*
X110654552Y-46090448D01*
X110642380Y-46082315D01*
X110604501Y-46034266D01*
X110602099Y-45973128D01*
X110636091Y-45922254D01*
X110642372Y-45917691D01*
X110654552Y-45909552D01*
X110698867Y-45843231D01*
X110710500Y-45784748D01*
X110710500Y-43745252D01*
X110698867Y-43686769D01*
X110654552Y-43620448D01*
X110588231Y-43576133D01*
X110578668Y-43574231D01*
X110578666Y-43574230D01*
X110555995Y-43569721D01*
X110529748Y-43564500D01*
X109690252Y-43564500D01*
X109664005Y-43569721D01*
X109641334Y-43574230D01*
X109641332Y-43574231D01*
X109631769Y-43576133D01*
X109565448Y-43620448D01*
X109521133Y-43686769D01*
X109509500Y-43745252D01*
X109509500Y-44340500D01*
X109490593Y-44398691D01*
X109441093Y-44434655D01*
X109410500Y-44439500D01*
X109253525Y-44439500D01*
X109244897Y-44439123D01*
X109222310Y-44437147D01*
X109193052Y-44429988D01*
X109162759Y-44417440D01*
X109162758Y-44417440D01*
X109156762Y-44414956D01*
X109000000Y-44394318D01*
X108843238Y-44414956D01*
X108697159Y-44475464D01*
X108571718Y-44571718D01*
X108475464Y-44697159D01*
X108414956Y-44843238D01*
X108394318Y-45000000D01*
X108414956Y-45156762D01*
X108475464Y-45302841D01*
X108571718Y-45428282D01*
X108697159Y-45524536D01*
X108843238Y-45585044D01*
X109000000Y-45605682D01*
X109156762Y-45585044D01*
X109302841Y-45524536D01*
X109350233Y-45488171D01*
X109407909Y-45467747D01*
X109466574Y-45485125D01*
X109503822Y-45533666D01*
X109509500Y-45566713D01*
X109509500Y-45784748D01*
X109521133Y-45843231D01*
X109565448Y-45909552D01*
X109577620Y-45917685D01*
X109615499Y-45965734D01*
X109617901Y-46026872D01*
X109583909Y-46077746D01*
X109577628Y-46082309D01*
X109565448Y-46090448D01*
X109521133Y-46156769D01*
X109519231Y-46166332D01*
X109519230Y-46166334D01*
X109515017Y-46187515D01*
X109509500Y-46215252D01*
X109509500Y-47334166D01*
X109490593Y-47392357D01*
X109480504Y-47404170D01*
X106659504Y-50225170D01*
X106604987Y-50252947D01*
X106544555Y-50243376D01*
X106501290Y-50200111D01*
X106490500Y-50155166D01*
X106490500Y-49745252D01*
X106478867Y-49686769D01*
X106434552Y-49620448D01*
X106368231Y-49576133D01*
X106358668Y-49574231D01*
X106358666Y-49574230D01*
X106335995Y-49569721D01*
X106309748Y-49564500D01*
X105470252Y-49564500D01*
X105444005Y-49569721D01*
X105421334Y-49574230D01*
X105421332Y-49574231D01*
X105411769Y-49576133D01*
X105345448Y-49620448D01*
X105301133Y-49686769D01*
X105289500Y-49745252D01*
X105289500Y-51784748D01*
X105301133Y-51843231D01*
X105318588Y-51869353D01*
X105335196Y-51928239D01*
X105314019Y-51985643D01*
X105306337Y-51994296D01*
X105244633Y-52056108D01*
X105234483Y-52070931D01*
X105196000Y-52157980D01*
X105192127Y-52172185D01*
X105190332Y-52187580D01*
X105190000Y-52193292D01*
X105190000Y-53069320D01*
X104710500Y-53069320D01*
X104710500Y-52215252D01*
X104704983Y-52187515D01*
X104700770Y-52166334D01*
X104700769Y-52166332D01*
X104698867Y-52156769D01*
X104654552Y-52090448D01*
X104642380Y-52082315D01*
X104604501Y-52034266D01*
X104602099Y-51973128D01*
X104636091Y-51922254D01*
X104642372Y-51917691D01*
X104654552Y-51909552D01*
X104698867Y-51843231D01*
X104710500Y-51784748D01*
X104710500Y-49745252D01*
X104698867Y-49686769D01*
X104654552Y-49620448D01*
X104588231Y-49576133D01*
X104578668Y-49574231D01*
X104578666Y-49574230D01*
X104555995Y-49569721D01*
X104529748Y-49564500D01*
X103690252Y-49564500D01*
X103664005Y-49569721D01*
X103641334Y-49574230D01*
X103641332Y-49574231D01*
X103631769Y-49576133D01*
X103565448Y-49620448D01*
X103521133Y-49686769D01*
X103509500Y-49745252D01*
X103509500Y-50340500D01*
X103490593Y-50398691D01*
X103441093Y-50434655D01*
X103410500Y-50439500D01*
X103253525Y-50439500D01*
X103244897Y-50439123D01*
X103222310Y-50437147D01*
X103193052Y-50429988D01*
X103162759Y-50417440D01*
X103162758Y-50417440D01*
X103156762Y-50414956D01*
X103000000Y-50394318D01*
X102843238Y-50414956D01*
X102697159Y-50475464D01*
X102571718Y-50571718D01*
X102475464Y-50697159D01*
X102414956Y-50843238D01*
X102394318Y-51000000D01*
X102414956Y-51156762D01*
X102475464Y-51302841D01*
X102571718Y-51428282D01*
X102697159Y-51524536D01*
X102843238Y-51585044D01*
X103000000Y-51605682D01*
X103156762Y-51585044D01*
X103302841Y-51524536D01*
X103350233Y-51488171D01*
X103407909Y-51467747D01*
X103466574Y-51485125D01*
X103503822Y-51533666D01*
X103509500Y-51566713D01*
X103509500Y-51784748D01*
X103521133Y-51843231D01*
X103565448Y-51909552D01*
X103577620Y-51917685D01*
X103615499Y-51965734D01*
X103617901Y-52026872D01*
X103583909Y-52077746D01*
X103577628Y-52082309D01*
X103565448Y-52090448D01*
X103521133Y-52156769D01*
X103519231Y-52166332D01*
X103519230Y-52166334D01*
X103515017Y-52187515D01*
X103509500Y-52215252D01*
X103509500Y-53334166D01*
X103490593Y-53392357D01*
X103480504Y-53404170D01*
X100659504Y-56225170D01*
X100604987Y-56252947D01*
X100544555Y-56243376D01*
X100501290Y-56200111D01*
X100490500Y-56155166D01*
X100490500Y-55745252D01*
X100478867Y-55686769D01*
X100434552Y-55620448D01*
X100368231Y-55576133D01*
X100358668Y-55574231D01*
X100358666Y-55574230D01*
X100335995Y-55569721D01*
X100309748Y-55564500D01*
X99470252Y-55564500D01*
X99444005Y-55569721D01*
X99421334Y-55574230D01*
X99421332Y-55574231D01*
X99411769Y-55576133D01*
X99345448Y-55620448D01*
X99301133Y-55686769D01*
X99289500Y-55745252D01*
X99289500Y-57784748D01*
X99301133Y-57843231D01*
X99318588Y-57869353D01*
X99335196Y-57928239D01*
X99314019Y-57985643D01*
X99306337Y-57994296D01*
X99244633Y-58056108D01*
X99234483Y-58070931D01*
X99196000Y-58157980D01*
X99192127Y-58172185D01*
X99190332Y-58187580D01*
X99190000Y-58193292D01*
X99190000Y-59069320D01*
X98710500Y-59069320D01*
X98710500Y-58215252D01*
X98703585Y-58180486D01*
X98700770Y-58166334D01*
X98700769Y-58166332D01*
X98698867Y-58156769D01*
X98654552Y-58090448D01*
X98642380Y-58082315D01*
X98604501Y-58034266D01*
X98602099Y-57973128D01*
X98636091Y-57922254D01*
X98642372Y-57917691D01*
X98654552Y-57909552D01*
X98698867Y-57843231D01*
X98710500Y-57784748D01*
X98710500Y-55745252D01*
X98698867Y-55686769D01*
X98654552Y-55620448D01*
X98588231Y-55576133D01*
X98578668Y-55574231D01*
X98578666Y-55574230D01*
X98555995Y-55569721D01*
X98529748Y-55564500D01*
X97690252Y-55564500D01*
X97664005Y-55569721D01*
X97641334Y-55574230D01*
X97641332Y-55574231D01*
X97631769Y-55576133D01*
X97565448Y-55620448D01*
X97521133Y-55686769D01*
X97509500Y-55745252D01*
X97509500Y-56340500D01*
X97490593Y-56398691D01*
X97441093Y-56434655D01*
X97410500Y-56439500D01*
X97253525Y-56439500D01*
X97244897Y-56439123D01*
X97222310Y-56437147D01*
X97193052Y-56429988D01*
X97162759Y-56417440D01*
X97162758Y-56417440D01*
X97156762Y-56414956D01*
X97000000Y-56394318D01*
X96843238Y-56414956D01*
X96697159Y-56475464D01*
X96571718Y-56571718D01*
X96475464Y-56697159D01*
X96414956Y-56843238D01*
X96394318Y-57000000D01*
X96414956Y-57156762D01*
X96475464Y-57302841D01*
X96571718Y-57428282D01*
X96697159Y-57524536D01*
X96843238Y-57585044D01*
X97000000Y-57605682D01*
X97156762Y-57585044D01*
X97302841Y-57524536D01*
X97350233Y-57488171D01*
X97407909Y-57467747D01*
X97466574Y-57485125D01*
X97503822Y-57533666D01*
X97509500Y-57566713D01*
X97509500Y-57784748D01*
X97521133Y-57843231D01*
X97565448Y-57909552D01*
X97577620Y-57917685D01*
X97615499Y-57965734D01*
X97617901Y-58026872D01*
X97583909Y-58077746D01*
X97577628Y-58082309D01*
X97565448Y-58090448D01*
X97521133Y-58156769D01*
X97519231Y-58166332D01*
X97519230Y-58166334D01*
X97516415Y-58180486D01*
X97509500Y-58215252D01*
X97509500Y-59334166D01*
X97490593Y-59392357D01*
X97480504Y-59404170D01*
X94659504Y-62225170D01*
X94604987Y-62252947D01*
X94544555Y-62243376D01*
X94501290Y-62200111D01*
X94490500Y-62155166D01*
X94490500Y-61745252D01*
X94478867Y-61686769D01*
X94434552Y-61620448D01*
X94368231Y-61576133D01*
X94358668Y-61574231D01*
X94358666Y-61574230D01*
X94335995Y-61569721D01*
X94309748Y-61564500D01*
X93524510Y-61564500D01*
X93466319Y-61545593D01*
X93430355Y-61496093D01*
X93430355Y-61434907D01*
X93445968Y-61405233D01*
X93520585Y-61307990D01*
X93524536Y-61302841D01*
X93585044Y-61156762D01*
X93605682Y-61000000D01*
X93585044Y-60843238D01*
X93524536Y-60697159D01*
X93520585Y-60692010D01*
X93517342Y-60686393D01*
X93519157Y-60685345D01*
X93501893Y-60636589D01*
X93519272Y-60577924D01*
X93567814Y-60540678D01*
X93600859Y-60535000D01*
X93724320Y-60535000D01*
X93737005Y-60530878D01*
X93740000Y-60526757D01*
X93740000Y-60519320D01*
X94040000Y-60519320D01*
X94044122Y-60532005D01*
X94048243Y-60535000D01*
X94331639Y-60535000D01*
X94337485Y-60534654D01*
X94353353Y-60532766D01*
X94367519Y-60528872D01*
X94454514Y-60490230D01*
X94469321Y-60480054D01*
X94535367Y-60413892D01*
X94545517Y-60399069D01*
X94584000Y-60312020D01*
X94587873Y-60297815D01*
X94589668Y-60282420D01*
X94590000Y-60276708D01*
X94590000Y-59400680D01*
X94585878Y-59387995D01*
X94581757Y-59385000D01*
X94055680Y-59385000D01*
X94042995Y-59389122D01*
X94040000Y-59393243D01*
X94040000Y-60519320D01*
X93740000Y-60519320D01*
X93740000Y-59400680D01*
X93735878Y-59387995D01*
X93731757Y-59385000D01*
X93205680Y-59385000D01*
X93192995Y-59389122D01*
X93190000Y-59393243D01*
X93190000Y-60276639D01*
X93190346Y-60282487D01*
X93191845Y-60295082D01*
X93179945Y-60355099D01*
X93135040Y-60396659D01*
X93080616Y-60404931D01*
X93006434Y-60395165D01*
X93000000Y-60394318D01*
X92843238Y-60414956D01*
X92837240Y-60417440D01*
X92837238Y-60417441D01*
X92834968Y-60418381D01*
X92833214Y-60418519D01*
X92830975Y-60419119D01*
X92830864Y-60418704D01*
X92773971Y-60423180D01*
X92721803Y-60391209D01*
X92698390Y-60334680D01*
X92699987Y-60307603D01*
X92709552Y-60259514D01*
X92709552Y-60259512D01*
X92710500Y-60254748D01*
X92710500Y-59135834D01*
X92729407Y-59077643D01*
X92739496Y-59065830D01*
X93020996Y-58784330D01*
X93075513Y-58756553D01*
X93135945Y-58766124D01*
X93179210Y-58809389D01*
X93190000Y-58854334D01*
X93190000Y-59069320D01*
X93194122Y-59082005D01*
X93198243Y-59085000D01*
X94574320Y-59085000D01*
X94587005Y-59080878D01*
X94590000Y-59076757D01*
X94590000Y-58193361D01*
X94589654Y-58187515D01*
X94587766Y-58171647D01*
X94583872Y-58157481D01*
X94545230Y-58070486D01*
X94535054Y-58055679D01*
X94473746Y-57994479D01*
X94445921Y-57939987D01*
X94455439Y-57879546D01*
X94461373Y-57869412D01*
X94461414Y-57869351D01*
X94478867Y-57843231D01*
X94490500Y-57784748D01*
X94490500Y-57191953D01*
X94509407Y-57133762D01*
X94558907Y-57097798D01*
X94598127Y-57093330D01*
X94600176Y-57093509D01*
X94600177Y-57093509D01*
X94608807Y-57094264D01*
X94646350Y-57084204D01*
X94654784Y-57082334D01*
X94684517Y-57077092D01*
X94684519Y-57077091D01*
X94693045Y-57075588D01*
X94700544Y-57071258D01*
X94706029Y-57069262D01*
X94711316Y-57066796D01*
X94719684Y-57064554D01*
X94751511Y-57042268D01*
X94758795Y-57037627D01*
X94761452Y-57036093D01*
X94792455Y-57018194D01*
X94817431Y-56988429D01*
X94823265Y-56982061D01*
X97426953Y-54378374D01*
X97481470Y-54350597D01*
X97541902Y-54360168D01*
X97562491Y-54375126D01*
X97565448Y-54379552D01*
X97631769Y-54423867D01*
X97641332Y-54425769D01*
X97641334Y-54425770D01*
X97664005Y-54430279D01*
X97690252Y-54435500D01*
X98529748Y-54435500D01*
X98555995Y-54430279D01*
X98578666Y-54425770D01*
X98578668Y-54425769D01*
X98588231Y-54423867D01*
X98654552Y-54379552D01*
X98698867Y-54313231D01*
X98701827Y-54298353D01*
X98706146Y-54276639D01*
X99190000Y-54276639D01*
X99190346Y-54282485D01*
X99192234Y-54298353D01*
X99196128Y-54312519D01*
X99234770Y-54399514D01*
X99244946Y-54414321D01*
X99311108Y-54480367D01*
X99325931Y-54490517D01*
X99412980Y-54529000D01*
X99427185Y-54532873D01*
X99442580Y-54534668D01*
X99448292Y-54535000D01*
X99724320Y-54535000D01*
X99737005Y-54530878D01*
X99740000Y-54526757D01*
X99740000Y-54519320D01*
X100040000Y-54519320D01*
X100044122Y-54532005D01*
X100048243Y-54535000D01*
X100331639Y-54535000D01*
X100337485Y-54534654D01*
X100353353Y-54532766D01*
X100367519Y-54528872D01*
X100454514Y-54490230D01*
X100469321Y-54480054D01*
X100535367Y-54413892D01*
X100545517Y-54399069D01*
X100584000Y-54312020D01*
X100587873Y-54297815D01*
X100589668Y-54282420D01*
X100590000Y-54276708D01*
X100590000Y-53400680D01*
X100585878Y-53387995D01*
X100581757Y-53385000D01*
X100055680Y-53385000D01*
X100042995Y-53389122D01*
X100040000Y-53393243D01*
X100040000Y-54519320D01*
X99740000Y-54519320D01*
X99740000Y-53400680D01*
X99735878Y-53387995D01*
X99731757Y-53385000D01*
X99205680Y-53385000D01*
X99192995Y-53389122D01*
X99190000Y-53393243D01*
X99190000Y-54276639D01*
X98706146Y-54276639D01*
X98710500Y-54254748D01*
X98710500Y-53069320D01*
X99190000Y-53069320D01*
X99194122Y-53082005D01*
X99198243Y-53085000D01*
X100574320Y-53085000D01*
X100587005Y-53080878D01*
X100590000Y-53076757D01*
X100590000Y-52193361D01*
X100589654Y-52187515D01*
X100587766Y-52171647D01*
X100583872Y-52157481D01*
X100545230Y-52070486D01*
X100535054Y-52055679D01*
X100473746Y-51994479D01*
X100445921Y-51939987D01*
X100455439Y-51879546D01*
X100461373Y-51869412D01*
X100467245Y-51860624D01*
X100478867Y-51843231D01*
X100490500Y-51784748D01*
X100490500Y-51191953D01*
X100509407Y-51133762D01*
X100558907Y-51097798D01*
X100598127Y-51093330D01*
X100600176Y-51093509D01*
X100600177Y-51093509D01*
X100608807Y-51094264D01*
X100646350Y-51084204D01*
X100654784Y-51082334D01*
X100684517Y-51077092D01*
X100684519Y-51077091D01*
X100693045Y-51075588D01*
X100700544Y-51071258D01*
X100706029Y-51069262D01*
X100711316Y-51066796D01*
X100719684Y-51064554D01*
X100751511Y-51042268D01*
X100758795Y-51037627D01*
X100792455Y-51018194D01*
X100817431Y-50988429D01*
X100823265Y-50982061D01*
X103426953Y-48378374D01*
X103481470Y-48350597D01*
X103541902Y-48360168D01*
X103562491Y-48375126D01*
X103565448Y-48379552D01*
X103631769Y-48423867D01*
X103641332Y-48425769D01*
X103641334Y-48425770D01*
X103664005Y-48430279D01*
X103690252Y-48435500D01*
X104529748Y-48435500D01*
X104555995Y-48430279D01*
X104578666Y-48425770D01*
X104578668Y-48425769D01*
X104588231Y-48423867D01*
X104654552Y-48379552D01*
X104698867Y-48313231D01*
X104701827Y-48298353D01*
X104706146Y-48276639D01*
X105190000Y-48276639D01*
X105190346Y-48282485D01*
X105192234Y-48298353D01*
X105196128Y-48312519D01*
X105234770Y-48399514D01*
X105244946Y-48414321D01*
X105311108Y-48480367D01*
X105325931Y-48490517D01*
X105412980Y-48529000D01*
X105427185Y-48532873D01*
X105442580Y-48534668D01*
X105448292Y-48535000D01*
X105724320Y-48535000D01*
X105737005Y-48530878D01*
X105740000Y-48526757D01*
X105740000Y-48519320D01*
X106040000Y-48519320D01*
X106044122Y-48532005D01*
X106048243Y-48535000D01*
X106331639Y-48535000D01*
X106337485Y-48534654D01*
X106353353Y-48532766D01*
X106367519Y-48528872D01*
X106454514Y-48490230D01*
X106469321Y-48480054D01*
X106535367Y-48413892D01*
X106545517Y-48399069D01*
X106584000Y-48312020D01*
X106587873Y-48297815D01*
X106589668Y-48282420D01*
X106590000Y-48276708D01*
X106590000Y-47400680D01*
X106585878Y-47387995D01*
X106581757Y-47385000D01*
X106055680Y-47385000D01*
X106042995Y-47389122D01*
X106040000Y-47393243D01*
X106040000Y-48519320D01*
X105740000Y-48519320D01*
X105740000Y-47400680D01*
X105735878Y-47387995D01*
X105731757Y-47385000D01*
X105205680Y-47385000D01*
X105192995Y-47389122D01*
X105190000Y-47393243D01*
X105190000Y-48276639D01*
X104706146Y-48276639D01*
X104709552Y-48259512D01*
X104710500Y-48254748D01*
X104710500Y-46215252D01*
X104704983Y-46187515D01*
X104700770Y-46166334D01*
X104700769Y-46166332D01*
X104698867Y-46156769D01*
X104654552Y-46090448D01*
X104642380Y-46082315D01*
X104604501Y-46034266D01*
X104602099Y-45973128D01*
X104636091Y-45922254D01*
X104642372Y-45917691D01*
X104654552Y-45909552D01*
X104698867Y-45843231D01*
X104710500Y-45784748D01*
X104710500Y-43745252D01*
X104698867Y-43686769D01*
X104654552Y-43620448D01*
X104588231Y-43576133D01*
X104578668Y-43574231D01*
X104578666Y-43574230D01*
X104555995Y-43569721D01*
X104529748Y-43564500D01*
X103690252Y-43564500D01*
X103664005Y-43569721D01*
X103641334Y-43574230D01*
X103641332Y-43574231D01*
X103631769Y-43576133D01*
X103565448Y-43620448D01*
X103521133Y-43686769D01*
X103509500Y-43745252D01*
X103509500Y-44340500D01*
X103490593Y-44398691D01*
X103441093Y-44434655D01*
X103410500Y-44439500D01*
X103253525Y-44439500D01*
X103244897Y-44439123D01*
X103222310Y-44437147D01*
X103193052Y-44429988D01*
X103162759Y-44417440D01*
X103162758Y-44417440D01*
X103156762Y-44414956D01*
X103000000Y-44394318D01*
X102843238Y-44414956D01*
X102697159Y-44475464D01*
X102571718Y-44571718D01*
X102475464Y-44697159D01*
X102414956Y-44843238D01*
X102394318Y-45000000D01*
X102414956Y-45156762D01*
X102475464Y-45302841D01*
X102571718Y-45428282D01*
X102697159Y-45524536D01*
X102843238Y-45585044D01*
X103000000Y-45605682D01*
X103156762Y-45585044D01*
X103302841Y-45524536D01*
X103350233Y-45488171D01*
X103407909Y-45467747D01*
X103466574Y-45485125D01*
X103503822Y-45533666D01*
X103509500Y-45566713D01*
X103509500Y-45784748D01*
X103521133Y-45843231D01*
X103565448Y-45909552D01*
X103577620Y-45917685D01*
X103615499Y-45965734D01*
X103617901Y-46026872D01*
X103583909Y-46077746D01*
X103577628Y-46082309D01*
X103565448Y-46090448D01*
X103521133Y-46156769D01*
X103519231Y-46166332D01*
X103519230Y-46166334D01*
X103515017Y-46187515D01*
X103509500Y-46215252D01*
X103509500Y-47334166D01*
X103490593Y-47392357D01*
X103480504Y-47404170D01*
X100659504Y-50225170D01*
X100604987Y-50252947D01*
X100544555Y-50243376D01*
X100501290Y-50200111D01*
X100490500Y-50155166D01*
X100490500Y-49745252D01*
X100478867Y-49686769D01*
X100434552Y-49620448D01*
X100368231Y-49576133D01*
X100358668Y-49574231D01*
X100358666Y-49574230D01*
X100335995Y-49569721D01*
X100309748Y-49564500D01*
X99470252Y-49564500D01*
X99444005Y-49569721D01*
X99421334Y-49574230D01*
X99421332Y-49574231D01*
X99411769Y-49576133D01*
X99345448Y-49620448D01*
X99301133Y-49686769D01*
X99289500Y-49745252D01*
X99289500Y-51784748D01*
X99301133Y-51843231D01*
X99318588Y-51869353D01*
X99335196Y-51928239D01*
X99314019Y-51985643D01*
X99306337Y-51994296D01*
X99244633Y-52056108D01*
X99234483Y-52070931D01*
X99196000Y-52157980D01*
X99192127Y-52172185D01*
X99190332Y-52187580D01*
X99190000Y-52193292D01*
X99190000Y-53069320D01*
X98710500Y-53069320D01*
X98710500Y-52215252D01*
X98704983Y-52187515D01*
X98700770Y-52166334D01*
X98700769Y-52166332D01*
X98698867Y-52156769D01*
X98654552Y-52090448D01*
X98642380Y-52082315D01*
X98604501Y-52034266D01*
X98602099Y-51973128D01*
X98636091Y-51922254D01*
X98642372Y-51917691D01*
X98654552Y-51909552D01*
X98698867Y-51843231D01*
X98710500Y-51784748D01*
X98710500Y-49745252D01*
X98698867Y-49686769D01*
X98654552Y-49620448D01*
X98588231Y-49576133D01*
X98578668Y-49574231D01*
X98578666Y-49574230D01*
X98555995Y-49569721D01*
X98529748Y-49564500D01*
X97690252Y-49564500D01*
X97664005Y-49569721D01*
X97641334Y-49574230D01*
X97641332Y-49574231D01*
X97631769Y-49576133D01*
X97565448Y-49620448D01*
X97521133Y-49686769D01*
X97509500Y-49745252D01*
X97509500Y-50340500D01*
X97490593Y-50398691D01*
X97441093Y-50434655D01*
X97410500Y-50439500D01*
X97253525Y-50439500D01*
X97244897Y-50439123D01*
X97222310Y-50437147D01*
X97193052Y-50429988D01*
X97162759Y-50417440D01*
X97162758Y-50417440D01*
X97156762Y-50414956D01*
X97000000Y-50394318D01*
X96843238Y-50414956D01*
X96697159Y-50475464D01*
X96571718Y-50571718D01*
X96475464Y-50697159D01*
X96414956Y-50843238D01*
X96394318Y-51000000D01*
X96414956Y-51156762D01*
X96475464Y-51302841D01*
X96571718Y-51428282D01*
X96697159Y-51524536D01*
X96843238Y-51585044D01*
X97000000Y-51605682D01*
X97156762Y-51585044D01*
X97302841Y-51524536D01*
X97350233Y-51488171D01*
X97407909Y-51467747D01*
X97466574Y-51485125D01*
X97503822Y-51533666D01*
X97509500Y-51566713D01*
X97509500Y-51784748D01*
X97521133Y-51843231D01*
X97565448Y-51909552D01*
X97577620Y-51917685D01*
X97615499Y-51965734D01*
X97617901Y-52026872D01*
X97583909Y-52077746D01*
X97577628Y-52082309D01*
X97565448Y-52090448D01*
X97521133Y-52156769D01*
X97519231Y-52166332D01*
X97519230Y-52166334D01*
X97515017Y-52187515D01*
X97509500Y-52215252D01*
X97509500Y-53334166D01*
X97490593Y-53392357D01*
X97480504Y-53404170D01*
X94659504Y-56225170D01*
X94604987Y-56252947D01*
X94544555Y-56243376D01*
X94501290Y-56200111D01*
X94490500Y-56155166D01*
X94490500Y-55745252D01*
X94478867Y-55686769D01*
X94434552Y-55620448D01*
X94368231Y-55576133D01*
X94358668Y-55574231D01*
X94358666Y-55574230D01*
X94335995Y-55569721D01*
X94309748Y-55564500D01*
X93524510Y-55564500D01*
X93466319Y-55545593D01*
X93430355Y-55496093D01*
X93430355Y-55434907D01*
X93445968Y-55405233D01*
X93455435Y-55392896D01*
X93524536Y-55302841D01*
X93585044Y-55156762D01*
X93605682Y-55000000D01*
X93585044Y-54843238D01*
X93524536Y-54697159D01*
X93520585Y-54692010D01*
X93517342Y-54686393D01*
X93519157Y-54685345D01*
X93501893Y-54636589D01*
X93519272Y-54577924D01*
X93567814Y-54540678D01*
X93600859Y-54535000D01*
X93724320Y-54535000D01*
X93737005Y-54530878D01*
X93740000Y-54526757D01*
X93740000Y-54519320D01*
X94040000Y-54519320D01*
X94044122Y-54532005D01*
X94048243Y-54535000D01*
X94331639Y-54535000D01*
X94337485Y-54534654D01*
X94353353Y-54532766D01*
X94367519Y-54528872D01*
X94454514Y-54490230D01*
X94469321Y-54480054D01*
X94535367Y-54413892D01*
X94545517Y-54399069D01*
X94584000Y-54312020D01*
X94587873Y-54297815D01*
X94589668Y-54282420D01*
X94590000Y-54276708D01*
X94590000Y-53400680D01*
X94585878Y-53387995D01*
X94581757Y-53385000D01*
X94055680Y-53385000D01*
X94042995Y-53389122D01*
X94040000Y-53393243D01*
X94040000Y-54519320D01*
X93740000Y-54519320D01*
X93740000Y-53400680D01*
X93735878Y-53387995D01*
X93731757Y-53385000D01*
X93205680Y-53385000D01*
X93192995Y-53389122D01*
X93190000Y-53393243D01*
X93190000Y-54276639D01*
X93190346Y-54282487D01*
X93191845Y-54295082D01*
X93179945Y-54355099D01*
X93135040Y-54396659D01*
X93080616Y-54404931D01*
X93006434Y-54395165D01*
X93000000Y-54394318D01*
X92843238Y-54414956D01*
X92837240Y-54417440D01*
X92837238Y-54417441D01*
X92834968Y-54418381D01*
X92833214Y-54418519D01*
X92830975Y-54419119D01*
X92830864Y-54418704D01*
X92773971Y-54423180D01*
X92721803Y-54391209D01*
X92698390Y-54334680D01*
X92699987Y-54307603D01*
X92709552Y-54259514D01*
X92709552Y-54259512D01*
X92710500Y-54254748D01*
X92710500Y-53135834D01*
X92729407Y-53077643D01*
X92739496Y-53065830D01*
X93020996Y-52784330D01*
X93075513Y-52756553D01*
X93135945Y-52766124D01*
X93179210Y-52809389D01*
X93190000Y-52854334D01*
X93190000Y-53069320D01*
X93194122Y-53082005D01*
X93198243Y-53085000D01*
X94574320Y-53085000D01*
X94587005Y-53080878D01*
X94590000Y-53076757D01*
X94590000Y-52193361D01*
X94589654Y-52187515D01*
X94587766Y-52171647D01*
X94583872Y-52157481D01*
X94545230Y-52070486D01*
X94535054Y-52055679D01*
X94473746Y-51994479D01*
X94445921Y-51939987D01*
X94455439Y-51879546D01*
X94461373Y-51869412D01*
X94467245Y-51860624D01*
X94478867Y-51843231D01*
X94490500Y-51784748D01*
X94490500Y-51191953D01*
X94509407Y-51133762D01*
X94558907Y-51097798D01*
X94598127Y-51093330D01*
X94600176Y-51093509D01*
X94600177Y-51093509D01*
X94608807Y-51094264D01*
X94646350Y-51084204D01*
X94654784Y-51082334D01*
X94684517Y-51077092D01*
X94684519Y-51077091D01*
X94693045Y-51075588D01*
X94700544Y-51071258D01*
X94706029Y-51069262D01*
X94711316Y-51066796D01*
X94719684Y-51064554D01*
X94751511Y-51042268D01*
X94758795Y-51037627D01*
X94792455Y-51018194D01*
X94817431Y-50988429D01*
X94823265Y-50982061D01*
X97426953Y-48378374D01*
X97481470Y-48350597D01*
X97541902Y-48360168D01*
X97562491Y-48375126D01*
X97565448Y-48379552D01*
X97631769Y-48423867D01*
X97641332Y-48425769D01*
X97641334Y-48425770D01*
X97664005Y-48430279D01*
X97690252Y-48435500D01*
X98529748Y-48435500D01*
X98555995Y-48430279D01*
X98578666Y-48425770D01*
X98578668Y-48425769D01*
X98588231Y-48423867D01*
X98654552Y-48379552D01*
X98698867Y-48313231D01*
X98701827Y-48298353D01*
X98706146Y-48276639D01*
X99190000Y-48276639D01*
X99190346Y-48282485D01*
X99192234Y-48298353D01*
X99196128Y-48312519D01*
X99234770Y-48399514D01*
X99244946Y-48414321D01*
X99311108Y-48480367D01*
X99325931Y-48490517D01*
X99412980Y-48529000D01*
X99427185Y-48532873D01*
X99442580Y-48534668D01*
X99448292Y-48535000D01*
X99724320Y-48535000D01*
X99737005Y-48530878D01*
X99740000Y-48526757D01*
X99740000Y-48519320D01*
X100040000Y-48519320D01*
X100044122Y-48532005D01*
X100048243Y-48535000D01*
X100331639Y-48535000D01*
X100337485Y-48534654D01*
X100353353Y-48532766D01*
X100367519Y-48528872D01*
X100454514Y-48490230D01*
X100469321Y-48480054D01*
X100535367Y-48413892D01*
X100545517Y-48399069D01*
X100584000Y-48312020D01*
X100587873Y-48297815D01*
X100589668Y-48282420D01*
X100590000Y-48276708D01*
X100590000Y-47400680D01*
X100585878Y-47387995D01*
X100581757Y-47385000D01*
X100055680Y-47385000D01*
X100042995Y-47389122D01*
X100040000Y-47393243D01*
X100040000Y-48519320D01*
X99740000Y-48519320D01*
X99740000Y-47400680D01*
X99735878Y-47387995D01*
X99731757Y-47385000D01*
X99205680Y-47385000D01*
X99192995Y-47389122D01*
X99190000Y-47393243D01*
X99190000Y-48276639D01*
X98706146Y-48276639D01*
X98709552Y-48259512D01*
X98710500Y-48254748D01*
X98710500Y-46215252D01*
X98704983Y-46187515D01*
X98700770Y-46166334D01*
X98700769Y-46166332D01*
X98698867Y-46156769D01*
X98654552Y-46090448D01*
X98642380Y-46082315D01*
X98604501Y-46034266D01*
X98602099Y-45973128D01*
X98636091Y-45922254D01*
X98642372Y-45917691D01*
X98654552Y-45909552D01*
X98698867Y-45843231D01*
X98710500Y-45784748D01*
X98710500Y-43745252D01*
X98698867Y-43686769D01*
X98654552Y-43620448D01*
X98588231Y-43576133D01*
X98578668Y-43574231D01*
X98578666Y-43574230D01*
X98555995Y-43569721D01*
X98529748Y-43564500D01*
X97690252Y-43564500D01*
X97664005Y-43569721D01*
X97641334Y-43574230D01*
X97641332Y-43574231D01*
X97631769Y-43576133D01*
X97565448Y-43620448D01*
X97521133Y-43686769D01*
X97509500Y-43745252D01*
X97509500Y-44340500D01*
X97490593Y-44398691D01*
X97441093Y-44434655D01*
X97410500Y-44439500D01*
X97253525Y-44439500D01*
X97244897Y-44439123D01*
X97222310Y-44437147D01*
X97193052Y-44429988D01*
X97162759Y-44417440D01*
X97162758Y-44417440D01*
X97156762Y-44414956D01*
X97000000Y-44394318D01*
X96843238Y-44414956D01*
X96697159Y-44475464D01*
X96571718Y-44571718D01*
X96475464Y-44697159D01*
X96414956Y-44843238D01*
X96394318Y-45000000D01*
X96414956Y-45156762D01*
X96475464Y-45302841D01*
X96571718Y-45428282D01*
X96697159Y-45524536D01*
X96843238Y-45585044D01*
X97000000Y-45605682D01*
X97156762Y-45585044D01*
X97302841Y-45524536D01*
X97350233Y-45488171D01*
X97407909Y-45467747D01*
X97466574Y-45485125D01*
X97503822Y-45533666D01*
X97509500Y-45566713D01*
X97509500Y-45784748D01*
X97521133Y-45843231D01*
X97565448Y-45909552D01*
X97577620Y-45917685D01*
X97615499Y-45965734D01*
X97617901Y-46026872D01*
X97583909Y-46077746D01*
X97577628Y-46082309D01*
X97565448Y-46090448D01*
X97521133Y-46156769D01*
X97519231Y-46166332D01*
X97519230Y-46166334D01*
X97515017Y-46187515D01*
X97509500Y-46215252D01*
X97509500Y-47334166D01*
X97490593Y-47392357D01*
X97480504Y-47404170D01*
X94659504Y-50225170D01*
X94604987Y-50252947D01*
X94544555Y-50243376D01*
X94501290Y-50200111D01*
X94490500Y-50155166D01*
X94490500Y-49745252D01*
X94478867Y-49686769D01*
X94434552Y-49620448D01*
X94368231Y-49576133D01*
X94358668Y-49574231D01*
X94358666Y-49574230D01*
X94335995Y-49569721D01*
X94309748Y-49564500D01*
X93524510Y-49564500D01*
X93466319Y-49545593D01*
X93430355Y-49496093D01*
X93430355Y-49434907D01*
X93445968Y-49405233D01*
X93504009Y-49329593D01*
X93524536Y-49302841D01*
X93585044Y-49156762D01*
X93605682Y-49000000D01*
X93585044Y-48843238D01*
X93524536Y-48697159D01*
X93520585Y-48692010D01*
X93517342Y-48686393D01*
X93519157Y-48685345D01*
X93501893Y-48636589D01*
X93519272Y-48577924D01*
X93567814Y-48540678D01*
X93600859Y-48535000D01*
X93724320Y-48535000D01*
X93737005Y-48530878D01*
X93740000Y-48526757D01*
X93740000Y-48519320D01*
X94040000Y-48519320D01*
X94044122Y-48532005D01*
X94048243Y-48535000D01*
X94331639Y-48535000D01*
X94337485Y-48534654D01*
X94353353Y-48532766D01*
X94367519Y-48528872D01*
X94454514Y-48490230D01*
X94469321Y-48480054D01*
X94535367Y-48413892D01*
X94545517Y-48399069D01*
X94584000Y-48312020D01*
X94587873Y-48297815D01*
X94589668Y-48282420D01*
X94590000Y-48276708D01*
X94590000Y-47400680D01*
X94585878Y-47387995D01*
X94581757Y-47385000D01*
X94055680Y-47385000D01*
X94042995Y-47389122D01*
X94040000Y-47393243D01*
X94040000Y-48519320D01*
X93740000Y-48519320D01*
X93740000Y-47400680D01*
X93735878Y-47387995D01*
X93731757Y-47385000D01*
X93205680Y-47385000D01*
X93192995Y-47389122D01*
X93190000Y-47393243D01*
X93190000Y-48276639D01*
X93190346Y-48282487D01*
X93191845Y-48295082D01*
X93179945Y-48355099D01*
X93135040Y-48396659D01*
X93080616Y-48404931D01*
X93006434Y-48395165D01*
X93000000Y-48394318D01*
X92843238Y-48414956D01*
X92837240Y-48417440D01*
X92837238Y-48417441D01*
X92834968Y-48418381D01*
X92833214Y-48418519D01*
X92830975Y-48419119D01*
X92830864Y-48418704D01*
X92773971Y-48423180D01*
X92721803Y-48391209D01*
X92698390Y-48334680D01*
X92699987Y-48307603D01*
X92709552Y-48259514D01*
X92709552Y-48259512D01*
X92710500Y-48254748D01*
X92710500Y-47135834D01*
X92729407Y-47077643D01*
X92739496Y-47065830D01*
X93020996Y-46784330D01*
X93075513Y-46756553D01*
X93135945Y-46766124D01*
X93179210Y-46809389D01*
X93190000Y-46854334D01*
X93190000Y-47069320D01*
X93194122Y-47082005D01*
X93198243Y-47085000D01*
X94574320Y-47085000D01*
X94587005Y-47080878D01*
X94590000Y-47076757D01*
X94590000Y-46193361D01*
X94589654Y-46187515D01*
X94587766Y-46171647D01*
X94583872Y-46157481D01*
X94545230Y-46070486D01*
X94535054Y-46055679D01*
X94473746Y-45994479D01*
X94445921Y-45939987D01*
X94455439Y-45879546D01*
X94461373Y-45869412D01*
X94461414Y-45869351D01*
X94478867Y-45843231D01*
X94490500Y-45784748D01*
X94490500Y-45191953D01*
X94509407Y-45133762D01*
X94558907Y-45097798D01*
X94598127Y-45093330D01*
X94600176Y-45093509D01*
X94600177Y-45093509D01*
X94608807Y-45094264D01*
X94646350Y-45084204D01*
X94654784Y-45082334D01*
X94684517Y-45077092D01*
X94684519Y-45077091D01*
X94693045Y-45075588D01*
X94700544Y-45071258D01*
X94706029Y-45069262D01*
X94711316Y-45066796D01*
X94719684Y-45064554D01*
X94751511Y-45042268D01*
X94758795Y-45037627D01*
X94792455Y-45018194D01*
X94817431Y-44988429D01*
X94823265Y-44982061D01*
X97426953Y-42378374D01*
X97481470Y-42350597D01*
X97541902Y-42360168D01*
X97562491Y-42375126D01*
X97565448Y-42379552D01*
X97631769Y-42423867D01*
X97641332Y-42425769D01*
X97641334Y-42425770D01*
X97664005Y-42430279D01*
X97690252Y-42435500D01*
X98529748Y-42435500D01*
X98555995Y-42430279D01*
X98578666Y-42425770D01*
X98578668Y-42425769D01*
X98588231Y-42423867D01*
X98654552Y-42379552D01*
X98698867Y-42313231D01*
X98701827Y-42298353D01*
X98706146Y-42276639D01*
X99190000Y-42276639D01*
X99190346Y-42282485D01*
X99192234Y-42298353D01*
X99196128Y-42312519D01*
X99234770Y-42399514D01*
X99244946Y-42414321D01*
X99311108Y-42480367D01*
X99325931Y-42490517D01*
X99412980Y-42529000D01*
X99427185Y-42532873D01*
X99442580Y-42534668D01*
X99448292Y-42535000D01*
X99724320Y-42535000D01*
X99737005Y-42530878D01*
X99740000Y-42526757D01*
X99740000Y-42519320D01*
X100040000Y-42519320D01*
X100044122Y-42532005D01*
X100048243Y-42535000D01*
X100331639Y-42535000D01*
X100337485Y-42534654D01*
X100353353Y-42532766D01*
X100367519Y-42528872D01*
X100454514Y-42490230D01*
X100469321Y-42480054D01*
X100535367Y-42413892D01*
X100545517Y-42399069D01*
X100584000Y-42312020D01*
X100587873Y-42297815D01*
X100589668Y-42282420D01*
X100590000Y-42276708D01*
X100590000Y-41400680D01*
X100585878Y-41387995D01*
X100581757Y-41385000D01*
X100055680Y-41385000D01*
X100042995Y-41389122D01*
X100040000Y-41393243D01*
X100040000Y-42519320D01*
X99740000Y-42519320D01*
X99740000Y-41400680D01*
X99735878Y-41387995D01*
X99731757Y-41385000D01*
X99205680Y-41385000D01*
X99192995Y-41389122D01*
X99190000Y-41393243D01*
X99190000Y-42276639D01*
X98706146Y-42276639D01*
X98709552Y-42259512D01*
X98710500Y-42254748D01*
X98710500Y-40399000D01*
X98729407Y-40340809D01*
X98778907Y-40304845D01*
X98809500Y-40300000D01*
X99091000Y-40300000D01*
X99149191Y-40318907D01*
G37*
%TD.AperFunction*%
%TA.AperFunction,Conductor*%
G36*
X90755934Y-49301135D02*
G01*
X90799199Y-49344400D01*
X90809989Y-49389345D01*
X90809989Y-55228052D01*
X90809913Y-55231939D01*
X90807651Y-55289505D01*
X90809448Y-55296283D01*
X90809989Y-55306108D01*
X90809989Y-57005500D01*
X90791082Y-57063691D01*
X90741582Y-57099655D01*
X90710989Y-57104500D01*
X87689500Y-57104500D01*
X87631309Y-57085593D01*
X87595345Y-57036093D01*
X87590500Y-57005500D01*
X87590500Y-56670252D01*
X87578867Y-56611769D01*
X87534552Y-56545448D01*
X87468231Y-56501133D01*
X87458668Y-56499231D01*
X87458666Y-56499230D01*
X87435995Y-56494721D01*
X87409748Y-56489500D01*
X85670252Y-56489500D01*
X85644005Y-56494721D01*
X85621334Y-56499230D01*
X85621332Y-56499231D01*
X85611769Y-56501133D01*
X85545448Y-56545448D01*
X85501133Y-56611769D01*
X85489500Y-56670252D01*
X85489500Y-57005500D01*
X85470593Y-57063691D01*
X85421093Y-57099655D01*
X85390500Y-57104500D01*
X85017741Y-57104500D01*
X84959550Y-57085593D01*
X84930329Y-57051977D01*
X84922700Y-57037627D01*
X84879218Y-56955849D01*
X84749011Y-56796200D01*
X84602639Y-56675110D01*
X84594002Y-56667965D01*
X84594000Y-56667964D01*
X84590275Y-56664882D01*
X84409055Y-56566897D01*
X84339764Y-56545448D01*
X84216875Y-56507407D01*
X84216871Y-56507406D01*
X84212254Y-56505977D01*
X84207446Y-56505472D01*
X84207443Y-56505471D01*
X84012185Y-56484949D01*
X84012183Y-56484949D01*
X84007369Y-56484443D01*
X83951800Y-56489500D01*
X83807022Y-56502675D01*
X83807017Y-56502676D01*
X83802203Y-56503114D01*
X83604572Y-56561280D01*
X83600288Y-56563519D01*
X83600287Y-56563520D01*
X83592169Y-56567764D01*
X83422002Y-56656726D01*
X83418231Y-56659758D01*
X83265220Y-56782781D01*
X83265217Y-56782783D01*
X83261447Y-56785815D01*
X83258333Y-56789526D01*
X83258332Y-56789527D01*
X83207863Y-56849674D01*
X83129024Y-56943630D01*
X83126689Y-56947878D01*
X83126688Y-56947879D01*
X83119955Y-56960126D01*
X83029776Y-57124162D01*
X83028313Y-57128775D01*
X83028311Y-57128779D01*
X82974998Y-57296846D01*
X82967484Y-57320532D01*
X82944520Y-57525262D01*
X82961759Y-57730553D01*
X82963092Y-57735201D01*
X82963092Y-57735202D01*
X83017115Y-57923601D01*
X83018544Y-57928586D01*
X83112712Y-58111818D01*
X83240677Y-58273270D01*
X83244357Y-58276402D01*
X83244359Y-58276404D01*
X83296158Y-58320488D01*
X83397564Y-58406791D01*
X83401787Y-58409151D01*
X83401791Y-58409154D01*
X83441342Y-58431258D01*
X83577398Y-58507297D01*
X83581996Y-58508791D01*
X83768724Y-58569463D01*
X83768726Y-58569464D01*
X83773329Y-58570959D01*
X83977894Y-58595351D01*
X83982716Y-58594980D01*
X83982719Y-58594980D01*
X84053259Y-58589552D01*
X84183300Y-58579546D01*
X84381725Y-58524145D01*
X84386038Y-58521966D01*
X84386044Y-58521964D01*
X84561289Y-58433441D01*
X84561291Y-58433440D01*
X84565610Y-58431258D01*
X84569427Y-58428276D01*
X84724135Y-58307406D01*
X84724139Y-58307402D01*
X84727951Y-58304424D01*
X84747612Y-58281647D01*
X84859404Y-58152133D01*
X84862564Y-58148472D01*
X84890919Y-58098558D01*
X84915324Y-58055599D01*
X84960507Y-58014342D01*
X85001404Y-58005500D01*
X85390500Y-58005500D01*
X85448691Y-58024407D01*
X85484655Y-58073907D01*
X85489500Y-58104500D01*
X85489500Y-58409748D01*
X85493779Y-58431258D01*
X85499107Y-58458045D01*
X85501133Y-58468231D01*
X85545448Y-58534552D01*
X85611769Y-58578867D01*
X85621332Y-58580769D01*
X85621334Y-58580770D01*
X85644005Y-58585279D01*
X85670252Y-58590500D01*
X87409748Y-58590500D01*
X87435995Y-58585279D01*
X87458666Y-58580770D01*
X87458668Y-58580769D01*
X87468231Y-58578867D01*
X87534552Y-58534552D01*
X87578867Y-58468231D01*
X87580894Y-58458045D01*
X87586221Y-58431258D01*
X87590500Y-58409748D01*
X87590500Y-58104500D01*
X87609407Y-58046309D01*
X87658907Y-58010345D01*
X87689500Y-58005500D01*
X90710989Y-58005500D01*
X90769180Y-58024407D01*
X90805144Y-58073907D01*
X90809989Y-58104500D01*
X90809989Y-61228052D01*
X90809913Y-61231939D01*
X90807651Y-61289505D01*
X90809448Y-61296283D01*
X90809989Y-61306108D01*
X90809989Y-66727862D01*
X90809303Y-66739498D01*
X90805125Y-66774799D01*
X90806454Y-66782075D01*
X90806454Y-66782078D01*
X90815737Y-66832903D01*
X90816247Y-66835965D01*
X90825040Y-66894451D01*
X90828168Y-66900964D01*
X90829464Y-66908062D01*
X90832875Y-66914628D01*
X90856687Y-66960469D01*
X90858077Y-66963251D01*
X90880476Y-67009897D01*
X90880478Y-67009900D01*
X90883680Y-67016568D01*
X90887786Y-67021010D01*
X90889309Y-67023270D01*
X90891910Y-67028277D01*
X90896214Y-67033317D01*
X90933846Y-67070949D01*
X90936540Y-67073752D01*
X90970613Y-67110613D01*
X90970616Y-67110615D01*
X90975635Y-67116045D01*
X90981699Y-67119567D01*
X90989024Y-67126127D01*
X91158381Y-67295484D01*
X91166122Y-67304196D01*
X91188128Y-67332110D01*
X91194215Y-67336317D01*
X91194216Y-67336318D01*
X91236733Y-67365703D01*
X91239263Y-67367511D01*
X91286817Y-67402635D01*
X91293634Y-67405029D01*
X91299569Y-67409131D01*
X91306622Y-67411362D01*
X91306625Y-67411363D01*
X91338390Y-67421409D01*
X91355904Y-67426948D01*
X91358841Y-67427928D01*
X91407648Y-67445068D01*
X91407650Y-67445068D01*
X91414631Y-67447520D01*
X91420673Y-67447758D01*
X91423353Y-67448280D01*
X91428730Y-67449980D01*
X91435337Y-67450500D01*
X91488531Y-67450500D01*
X91492415Y-67450576D01*
X91496025Y-67450718D01*
X91502569Y-67450975D01*
X91559972Y-67472154D01*
X91593964Y-67523029D01*
X91591560Y-67584167D01*
X91570493Y-67617077D01*
X91565448Y-67620448D01*
X91521133Y-67686769D01*
X91509500Y-67745252D01*
X91509500Y-69601000D01*
X91490593Y-69659191D01*
X91441093Y-69695155D01*
X91410500Y-69700000D01*
X90399000Y-69700000D01*
X90340809Y-69681093D01*
X90304845Y-69631593D01*
X90300000Y-69601000D01*
X90300000Y-61005877D01*
X90300035Y-60965700D01*
X90300045Y-60954551D01*
X90294815Y-60943659D01*
X90287537Y-60922817D01*
X90287330Y-60921907D01*
X90287328Y-60921904D01*
X90284850Y-60911038D01*
X90277480Y-60901789D01*
X90265666Y-60882954D01*
X90265375Y-60882347D01*
X90265372Y-60882343D01*
X90260547Y-60872295D01*
X90251107Y-60864746D01*
X90235516Y-60849128D01*
X90227985Y-60839677D01*
X90217337Y-60834541D01*
X90198522Y-60822692D01*
X90197995Y-60822270D01*
X90197990Y-60822268D01*
X90189285Y-60815306D01*
X90177508Y-60812598D01*
X90156682Y-60805285D01*
X90155836Y-60804877D01*
X90145798Y-60800035D01*
X90134653Y-60800025D01*
X90134652Y-60800025D01*
X90122787Y-60800015D01*
X90122789Y-60798270D01*
X90122723Y-60798276D01*
X90122723Y-60800000D01*
X90105877Y-60800000D01*
X90054840Y-60799955D01*
X90054551Y-60799955D01*
X90054463Y-60799997D01*
X90054439Y-60800000D01*
X82299000Y-60800000D01*
X82240809Y-60781093D01*
X82204845Y-60731593D01*
X82200000Y-60701000D01*
X82200000Y-53914334D01*
X82218907Y-53856143D01*
X82268407Y-53820179D01*
X82329593Y-53820179D01*
X82369004Y-53844330D01*
X83006459Y-54481786D01*
X83034236Y-54536303D01*
X83028328Y-54583703D01*
X83029776Y-54584162D01*
X82967484Y-54780532D01*
X82966944Y-54785344D01*
X82966944Y-54785345D01*
X82959729Y-54849674D01*
X82944520Y-54985262D01*
X82945526Y-54997244D01*
X82959443Y-55162967D01*
X82961759Y-55190553D01*
X82963092Y-55195201D01*
X82963092Y-55195202D01*
X82992662Y-55298323D01*
X83018544Y-55388586D01*
X83112712Y-55571818D01*
X83240677Y-55733270D01*
X83244357Y-55736402D01*
X83244359Y-55736404D01*
X83357017Y-55832283D01*
X83397564Y-55866791D01*
X83401787Y-55869151D01*
X83401791Y-55869154D01*
X83441342Y-55891258D01*
X83577398Y-55967297D01*
X83581996Y-55968791D01*
X83768724Y-56029463D01*
X83768726Y-56029464D01*
X83773329Y-56030959D01*
X83977894Y-56055351D01*
X83982716Y-56054980D01*
X83982719Y-56054980D01*
X84050541Y-56049761D01*
X84183300Y-56039546D01*
X84381725Y-55984145D01*
X84386038Y-55981966D01*
X84386044Y-55981964D01*
X84561289Y-55893441D01*
X84561291Y-55893440D01*
X84565610Y-55891258D01*
X84694148Y-55790834D01*
X84724135Y-55767406D01*
X84724139Y-55767402D01*
X84727951Y-55764424D01*
X84740307Y-55750110D01*
X84787313Y-55695651D01*
X84862564Y-55608472D01*
X84864957Y-55604260D01*
X84961934Y-55433550D01*
X84961935Y-55433547D01*
X84964323Y-55429344D01*
X84977882Y-55388586D01*
X85027824Y-55238454D01*
X85027824Y-55238452D01*
X85029351Y-55233863D01*
X85038334Y-55162759D01*
X85054823Y-55032228D01*
X85055171Y-55029474D01*
X85055583Y-55000000D01*
X85054138Y-54985262D01*
X85484520Y-54985262D01*
X85485526Y-54997244D01*
X85499443Y-55162967D01*
X85501759Y-55190553D01*
X85503092Y-55195201D01*
X85503092Y-55195202D01*
X85532662Y-55298323D01*
X85558544Y-55388586D01*
X85652712Y-55571818D01*
X85780677Y-55733270D01*
X85784357Y-55736402D01*
X85784359Y-55736404D01*
X85897017Y-55832283D01*
X85937564Y-55866791D01*
X85941787Y-55869151D01*
X85941791Y-55869154D01*
X85981342Y-55891258D01*
X86117398Y-55967297D01*
X86121996Y-55968791D01*
X86308724Y-56029463D01*
X86308726Y-56029464D01*
X86313329Y-56030959D01*
X86517894Y-56055351D01*
X86522716Y-56054980D01*
X86522719Y-56054980D01*
X86590541Y-56049761D01*
X86723300Y-56039546D01*
X86921725Y-55984145D01*
X86926038Y-55981966D01*
X86926044Y-55981964D01*
X87101289Y-55893441D01*
X87101291Y-55893440D01*
X87105610Y-55891258D01*
X87234148Y-55790834D01*
X87264135Y-55767406D01*
X87264139Y-55767402D01*
X87267951Y-55764424D01*
X87280307Y-55750110D01*
X87327313Y-55695651D01*
X87402564Y-55608472D01*
X87404957Y-55604260D01*
X87501934Y-55433550D01*
X87501935Y-55433547D01*
X87504323Y-55429344D01*
X87517882Y-55388586D01*
X87567824Y-55238454D01*
X87567824Y-55238452D01*
X87569351Y-55233863D01*
X87578334Y-55162759D01*
X87594823Y-55032228D01*
X87595171Y-55029474D01*
X87595583Y-55000000D01*
X87575480Y-54794970D01*
X87515935Y-54597749D01*
X87419218Y-54415849D01*
X87289011Y-54256200D01*
X87130275Y-54124882D01*
X87018123Y-54064242D01*
X86953309Y-54029197D01*
X86953308Y-54029197D01*
X86949055Y-54026897D01*
X86885855Y-54007333D01*
X86756875Y-53967407D01*
X86756871Y-53967406D01*
X86752254Y-53965977D01*
X86747446Y-53965472D01*
X86747443Y-53965471D01*
X86552185Y-53944949D01*
X86552183Y-53944949D01*
X86547369Y-53944443D01*
X86487354Y-53949905D01*
X86347022Y-53962675D01*
X86347017Y-53962676D01*
X86342203Y-53963114D01*
X86144572Y-54021280D01*
X86140288Y-54023519D01*
X86140287Y-54023520D01*
X86129428Y-54029197D01*
X85962002Y-54116726D01*
X85958231Y-54119758D01*
X85805220Y-54242781D01*
X85805217Y-54242783D01*
X85801447Y-54245815D01*
X85798333Y-54249526D01*
X85798332Y-54249527D01*
X85672478Y-54399514D01*
X85669024Y-54403630D01*
X85666689Y-54407878D01*
X85666688Y-54407879D01*
X85651503Y-54435500D01*
X85569776Y-54584162D01*
X85568313Y-54588775D01*
X85568311Y-54588779D01*
X85535565Y-54692010D01*
X85507484Y-54780532D01*
X85506944Y-54785344D01*
X85506944Y-54785345D01*
X85499729Y-54849674D01*
X85484520Y-54985262D01*
X85054138Y-54985262D01*
X85035480Y-54794970D01*
X84975935Y-54597749D01*
X84879218Y-54415849D01*
X84749011Y-54256200D01*
X84590275Y-54124882D01*
X84478123Y-54064242D01*
X84413309Y-54029197D01*
X84413308Y-54029197D01*
X84409055Y-54026897D01*
X84345855Y-54007333D01*
X84216875Y-53967407D01*
X84216871Y-53967406D01*
X84212254Y-53965977D01*
X84207446Y-53965472D01*
X84207443Y-53965471D01*
X84012185Y-53944949D01*
X84012183Y-53944949D01*
X84007369Y-53944443D01*
X83947354Y-53949905D01*
X83807022Y-53962675D01*
X83807017Y-53962676D01*
X83802203Y-53963114D01*
X83604572Y-54021280D01*
X83600285Y-54023521D01*
X83600283Y-54023522D01*
X83578419Y-54034952D01*
X83518091Y-54045156D01*
X83462549Y-54017222D01*
X82854496Y-53409170D01*
X82826719Y-53354653D01*
X82825500Y-53339166D01*
X82825500Y-53102445D01*
X82844407Y-53044254D01*
X82893907Y-53008290D01*
X82955093Y-53008290D01*
X83005347Y-53045308D01*
X83119165Y-53206356D01*
X83125035Y-53213229D01*
X83269931Y-53354381D01*
X83276954Y-53360068D01*
X83445138Y-53472446D01*
X83453093Y-53476764D01*
X83638929Y-53556606D01*
X83647540Y-53559404D01*
X83839830Y-53602914D01*
X83847167Y-53600840D01*
X83849787Y-53597514D01*
X83850000Y-53596317D01*
X83850000Y-53584679D01*
X84150000Y-53584679D01*
X84154122Y-53597364D01*
X84155292Y-53598215D01*
X84161272Y-53598725D01*
X84265115Y-53583668D01*
X84273914Y-53581556D01*
X84465450Y-53516538D01*
X84473714Y-53512858D01*
X84650194Y-53414026D01*
X84657652Y-53408900D01*
X84813157Y-53279568D01*
X84819568Y-53273157D01*
X84948900Y-53117652D01*
X84954026Y-53110194D01*
X85052858Y-52933714D01*
X85056538Y-52925450D01*
X85121556Y-52733914D01*
X85123668Y-52725115D01*
X85138109Y-52625518D01*
X85137059Y-52619405D01*
X85397898Y-52619405D01*
X85398995Y-52636145D01*
X85400408Y-52645064D01*
X85450200Y-52841121D01*
X85453220Y-52849649D01*
X85537904Y-53033341D01*
X85542422Y-53041167D01*
X85659171Y-53206363D01*
X85665035Y-53213229D01*
X85809931Y-53354381D01*
X85816954Y-53360068D01*
X85985138Y-53472446D01*
X85993093Y-53476764D01*
X86178929Y-53556606D01*
X86187540Y-53559404D01*
X86379830Y-53602914D01*
X86387167Y-53600840D01*
X86389787Y-53597514D01*
X86390000Y-53596317D01*
X86390000Y-53584679D01*
X86690000Y-53584679D01*
X86694122Y-53597364D01*
X86695292Y-53598215D01*
X86701272Y-53598725D01*
X86805115Y-53583668D01*
X86813914Y-53581556D01*
X87005450Y-53516538D01*
X87013714Y-53512858D01*
X87190194Y-53414026D01*
X87197652Y-53408900D01*
X87353157Y-53279568D01*
X87359568Y-53273157D01*
X87488900Y-53117652D01*
X87494026Y-53110194D01*
X87592858Y-52933714D01*
X87596538Y-52925450D01*
X87661556Y-52733914D01*
X87663668Y-52725115D01*
X87678109Y-52625518D01*
X87675850Y-52612372D01*
X87674815Y-52611363D01*
X87668968Y-52610000D01*
X86705680Y-52610000D01*
X86692995Y-52614122D01*
X86690000Y-52618243D01*
X86690000Y-53584679D01*
X86390000Y-53584679D01*
X86390000Y-52625680D01*
X86385878Y-52612995D01*
X86381757Y-52610000D01*
X85412962Y-52610000D01*
X85400277Y-52614122D01*
X85398202Y-52616978D01*
X85397898Y-52619405D01*
X85137059Y-52619405D01*
X85135850Y-52612372D01*
X85134815Y-52611363D01*
X85128968Y-52610000D01*
X84165680Y-52610000D01*
X84152995Y-52614122D01*
X84150000Y-52618243D01*
X84150000Y-53584679D01*
X83850000Y-53584679D01*
X83850000Y-52294320D01*
X84150000Y-52294320D01*
X84154122Y-52307005D01*
X84158243Y-52310000D01*
X85125464Y-52310000D01*
X85138149Y-52305878D01*
X85139818Y-52303582D01*
X85140222Y-52299966D01*
X85139713Y-52294428D01*
X85401487Y-52294428D01*
X85404090Y-52307511D01*
X85405663Y-52308965D01*
X85410378Y-52310000D01*
X86374320Y-52310000D01*
X86387005Y-52305878D01*
X86390000Y-52301757D01*
X86390000Y-52294320D01*
X86690000Y-52294320D01*
X86694122Y-52307005D01*
X86698243Y-52310000D01*
X87665464Y-52310000D01*
X87678149Y-52305878D01*
X87679818Y-52303582D01*
X87680222Y-52299966D01*
X87676003Y-52254048D01*
X87674356Y-52245164D01*
X87619449Y-52050481D01*
X87616208Y-52042037D01*
X87526745Y-51860624D01*
X87522020Y-51852914D01*
X87400994Y-51690840D01*
X87394945Y-51684122D01*
X87246405Y-51546814D01*
X87239240Y-51541315D01*
X87068163Y-51433374D01*
X87060110Y-51429271D01*
X86872229Y-51354314D01*
X86863571Y-51351749D01*
X86705379Y-51320283D01*
X86692132Y-51321851D01*
X86692100Y-51321881D01*
X86690000Y-51329928D01*
X86690000Y-52294320D01*
X86390000Y-52294320D01*
X86390000Y-51334517D01*
X86385878Y-51321832D01*
X86385274Y-51321393D01*
X86378127Y-51320877D01*
X86245559Y-51343657D01*
X86236823Y-51345998D01*
X86047050Y-51416009D01*
X86038887Y-51419902D01*
X85865047Y-51523326D01*
X85857745Y-51528631D01*
X85705657Y-51662010D01*
X85699434Y-51668568D01*
X85574209Y-51827415D01*
X85569284Y-51834998D01*
X85475097Y-52014018D01*
X85471643Y-52022358D01*
X85411658Y-52215538D01*
X85409777Y-52224389D01*
X85401487Y-52294428D01*
X85139713Y-52294428D01*
X85136003Y-52254048D01*
X85134356Y-52245164D01*
X85079449Y-52050481D01*
X85076208Y-52042037D01*
X84986745Y-51860624D01*
X84982020Y-51852914D01*
X84860994Y-51690840D01*
X84854945Y-51684122D01*
X84706405Y-51546814D01*
X84699240Y-51541315D01*
X84528163Y-51433374D01*
X84520110Y-51429271D01*
X84332229Y-51354314D01*
X84323571Y-51351749D01*
X84165379Y-51320283D01*
X84152132Y-51321851D01*
X84152100Y-51321881D01*
X84150000Y-51329928D01*
X84150000Y-52294320D01*
X83850000Y-52294320D01*
X83850000Y-51334517D01*
X83845878Y-51321832D01*
X83845274Y-51321393D01*
X83838127Y-51320877D01*
X83705559Y-51343657D01*
X83696823Y-51345998D01*
X83507050Y-51416009D01*
X83498887Y-51419902D01*
X83325047Y-51523326D01*
X83317745Y-51528631D01*
X83165657Y-51662010D01*
X83159434Y-51668568D01*
X83034209Y-51827415D01*
X83029284Y-51834998D01*
X83012114Y-51867633D01*
X82968287Y-51910327D01*
X82907734Y-51919107D01*
X82853586Y-51890618D01*
X82826525Y-51835743D01*
X82825500Y-51821537D01*
X82825500Y-50175834D01*
X82844407Y-50117643D01*
X82854496Y-50105830D01*
X83105830Y-49854496D01*
X83160347Y-49826719D01*
X83175834Y-49825500D01*
X89981466Y-49825500D01*
X89990095Y-49825877D01*
X90028807Y-49829264D01*
X90038305Y-49826719D01*
X90066349Y-49819204D01*
X90074784Y-49817334D01*
X90104517Y-49812092D01*
X90104519Y-49812091D01*
X90113045Y-49810588D01*
X90120544Y-49806258D01*
X90126029Y-49804262D01*
X90131316Y-49801796D01*
X90139684Y-49799554D01*
X90171511Y-49777268D01*
X90178795Y-49772627D01*
X90212455Y-49753194D01*
X90237431Y-49723429D01*
X90243265Y-49717061D01*
X90640985Y-49319341D01*
X90695502Y-49291564D01*
X90755934Y-49301135D01*
G37*
%TD.AperFunction*%
%TA.AperFunction,Conductor*%
G36*
X93149191Y-40318907D02*
G01*
X93185155Y-40368407D01*
X93190000Y-40399000D01*
X93190000Y-41069320D01*
X93194122Y-41082005D01*
X93198243Y-41085000D01*
X94574320Y-41085000D01*
X94587005Y-41080878D01*
X94590000Y-41076757D01*
X94590000Y-40399000D01*
X94608907Y-40340809D01*
X94658407Y-40304845D01*
X94689000Y-40300000D01*
X97410500Y-40300000D01*
X97468691Y-40318907D01*
X97504655Y-40368407D01*
X97509500Y-40399000D01*
X97509500Y-41334166D01*
X97490593Y-41392357D01*
X97480504Y-41404170D01*
X94659504Y-44225170D01*
X94604987Y-44252947D01*
X94544555Y-44243376D01*
X94501290Y-44200111D01*
X94490500Y-44155166D01*
X94490500Y-43745252D01*
X94478867Y-43686769D01*
X94434552Y-43620448D01*
X94368231Y-43576133D01*
X94358668Y-43574231D01*
X94358666Y-43574230D01*
X94335995Y-43569721D01*
X94309748Y-43564500D01*
X93524510Y-43564500D01*
X93466319Y-43545593D01*
X93430355Y-43496093D01*
X93430355Y-43434907D01*
X93445968Y-43405233D01*
X93520585Y-43307990D01*
X93524536Y-43302841D01*
X93585044Y-43156762D01*
X93605682Y-43000000D01*
X93604047Y-42987577D01*
X93585891Y-42849674D01*
X93585044Y-42843238D01*
X93524536Y-42697159D01*
X93520585Y-42692010D01*
X93517342Y-42686393D01*
X93519157Y-42685345D01*
X93501893Y-42636589D01*
X93519272Y-42577924D01*
X93567814Y-42540678D01*
X93600859Y-42535000D01*
X93724320Y-42535000D01*
X93737005Y-42530878D01*
X93740000Y-42526757D01*
X93740000Y-42519320D01*
X94040000Y-42519320D01*
X94044122Y-42532005D01*
X94048243Y-42535000D01*
X94331639Y-42535000D01*
X94337485Y-42534654D01*
X94353353Y-42532766D01*
X94367519Y-42528872D01*
X94454514Y-42490230D01*
X94469321Y-42480054D01*
X94535367Y-42413892D01*
X94545517Y-42399069D01*
X94584000Y-42312020D01*
X94587873Y-42297815D01*
X94589668Y-42282420D01*
X94590000Y-42276708D01*
X94590000Y-41400680D01*
X94585878Y-41387995D01*
X94581757Y-41385000D01*
X94055680Y-41385000D01*
X94042995Y-41389122D01*
X94040000Y-41393243D01*
X94040000Y-42519320D01*
X93740000Y-42519320D01*
X93740000Y-41400680D01*
X93735878Y-41387995D01*
X93731757Y-41385000D01*
X93205680Y-41385000D01*
X93192995Y-41389122D01*
X93190000Y-41393243D01*
X93190000Y-42276639D01*
X93190346Y-42282487D01*
X93191845Y-42295082D01*
X93179945Y-42355099D01*
X93135040Y-42396659D01*
X93080616Y-42404931D01*
X93006434Y-42395165D01*
X93000000Y-42394318D01*
X92843238Y-42414956D01*
X92837240Y-42417440D01*
X92837238Y-42417441D01*
X92834968Y-42418381D01*
X92833214Y-42418519D01*
X92830975Y-42419119D01*
X92830864Y-42418704D01*
X92773971Y-42423180D01*
X92721803Y-42391209D01*
X92698390Y-42334680D01*
X92699987Y-42307603D01*
X92709552Y-42259514D01*
X92709552Y-42259512D01*
X92710500Y-42254748D01*
X92710500Y-40399000D01*
X92729407Y-40340809D01*
X92778907Y-40304845D01*
X92809500Y-40300000D01*
X93091000Y-40300000D01*
X93149191Y-40318907D01*
G37*
%TD.AperFunction*%
%TD*%
M02*
