%TF.GenerationSoftware,KiCad,Pcbnew,6.0.2-378541a8eb~116~ubuntu18.04.1*%
%TF.CreationDate,2022-03-16T16:53:27+09:00*%
%TF.ProjectId,led_a,6c65645f-612e-46b6-9963-61645f706362,rev?*%
%TF.SameCoordinates,Original*%
%TF.FileFunction,Copper,L2,Bot*%
%TF.FilePolarity,Positive*%
%FSLAX46Y46*%
G04 Gerber Fmt 4.6, Leading zero omitted, Abs format (unit mm)*
G04 Created by KiCad (PCBNEW 6.0.2-378541a8eb~116~ubuntu18.04.1) date 2022-03-16 16:53:27*
%MOMM*%
%LPD*%
G01*
G04 APERTURE LIST*
G04 Aperture macros list*
%AMRoundRect*
0 Rectangle with rounded corners*
0 $1 Rounding radius*
0 $2 $3 $4 $5 $6 $7 $8 $9 X,Y pos of 4 corners*
0 Add a 4 corners polygon primitive as box body*
4,1,4,$2,$3,$4,$5,$6,$7,$8,$9,$2,$3,0*
0 Add four circle primitives for the rounded corners*
1,1,$1+$1,$2,$3*
1,1,$1+$1,$4,$5*
1,1,$1+$1,$6,$7*
1,1,$1+$1,$8,$9*
0 Add four rect primitives between the rounded corners*
20,1,$1+$1,$2,$3,$4,$5,0*
20,1,$1+$1,$4,$5,$6,$7,0*
20,1,$1+$1,$6,$7,$8,$9,0*
20,1,$1+$1,$8,$9,$2,$3,0*%
G04 Aperture macros list end*
%TA.AperFunction,ComponentPad*%
%ADD10R,1.700000X1.700000*%
%TD*%
%TA.AperFunction,ComponentPad*%
%ADD11O,1.700000X1.700000*%
%TD*%
%TA.AperFunction,SMDPad,CuDef*%
%ADD12RoundRect,0.250000X0.650000X-0.412500X0.650000X0.412500X-0.650000X0.412500X-0.650000X-0.412500X0*%
%TD*%
%TA.AperFunction,ViaPad*%
%ADD13C,0.800000*%
%TD*%
%TA.AperFunction,Conductor*%
%ADD14C,0.500000*%
%TD*%
%TA.AperFunction,Conductor*%
%ADD15C,0.250000*%
%TD*%
G04 APERTURE END LIST*
D10*
%TO.P,J1,1,Pin_1*%
%TO.N,+5V*%
X86540000Y-57540000D03*
D11*
%TO.P,J1,2,Pin_2*%
X84000000Y-57540000D03*
%TO.P,J1,3,Pin_3*%
%TO.N,/SIG_OUT*%
X86540000Y-55000000D03*
%TO.P,J1,4,Pin_4*%
%TO.N,Net-(LD1-Pad4)*%
X84000000Y-55000000D03*
%TO.P,J1,5,Pin_5*%
%TO.N,GND*%
X86540000Y-52460000D03*
%TO.P,J1,6,Pin_6*%
X84000000Y-52460000D03*
%TD*%
D12*
%TO.P,C2,1*%
%TO.N,+5V*%
X99000000Y-50562500D03*
%TO.P,C2,2*%
%TO.N,GND*%
X99000000Y-47437500D03*
%TD*%
%TO.P,C4,1*%
%TO.N,+5V*%
X99000000Y-62562500D03*
%TO.P,C4,2*%
%TO.N,GND*%
X99000000Y-59437500D03*
%TD*%
%TO.P,C5,1*%
%TO.N,+5V*%
X99000000Y-68562500D03*
%TO.P,C5,2*%
%TO.N,GND*%
X99000000Y-65437500D03*
%TD*%
%TO.P,C3,1*%
%TO.N,+5V*%
X99000000Y-56562500D03*
%TO.P,C3,2*%
%TO.N,GND*%
X99000000Y-53437500D03*
%TD*%
%TO.P,C1,1*%
%TO.N,+5V*%
X99000000Y-44562500D03*
%TO.P,C1,2*%
%TO.N,GND*%
X99000000Y-41437500D03*
%TD*%
D13*
%TO.N,+5V*%
X97000000Y-51000000D03*
X92000000Y-49000000D03*
X103000000Y-45000000D03*
X92000000Y-61000000D03*
X103000000Y-51000000D03*
X109000000Y-57000000D03*
X97000000Y-45000000D03*
X115000000Y-51000000D03*
X97000000Y-69000000D03*
X109000000Y-63000000D03*
X97000000Y-57000000D03*
X92000000Y-67000000D03*
X103000000Y-57000000D03*
X115000000Y-45000000D03*
X115000000Y-57000000D03*
X92000000Y-43000000D03*
X109000000Y-69000000D03*
X109000000Y-51000000D03*
X109000000Y-45000000D03*
X115000000Y-69000000D03*
X103000000Y-69000000D03*
X92000000Y-55000000D03*
X97000000Y-63000000D03*
X103000000Y-63000000D03*
X115000000Y-63000000D03*
%TO.N,GND*%
X101000000Y-41000000D03*
X101000000Y-65000000D03*
X107000000Y-65000000D03*
X107000000Y-59000000D03*
X95000000Y-59000000D03*
X113000000Y-65000000D03*
X101000000Y-59000000D03*
X119000000Y-47000000D03*
X113000000Y-47000000D03*
X95000000Y-41000000D03*
X113000000Y-59000000D03*
X95000000Y-47000000D03*
X119000000Y-53000000D03*
X119000000Y-41000000D03*
X119000000Y-59000000D03*
X113000000Y-41000000D03*
X107000000Y-53000000D03*
X107000000Y-47000000D03*
X95000000Y-53000000D03*
X107000000Y-41000000D03*
X101000000Y-53000000D03*
X119000000Y-65000000D03*
X113000000Y-53000000D03*
X101000000Y-47000000D03*
%TO.N,/SIG1*%
X117000000Y-43000000D03*
X93000000Y-43000000D03*
%TO.N,/SIG2*%
X117000000Y-49000000D03*
X93000000Y-49000000D03*
%TO.N,/SIG3*%
X117000000Y-55000000D03*
X93000000Y-55000000D03*
%TO.N,/SIG4*%
X93000000Y-61000000D03*
X117000000Y-61000000D03*
%TO.N,/SIG_OUT*%
X117000000Y-67000000D03*
%TD*%
D14*
%TO.N,+5V*%
X93798609Y-45000000D02*
X97000000Y-45000000D01*
X92000000Y-61201391D02*
X92000000Y-61000000D01*
X92000000Y-49201391D02*
X92000000Y-49000000D01*
X93798609Y-63000000D02*
X92000000Y-61201391D01*
X115000000Y-69000000D02*
X94000000Y-69000000D01*
X93798609Y-57000000D02*
X92000000Y-55201391D01*
X115000000Y-51000000D02*
X93798609Y-51000000D01*
X92000000Y-43000000D02*
X92000000Y-43201391D01*
X92000000Y-43201391D02*
X93798609Y-45000000D01*
X93798609Y-51000000D02*
X92000000Y-49201391D01*
X97000000Y-45000000D02*
X115000000Y-45000000D01*
X115000000Y-63000000D02*
X93798609Y-63000000D01*
X92000000Y-55201391D02*
X92000000Y-55000000D01*
X115000000Y-57000000D02*
X93798609Y-57000000D01*
X94000000Y-69000000D02*
X92000000Y-67000000D01*
D15*
%TO.N,/SIG1*%
X117000000Y-43000000D02*
X93000000Y-43000000D01*
%TO.N,/SIG2*%
X117000000Y-49000000D02*
X93000000Y-49000000D01*
%TO.N,/SIG3*%
X117000000Y-55000000D02*
X93000000Y-55000000D01*
%TO.N,/SIG4*%
X117000000Y-61000000D02*
X93000000Y-61000000D01*
%TO.N,/SIG_OUT*%
X90425480Y-57440480D02*
X87985000Y-55000000D01*
X117000000Y-67000000D02*
X95000000Y-67000000D01*
X90425480Y-62425480D02*
X90425480Y-57440480D01*
X95000000Y-67000000D02*
X90425480Y-62425480D01*
X87985000Y-55000000D02*
X86540000Y-55000000D01*
%TD*%
%TA.AperFunction,Conductor*%
%TO.N,GND*%
G36*
X98226201Y-40318907D02*
G01*
X98262165Y-40368407D01*
X98262165Y-40429593D01*
X98226201Y-40479093D01*
X98204454Y-40491048D01*
X98083740Y-40538842D01*
X98072087Y-40545408D01*
X97962814Y-40628352D01*
X97953352Y-40637814D01*
X97870408Y-40747087D01*
X97863842Y-40758740D01*
X97813195Y-40886660D01*
X97810090Y-40898887D01*
X97800359Y-40979301D01*
X97800000Y-40985257D01*
X97800000Y-41271820D01*
X97804122Y-41284505D01*
X97808243Y-41287500D01*
X100184320Y-41287500D01*
X100197005Y-41283378D01*
X100200000Y-41279257D01*
X100200000Y-40985257D01*
X100199641Y-40979301D01*
X100189910Y-40898887D01*
X100186805Y-40886660D01*
X100136158Y-40758740D01*
X100129592Y-40747087D01*
X100046648Y-40637814D01*
X100037186Y-40628352D01*
X99927913Y-40545408D01*
X99916260Y-40538842D01*
X99795546Y-40491048D01*
X99748401Y-40452047D01*
X99733185Y-40392784D01*
X99755709Y-40335895D01*
X99807370Y-40303110D01*
X99831990Y-40300000D01*
X119601000Y-40300000D01*
X119659191Y-40318907D01*
X119695155Y-40368407D01*
X119700000Y-40399000D01*
X119700000Y-69601000D01*
X119681093Y-69659191D01*
X119631593Y-69695155D01*
X119601000Y-69700000D01*
X115365816Y-69700000D01*
X115307625Y-69681093D01*
X115271661Y-69631593D01*
X115271661Y-69570407D01*
X115305549Y-69522458D01*
X115398548Y-69451098D01*
X115428282Y-69428282D01*
X115524536Y-69302841D01*
X115585044Y-69156762D01*
X115605682Y-69000000D01*
X115585044Y-68843238D01*
X115524536Y-68697159D01*
X115428282Y-68571718D01*
X115302841Y-68475464D01*
X115156762Y-68414956D01*
X115000000Y-68394318D01*
X114843238Y-68414956D01*
X114697159Y-68475464D01*
X114692010Y-68479415D01*
X114627334Y-68529042D01*
X114567067Y-68549500D01*
X109432933Y-68549500D01*
X109372666Y-68529042D01*
X109307990Y-68479415D01*
X109302841Y-68475464D01*
X109156762Y-68414956D01*
X109000000Y-68394318D01*
X108843238Y-68414956D01*
X108697159Y-68475464D01*
X108692010Y-68479415D01*
X108627334Y-68529042D01*
X108567067Y-68549500D01*
X103432933Y-68549500D01*
X103372666Y-68529042D01*
X103307990Y-68479415D01*
X103302841Y-68475464D01*
X103156762Y-68414956D01*
X103000000Y-68394318D01*
X102843238Y-68414956D01*
X102697159Y-68475464D01*
X102692010Y-68479415D01*
X102627334Y-68529042D01*
X102567067Y-68549500D01*
X100199500Y-68549500D01*
X100141309Y-68530593D01*
X100105345Y-68481093D01*
X100100500Y-68450500D01*
X100100500Y-68096166D01*
X100097519Y-68064631D01*
X100052634Y-67936816D01*
X99972150Y-67827850D01*
X99863184Y-67747366D01*
X99735369Y-67702481D01*
X99729362Y-67701913D01*
X99729361Y-67701913D01*
X99706145Y-67699718D01*
X99706135Y-67699718D01*
X99703834Y-67699500D01*
X98296166Y-67699500D01*
X98293865Y-67699718D01*
X98293855Y-67699718D01*
X98270639Y-67701913D01*
X98270638Y-67701913D01*
X98264631Y-67702481D01*
X98136816Y-67747366D01*
X98027850Y-67827850D01*
X97947366Y-67936816D01*
X97902481Y-68064631D01*
X97899500Y-68096166D01*
X97899500Y-68450500D01*
X97880593Y-68508691D01*
X97831093Y-68544655D01*
X97800500Y-68549500D01*
X97432933Y-68549500D01*
X97372666Y-68529042D01*
X97307990Y-68479415D01*
X97302841Y-68475464D01*
X97156762Y-68414956D01*
X97000000Y-68394318D01*
X96843238Y-68414956D01*
X96697159Y-68475464D01*
X96692010Y-68479415D01*
X96627334Y-68529042D01*
X96567067Y-68549500D01*
X94227611Y-68549500D01*
X94169420Y-68530593D01*
X94157607Y-68520504D01*
X92624680Y-66987577D01*
X92596531Y-66930494D01*
X92585891Y-66849675D01*
X92585891Y-66849674D01*
X92585044Y-66843238D01*
X92524536Y-66697159D01*
X92428282Y-66571718D01*
X92302841Y-66475464D01*
X92156762Y-66414956D01*
X92020410Y-66397005D01*
X92006434Y-66395165D01*
X92000000Y-66394318D01*
X91993566Y-66395165D01*
X91979590Y-66397005D01*
X91843238Y-66414956D01*
X91697159Y-66475464D01*
X91571718Y-66571718D01*
X91475464Y-66697159D01*
X91414956Y-66843238D01*
X91414109Y-66849674D01*
X91395954Y-66987577D01*
X91394318Y-67000000D01*
X91414956Y-67156762D01*
X91475464Y-67302841D01*
X91571718Y-67428282D01*
X91697159Y-67524536D01*
X91843238Y-67585044D01*
X91930495Y-67596531D01*
X91987577Y-67624680D01*
X93658381Y-69295484D01*
X93666122Y-69304196D01*
X93688128Y-69332110D01*
X93694215Y-69336317D01*
X93736741Y-69365708D01*
X93739272Y-69367517D01*
X93780861Y-69398236D01*
X93780863Y-69398237D01*
X93786816Y-69402634D01*
X93793632Y-69405027D01*
X93799569Y-69409131D01*
X93806628Y-69411364D01*
X93806629Y-69411364D01*
X93826973Y-69417798D01*
X93855929Y-69426956D01*
X93858814Y-69427918D01*
X93914631Y-69447519D01*
X93920673Y-69447756D01*
X93923347Y-69448277D01*
X93928730Y-69449980D01*
X93935337Y-69450500D01*
X93988541Y-69450500D01*
X93992428Y-69450576D01*
X94042603Y-69452548D01*
X94042606Y-69452548D01*
X94049994Y-69452838D01*
X94056772Y-69451041D01*
X94066597Y-69450500D01*
X96567067Y-69450500D01*
X96627334Y-69470958D01*
X96694451Y-69522458D01*
X96729107Y-69572882D01*
X96727506Y-69634046D01*
X96690259Y-69682588D01*
X96634184Y-69700000D01*
X90399000Y-69700000D01*
X90340809Y-69681093D01*
X90304845Y-69631593D01*
X90300000Y-69601000D01*
X90300000Y-62999334D01*
X90318907Y-62941143D01*
X90368407Y-62905179D01*
X90429593Y-62905179D01*
X90469004Y-62929330D01*
X94756735Y-67217061D01*
X94762571Y-67223430D01*
X94787545Y-67253194D01*
X94821219Y-67272636D01*
X94828475Y-67277259D01*
X94860316Y-67299554D01*
X94868678Y-67301795D01*
X94873960Y-67304258D01*
X94879454Y-67306257D01*
X94886955Y-67310588D01*
X94925228Y-67317337D01*
X94933656Y-67319206D01*
X94962827Y-67327022D01*
X94962830Y-67327022D01*
X94971193Y-67329263D01*
X95009896Y-67325877D01*
X95018525Y-67325500D01*
X116444030Y-67325500D01*
X116502221Y-67344407D01*
X116522571Y-67364232D01*
X116571718Y-67428282D01*
X116697159Y-67524536D01*
X116843238Y-67585044D01*
X117000000Y-67605682D01*
X117156762Y-67585044D01*
X117302841Y-67524536D01*
X117428282Y-67428282D01*
X117524536Y-67302841D01*
X117585044Y-67156762D01*
X117605682Y-67000000D01*
X117604047Y-66987577D01*
X117585891Y-66849674D01*
X117585044Y-66843238D01*
X117524536Y-66697159D01*
X117428282Y-66571718D01*
X117302841Y-66475464D01*
X117156762Y-66414956D01*
X117020410Y-66397005D01*
X117006434Y-66395165D01*
X117000000Y-66394318D01*
X116993566Y-66395165D01*
X116979590Y-66397005D01*
X116843238Y-66414956D01*
X116697159Y-66475464D01*
X116571718Y-66571718D01*
X116567764Y-66576871D01*
X116522572Y-66635767D01*
X116472148Y-66670423D01*
X116444030Y-66674500D01*
X95175835Y-66674500D01*
X95117644Y-66655593D01*
X95105831Y-66645504D01*
X94350070Y-65889743D01*
X97800000Y-65889743D01*
X97800359Y-65895699D01*
X97810090Y-65976113D01*
X97813195Y-65988340D01*
X97863842Y-66116260D01*
X97870408Y-66127913D01*
X97953352Y-66237186D01*
X97962814Y-66246648D01*
X98072087Y-66329592D01*
X98083740Y-66336158D01*
X98211660Y-66386805D01*
X98223887Y-66389910D01*
X98304301Y-66399641D01*
X98310257Y-66400000D01*
X98834320Y-66400000D01*
X98847005Y-66395878D01*
X98850000Y-66391757D01*
X98850000Y-66384320D01*
X99150000Y-66384320D01*
X99154122Y-66397005D01*
X99158243Y-66400000D01*
X99689743Y-66400000D01*
X99695699Y-66399641D01*
X99776113Y-66389910D01*
X99788340Y-66386805D01*
X99916260Y-66336158D01*
X99927913Y-66329592D01*
X100037186Y-66246648D01*
X100046648Y-66237186D01*
X100129592Y-66127913D01*
X100136158Y-66116260D01*
X100186805Y-65988340D01*
X100189910Y-65976113D01*
X100199641Y-65895699D01*
X100200000Y-65889743D01*
X100200000Y-65603180D01*
X100195878Y-65590495D01*
X100191757Y-65587500D01*
X99165680Y-65587500D01*
X99152995Y-65591622D01*
X99150000Y-65595743D01*
X99150000Y-66384320D01*
X98850000Y-66384320D01*
X98850000Y-65603180D01*
X98845878Y-65590495D01*
X98841757Y-65587500D01*
X97815680Y-65587500D01*
X97802995Y-65591622D01*
X97800000Y-65595743D01*
X97800000Y-65889743D01*
X94350070Y-65889743D01*
X93732147Y-65271820D01*
X97800000Y-65271820D01*
X97804122Y-65284505D01*
X97808243Y-65287500D01*
X98834320Y-65287500D01*
X98847005Y-65283378D01*
X98850000Y-65279257D01*
X98850000Y-65271820D01*
X99150000Y-65271820D01*
X99154122Y-65284505D01*
X99158243Y-65287500D01*
X100184320Y-65287500D01*
X100197005Y-65283378D01*
X100200000Y-65279257D01*
X100200000Y-64985257D01*
X100199641Y-64979301D01*
X100189910Y-64898887D01*
X100186805Y-64886660D01*
X100136158Y-64758740D01*
X100129592Y-64747087D01*
X100046648Y-64637814D01*
X100037186Y-64628352D01*
X99927913Y-64545408D01*
X99916260Y-64538842D01*
X99788340Y-64488195D01*
X99776113Y-64485090D01*
X99695699Y-64475359D01*
X99689743Y-64475000D01*
X99165680Y-64475000D01*
X99152995Y-64479122D01*
X99150000Y-64483243D01*
X99150000Y-65271820D01*
X98850000Y-65271820D01*
X98850000Y-64490680D01*
X98845878Y-64477995D01*
X98841757Y-64475000D01*
X98310257Y-64475000D01*
X98304301Y-64475359D01*
X98223887Y-64485090D01*
X98211660Y-64488195D01*
X98083740Y-64538842D01*
X98072087Y-64545408D01*
X97962814Y-64628352D01*
X97953352Y-64637814D01*
X97870408Y-64747087D01*
X97863842Y-64758740D01*
X97813195Y-64886660D01*
X97810090Y-64898887D01*
X97800359Y-64979301D01*
X97800000Y-64985257D01*
X97800000Y-65271820D01*
X93732147Y-65271820D01*
X90779976Y-62319650D01*
X90752199Y-62265133D01*
X90750980Y-62249646D01*
X90750980Y-61000000D01*
X91394318Y-61000000D01*
X91414956Y-61156762D01*
X91475464Y-61302841D01*
X91571718Y-61428282D01*
X91576871Y-61432236D01*
X91644227Y-61483920D01*
X91653964Y-61492458D01*
X91673357Y-61511851D01*
X91676051Y-61514654D01*
X91710124Y-61551515D01*
X91710127Y-61551517D01*
X91715146Y-61556947D01*
X91721210Y-61560469D01*
X91728535Y-61567029D01*
X93456990Y-63295484D01*
X93464731Y-63304196D01*
X93486737Y-63332110D01*
X93492824Y-63336317D01*
X93535350Y-63365708D01*
X93537881Y-63367517D01*
X93579470Y-63398236D01*
X93579472Y-63398237D01*
X93585425Y-63402634D01*
X93592241Y-63405027D01*
X93598178Y-63409131D01*
X93605237Y-63411364D01*
X93605238Y-63411364D01*
X93625582Y-63417798D01*
X93654538Y-63426956D01*
X93657423Y-63427918D01*
X93713240Y-63447519D01*
X93719282Y-63447756D01*
X93721956Y-63448277D01*
X93727339Y-63449980D01*
X93733946Y-63450500D01*
X93787150Y-63450500D01*
X93791037Y-63450576D01*
X93848603Y-63452838D01*
X93855382Y-63451041D01*
X93865202Y-63450500D01*
X96567067Y-63450500D01*
X96627335Y-63470958D01*
X96697159Y-63524536D01*
X96843238Y-63585044D01*
X97000000Y-63605682D01*
X97156762Y-63585044D01*
X97302841Y-63524536D01*
X97372665Y-63470958D01*
X97432933Y-63450500D01*
X102567067Y-63450500D01*
X102627335Y-63470958D01*
X102697159Y-63524536D01*
X102843238Y-63585044D01*
X103000000Y-63605682D01*
X103156762Y-63585044D01*
X103302841Y-63524536D01*
X103372665Y-63470958D01*
X103432933Y-63450500D01*
X108567067Y-63450500D01*
X108627335Y-63470958D01*
X108697159Y-63524536D01*
X108843238Y-63585044D01*
X109000000Y-63605682D01*
X109156762Y-63585044D01*
X109302841Y-63524536D01*
X109372665Y-63470958D01*
X109432933Y-63450500D01*
X114567067Y-63450500D01*
X114627335Y-63470958D01*
X114697159Y-63524536D01*
X114843238Y-63585044D01*
X115000000Y-63605682D01*
X115156762Y-63585044D01*
X115302841Y-63524536D01*
X115428282Y-63428282D01*
X115524536Y-63302841D01*
X115585044Y-63156762D01*
X115605682Y-63000000D01*
X115585044Y-62843238D01*
X115524536Y-62697159D01*
X115428282Y-62571718D01*
X115302841Y-62475464D01*
X115156762Y-62414956D01*
X115000000Y-62394318D01*
X114843238Y-62414956D01*
X114697159Y-62475464D01*
X114692010Y-62479415D01*
X114627334Y-62529042D01*
X114567067Y-62549500D01*
X109432933Y-62549500D01*
X109372666Y-62529042D01*
X109307990Y-62479415D01*
X109302841Y-62475464D01*
X109156762Y-62414956D01*
X109000000Y-62394318D01*
X108843238Y-62414956D01*
X108697159Y-62475464D01*
X108692010Y-62479415D01*
X108627334Y-62529042D01*
X108567067Y-62549500D01*
X103432933Y-62549500D01*
X103372666Y-62529042D01*
X103307990Y-62479415D01*
X103302841Y-62475464D01*
X103156762Y-62414956D01*
X103000000Y-62394318D01*
X102843238Y-62414956D01*
X102697159Y-62475464D01*
X102692010Y-62479415D01*
X102627334Y-62529042D01*
X102567067Y-62549500D01*
X100199500Y-62549500D01*
X100141309Y-62530593D01*
X100105345Y-62481093D01*
X100100500Y-62450500D01*
X100100500Y-62096166D01*
X100097519Y-62064631D01*
X100052634Y-61936816D01*
X99972150Y-61827850D01*
X99863184Y-61747366D01*
X99735369Y-61702481D01*
X99729362Y-61701913D01*
X99729361Y-61701913D01*
X99706145Y-61699718D01*
X99706135Y-61699718D01*
X99703834Y-61699500D01*
X98296166Y-61699500D01*
X98293865Y-61699718D01*
X98293855Y-61699718D01*
X98270639Y-61701913D01*
X98270638Y-61701913D01*
X98264631Y-61702481D01*
X98136816Y-61747366D01*
X98027850Y-61827850D01*
X97947366Y-61936816D01*
X97902481Y-62064631D01*
X97899500Y-62096166D01*
X97899500Y-62450500D01*
X97880593Y-62508691D01*
X97831093Y-62544655D01*
X97800500Y-62549500D01*
X97432933Y-62549500D01*
X97372666Y-62529042D01*
X97307990Y-62479415D01*
X97302841Y-62475464D01*
X97156762Y-62414956D01*
X97000000Y-62394318D01*
X96843238Y-62414956D01*
X96697159Y-62475464D01*
X96692010Y-62479415D01*
X96627334Y-62529042D01*
X96567067Y-62549500D01*
X94026220Y-62549500D01*
X93968029Y-62530593D01*
X93956216Y-62520504D01*
X93165359Y-61729647D01*
X93137582Y-61675130D01*
X93147153Y-61614698D01*
X93190418Y-61571433D01*
X93197471Y-61568182D01*
X93302841Y-61524536D01*
X93428282Y-61428282D01*
X93477429Y-61364233D01*
X93527852Y-61329577D01*
X93555970Y-61325500D01*
X116444030Y-61325500D01*
X116502221Y-61344407D01*
X116522571Y-61364232D01*
X116571718Y-61428282D01*
X116697159Y-61524536D01*
X116843238Y-61585044D01*
X117000000Y-61605682D01*
X117156762Y-61585044D01*
X117302841Y-61524536D01*
X117428282Y-61428282D01*
X117524536Y-61302841D01*
X117585044Y-61156762D01*
X117605682Y-61000000D01*
X117585044Y-60843238D01*
X117524536Y-60697159D01*
X117428282Y-60571718D01*
X117302841Y-60475464D01*
X117156762Y-60414956D01*
X117020410Y-60397005D01*
X117006434Y-60395165D01*
X117000000Y-60394318D01*
X116993566Y-60395165D01*
X116979590Y-60397005D01*
X116843238Y-60414956D01*
X116697159Y-60475464D01*
X116571718Y-60571718D01*
X116567764Y-60576871D01*
X116522572Y-60635767D01*
X116472148Y-60670423D01*
X116444030Y-60674500D01*
X93555970Y-60674500D01*
X93497779Y-60655593D01*
X93477428Y-60635767D01*
X93432236Y-60576871D01*
X93428282Y-60571718D01*
X93302841Y-60475464D01*
X93156762Y-60414956D01*
X93020410Y-60397005D01*
X93006434Y-60395165D01*
X93000000Y-60394318D01*
X92993566Y-60395165D01*
X92979590Y-60397005D01*
X92843238Y-60414956D01*
X92697159Y-60475464D01*
X92571718Y-60571718D01*
X92569148Y-60575067D01*
X92515487Y-60602408D01*
X92455055Y-60592837D01*
X92431174Y-60575487D01*
X92428282Y-60571718D01*
X92302841Y-60475464D01*
X92156762Y-60414956D01*
X92020410Y-60397005D01*
X92006434Y-60395165D01*
X92000000Y-60394318D01*
X91993566Y-60395165D01*
X91979590Y-60397005D01*
X91843238Y-60414956D01*
X91697159Y-60475464D01*
X91571718Y-60571718D01*
X91475464Y-60697159D01*
X91414956Y-60843238D01*
X91394318Y-61000000D01*
X90750980Y-61000000D01*
X90750980Y-59889743D01*
X97800000Y-59889743D01*
X97800359Y-59895699D01*
X97810090Y-59976113D01*
X97813195Y-59988340D01*
X97863842Y-60116260D01*
X97870408Y-60127913D01*
X97953352Y-60237186D01*
X97962814Y-60246648D01*
X98072087Y-60329592D01*
X98083740Y-60336158D01*
X98211660Y-60386805D01*
X98223887Y-60389910D01*
X98304301Y-60399641D01*
X98310257Y-60400000D01*
X98834320Y-60400000D01*
X98847005Y-60395878D01*
X98850000Y-60391757D01*
X98850000Y-60384320D01*
X99150000Y-60384320D01*
X99154122Y-60397005D01*
X99158243Y-60400000D01*
X99689743Y-60400000D01*
X99695699Y-60399641D01*
X99776113Y-60389910D01*
X99788340Y-60386805D01*
X99916260Y-60336158D01*
X99927913Y-60329592D01*
X100037186Y-60246648D01*
X100046648Y-60237186D01*
X100129592Y-60127913D01*
X100136158Y-60116260D01*
X100186805Y-59988340D01*
X100189910Y-59976113D01*
X100199641Y-59895699D01*
X100200000Y-59889743D01*
X100200000Y-59603180D01*
X100195878Y-59590495D01*
X100191757Y-59587500D01*
X99165680Y-59587500D01*
X99152995Y-59591622D01*
X99150000Y-59595743D01*
X99150000Y-60384320D01*
X98850000Y-60384320D01*
X98850000Y-59603180D01*
X98845878Y-59590495D01*
X98841757Y-59587500D01*
X97815680Y-59587500D01*
X97802995Y-59591622D01*
X97800000Y-59595743D01*
X97800000Y-59889743D01*
X90750980Y-59889743D01*
X90750980Y-59271820D01*
X97800000Y-59271820D01*
X97804122Y-59284505D01*
X97808243Y-59287500D01*
X98834320Y-59287500D01*
X98847005Y-59283378D01*
X98850000Y-59279257D01*
X98850000Y-59271820D01*
X99150000Y-59271820D01*
X99154122Y-59284505D01*
X99158243Y-59287500D01*
X100184320Y-59287500D01*
X100197005Y-59283378D01*
X100200000Y-59279257D01*
X100200000Y-58985257D01*
X100199641Y-58979301D01*
X100189910Y-58898887D01*
X100186805Y-58886660D01*
X100136158Y-58758740D01*
X100129592Y-58747087D01*
X100046648Y-58637814D01*
X100037186Y-58628352D01*
X99927913Y-58545408D01*
X99916260Y-58538842D01*
X99788340Y-58488195D01*
X99776113Y-58485090D01*
X99695699Y-58475359D01*
X99689743Y-58475000D01*
X99165680Y-58475000D01*
X99152995Y-58479122D01*
X99150000Y-58483243D01*
X99150000Y-59271820D01*
X98850000Y-59271820D01*
X98850000Y-58490680D01*
X98845878Y-58477995D01*
X98841757Y-58475000D01*
X98310257Y-58475000D01*
X98304301Y-58475359D01*
X98223887Y-58485090D01*
X98211660Y-58488195D01*
X98083740Y-58538842D01*
X98072087Y-58545408D01*
X97962814Y-58628352D01*
X97953352Y-58637814D01*
X97870408Y-58747087D01*
X97863842Y-58758740D01*
X97813195Y-58886660D01*
X97810090Y-58898887D01*
X97800359Y-58979301D01*
X97800000Y-58985257D01*
X97800000Y-59271820D01*
X90750980Y-59271820D01*
X90750980Y-57459014D01*
X90751357Y-57450385D01*
X90753989Y-57420302D01*
X90754744Y-57411673D01*
X90744684Y-57374130D01*
X90742814Y-57365696D01*
X90737572Y-57335963D01*
X90737571Y-57335961D01*
X90736068Y-57327435D01*
X90731738Y-57319936D01*
X90729742Y-57314451D01*
X90727276Y-57309164D01*
X90725034Y-57300796D01*
X90702748Y-57268969D01*
X90698107Y-57261685D01*
X90683003Y-57235524D01*
X90678674Y-57228025D01*
X90648909Y-57203049D01*
X90642541Y-57197215D01*
X88445326Y-55000000D01*
X91394318Y-55000000D01*
X91414956Y-55156762D01*
X91475464Y-55302841D01*
X91571718Y-55428282D01*
X91576871Y-55432236D01*
X91644227Y-55483920D01*
X91653964Y-55492458D01*
X91673357Y-55511851D01*
X91676051Y-55514654D01*
X91710124Y-55551515D01*
X91710127Y-55551517D01*
X91715146Y-55556947D01*
X91721210Y-55560469D01*
X91728535Y-55567029D01*
X93456990Y-57295484D01*
X93464731Y-57304196D01*
X93486737Y-57332110D01*
X93535333Y-57365696D01*
X93535350Y-57365708D01*
X93537881Y-57367517D01*
X93579470Y-57398236D01*
X93579472Y-57398237D01*
X93585425Y-57402634D01*
X93592241Y-57405027D01*
X93598178Y-57409131D01*
X93605237Y-57411364D01*
X93605238Y-57411364D01*
X93625582Y-57417798D01*
X93654538Y-57426956D01*
X93657423Y-57427918D01*
X93713240Y-57447519D01*
X93719282Y-57447756D01*
X93721956Y-57448277D01*
X93727339Y-57449980D01*
X93733946Y-57450500D01*
X93787150Y-57450500D01*
X93791037Y-57450576D01*
X93848603Y-57452838D01*
X93855382Y-57451041D01*
X93865202Y-57450500D01*
X96567067Y-57450500D01*
X96627335Y-57470958D01*
X96697159Y-57524536D01*
X96843238Y-57585044D01*
X97000000Y-57605682D01*
X97156762Y-57585044D01*
X97302841Y-57524536D01*
X97372665Y-57470958D01*
X97432933Y-57450500D01*
X102567067Y-57450500D01*
X102627335Y-57470958D01*
X102697159Y-57524536D01*
X102843238Y-57585044D01*
X103000000Y-57605682D01*
X103156762Y-57585044D01*
X103302841Y-57524536D01*
X103372665Y-57470958D01*
X103432933Y-57450500D01*
X108567067Y-57450500D01*
X108627335Y-57470958D01*
X108697159Y-57524536D01*
X108843238Y-57585044D01*
X109000000Y-57605682D01*
X109156762Y-57585044D01*
X109302841Y-57524536D01*
X109372665Y-57470958D01*
X109432933Y-57450500D01*
X114567067Y-57450500D01*
X114627335Y-57470958D01*
X114697159Y-57524536D01*
X114843238Y-57585044D01*
X115000000Y-57605682D01*
X115156762Y-57585044D01*
X115302841Y-57524536D01*
X115428282Y-57428282D01*
X115524536Y-57302841D01*
X115585044Y-57156762D01*
X115605682Y-57000000D01*
X115585044Y-56843238D01*
X115524536Y-56697159D01*
X115428282Y-56571718D01*
X115302841Y-56475464D01*
X115156762Y-56414956D01*
X115000000Y-56394318D01*
X114843238Y-56414956D01*
X114697159Y-56475464D01*
X114692010Y-56479415D01*
X114627334Y-56529042D01*
X114567067Y-56549500D01*
X109432933Y-56549500D01*
X109372666Y-56529042D01*
X109307990Y-56479415D01*
X109302841Y-56475464D01*
X109156762Y-56414956D01*
X109000000Y-56394318D01*
X108843238Y-56414956D01*
X108697159Y-56475464D01*
X108692010Y-56479415D01*
X108627334Y-56529042D01*
X108567067Y-56549500D01*
X103432933Y-56549500D01*
X103372666Y-56529042D01*
X103307990Y-56479415D01*
X103302841Y-56475464D01*
X103156762Y-56414956D01*
X103000000Y-56394318D01*
X102843238Y-56414956D01*
X102697159Y-56475464D01*
X102692010Y-56479415D01*
X102627334Y-56529042D01*
X102567067Y-56549500D01*
X100199500Y-56549500D01*
X100141309Y-56530593D01*
X100105345Y-56481093D01*
X100100500Y-56450500D01*
X100100500Y-56096166D01*
X100097519Y-56064631D01*
X100052634Y-55936816D01*
X100000913Y-55866791D01*
X99976550Y-55833807D01*
X99972150Y-55827850D01*
X99863184Y-55747366D01*
X99735369Y-55702481D01*
X99729362Y-55701913D01*
X99729361Y-55701913D01*
X99706145Y-55699718D01*
X99706135Y-55699718D01*
X99703834Y-55699500D01*
X98296166Y-55699500D01*
X98293865Y-55699718D01*
X98293855Y-55699718D01*
X98270639Y-55701913D01*
X98270638Y-55701913D01*
X98264631Y-55702481D01*
X98136816Y-55747366D01*
X98027850Y-55827850D01*
X98023450Y-55833807D01*
X97999088Y-55866791D01*
X97947366Y-55936816D01*
X97902481Y-56064631D01*
X97899500Y-56096166D01*
X97899500Y-56450500D01*
X97880593Y-56508691D01*
X97831093Y-56544655D01*
X97800500Y-56549500D01*
X97432933Y-56549500D01*
X97372666Y-56529042D01*
X97307990Y-56479415D01*
X97302841Y-56475464D01*
X97156762Y-56414956D01*
X97000000Y-56394318D01*
X96843238Y-56414956D01*
X96697159Y-56475464D01*
X96692010Y-56479415D01*
X96627334Y-56529042D01*
X96567067Y-56549500D01*
X94026220Y-56549500D01*
X93968029Y-56530593D01*
X93956216Y-56520504D01*
X93165359Y-55729647D01*
X93137582Y-55675130D01*
X93147153Y-55614698D01*
X93190418Y-55571433D01*
X93197471Y-55568182D01*
X93302841Y-55524536D01*
X93428282Y-55428282D01*
X93477429Y-55364233D01*
X93527852Y-55329577D01*
X93555970Y-55325500D01*
X116444030Y-55325500D01*
X116502221Y-55344407D01*
X116522571Y-55364232D01*
X116571718Y-55428282D01*
X116697159Y-55524536D01*
X116843238Y-55585044D01*
X117000000Y-55605682D01*
X117156762Y-55585044D01*
X117302841Y-55524536D01*
X117428282Y-55428282D01*
X117524536Y-55302841D01*
X117585044Y-55156762D01*
X117605682Y-55000000D01*
X117585044Y-54843238D01*
X117524536Y-54697159D01*
X117428282Y-54571718D01*
X117302841Y-54475464D01*
X117185046Y-54426671D01*
X117162759Y-54417440D01*
X117156762Y-54414956D01*
X117020410Y-54397005D01*
X117006434Y-54395165D01*
X117000000Y-54394318D01*
X116993566Y-54395165D01*
X116979590Y-54397005D01*
X116843238Y-54414956D01*
X116837241Y-54417440D01*
X116814954Y-54426671D01*
X116697159Y-54475464D01*
X116571718Y-54571718D01*
X116544754Y-54606859D01*
X116522572Y-54635767D01*
X116472148Y-54670423D01*
X116444030Y-54674500D01*
X93555970Y-54674500D01*
X93497779Y-54655593D01*
X93477428Y-54635767D01*
X93455247Y-54606859D01*
X93428282Y-54571718D01*
X93302841Y-54475464D01*
X93185046Y-54426671D01*
X93162759Y-54417440D01*
X93156762Y-54414956D01*
X93020410Y-54397005D01*
X93006434Y-54395165D01*
X93000000Y-54394318D01*
X92993566Y-54395165D01*
X92979590Y-54397005D01*
X92843238Y-54414956D01*
X92837241Y-54417440D01*
X92814954Y-54426671D01*
X92697159Y-54475464D01*
X92571718Y-54571718D01*
X92569148Y-54575067D01*
X92515487Y-54602408D01*
X92455055Y-54592837D01*
X92431174Y-54575487D01*
X92428282Y-54571718D01*
X92302841Y-54475464D01*
X92185046Y-54426671D01*
X92162759Y-54417440D01*
X92156762Y-54414956D01*
X92020410Y-54397005D01*
X92006434Y-54395165D01*
X92000000Y-54394318D01*
X91993566Y-54395165D01*
X91979590Y-54397005D01*
X91843238Y-54414956D01*
X91837241Y-54417440D01*
X91814954Y-54426671D01*
X91697159Y-54475464D01*
X91571718Y-54571718D01*
X91475464Y-54697159D01*
X91414956Y-54843238D01*
X91394318Y-55000000D01*
X88445326Y-55000000D01*
X88228269Y-54782943D01*
X88222434Y-54776575D01*
X88221882Y-54775917D01*
X88197455Y-54746806D01*
X88163792Y-54727371D01*
X88156511Y-54722732D01*
X88154056Y-54721013D01*
X88124684Y-54700446D01*
X88116316Y-54698204D01*
X88111029Y-54695738D01*
X88105544Y-54693742D01*
X88098045Y-54689412D01*
X88089519Y-54687909D01*
X88089517Y-54687908D01*
X88059784Y-54682666D01*
X88051349Y-54680796D01*
X88022174Y-54672978D01*
X88013807Y-54670736D01*
X88005178Y-54671491D01*
X87975095Y-54674123D01*
X87966466Y-54674500D01*
X87612631Y-54674500D01*
X87554440Y-54655593D01*
X87519665Y-54606659D01*
X87519179Y-54606859D01*
X87518312Y-54604756D01*
X87517857Y-54604116D01*
X87515935Y-54597749D01*
X87419218Y-54415849D01*
X87289011Y-54256200D01*
X87130275Y-54124882D01*
X86949055Y-54026897D01*
X86885855Y-54007333D01*
X86756875Y-53967407D01*
X86756871Y-53967406D01*
X86752254Y-53965977D01*
X86747446Y-53965472D01*
X86747443Y-53965471D01*
X86552185Y-53944949D01*
X86552183Y-53944949D01*
X86547369Y-53944443D01*
X86487354Y-53949905D01*
X86347022Y-53962675D01*
X86347017Y-53962676D01*
X86342203Y-53963114D01*
X86144572Y-54021280D01*
X86140288Y-54023519D01*
X86140287Y-54023520D01*
X86129428Y-54029197D01*
X85962002Y-54116726D01*
X85958231Y-54119758D01*
X85805220Y-54242781D01*
X85805217Y-54242783D01*
X85801447Y-54245815D01*
X85798333Y-54249526D01*
X85798332Y-54249527D01*
X85675529Y-54395878D01*
X85669024Y-54403630D01*
X85666689Y-54407878D01*
X85666688Y-54407879D01*
X85661432Y-54417440D01*
X85569776Y-54584162D01*
X85568313Y-54588775D01*
X85568311Y-54588779D01*
X85542313Y-54670736D01*
X85507484Y-54780532D01*
X85506944Y-54785344D01*
X85506944Y-54785345D01*
X85499729Y-54849674D01*
X85484520Y-54985262D01*
X85501759Y-55190553D01*
X85558544Y-55388586D01*
X85652712Y-55571818D01*
X85780677Y-55733270D01*
X85784357Y-55736402D01*
X85784359Y-55736404D01*
X85886638Y-55823450D01*
X85937564Y-55866791D01*
X85941787Y-55869151D01*
X85941791Y-55869154D01*
X85981342Y-55891258D01*
X86117398Y-55967297D01*
X86121996Y-55968791D01*
X86308724Y-56029463D01*
X86308726Y-56029464D01*
X86313329Y-56030959D01*
X86517894Y-56055351D01*
X86522716Y-56054980D01*
X86522719Y-56054980D01*
X86590541Y-56049761D01*
X86723300Y-56039546D01*
X86921725Y-55984145D01*
X86926038Y-55981966D01*
X86926044Y-55981964D01*
X87101289Y-55893441D01*
X87101291Y-55893440D01*
X87105610Y-55891258D01*
X87140943Y-55863653D01*
X87264135Y-55767406D01*
X87264139Y-55767402D01*
X87267951Y-55764424D01*
X87278881Y-55751762D01*
X87345027Y-55675130D01*
X87402564Y-55608472D01*
X87421231Y-55575613D01*
X87501934Y-55433550D01*
X87501935Y-55433547D01*
X87504323Y-55429344D01*
X87505850Y-55424755D01*
X87505851Y-55424753D01*
X87516329Y-55393252D01*
X87552637Y-55344004D01*
X87610268Y-55325500D01*
X87809166Y-55325500D01*
X87867357Y-55344407D01*
X87879170Y-55354496D01*
X90070984Y-57546310D01*
X90098761Y-57600827D01*
X90099980Y-57616314D01*
X90099980Y-60701000D01*
X90081073Y-60759191D01*
X90031573Y-60795155D01*
X90000980Y-60800000D01*
X82299000Y-60800000D01*
X82240809Y-60781093D01*
X82204845Y-60731593D01*
X82200000Y-60701000D01*
X82200000Y-57525262D01*
X82944520Y-57525262D01*
X82961759Y-57730553D01*
X83018544Y-57928586D01*
X83112712Y-58111818D01*
X83240677Y-58273270D01*
X83244357Y-58276402D01*
X83244359Y-58276404D01*
X83357017Y-58372283D01*
X83397564Y-58406791D01*
X83401787Y-58409151D01*
X83401791Y-58409154D01*
X83441342Y-58431258D01*
X83577398Y-58507297D01*
X83581996Y-58508791D01*
X83768724Y-58569463D01*
X83768726Y-58569464D01*
X83773329Y-58570959D01*
X83977894Y-58595351D01*
X83982716Y-58594980D01*
X83982719Y-58594980D01*
X84053259Y-58589552D01*
X84183300Y-58579546D01*
X84381725Y-58524145D01*
X84386038Y-58521966D01*
X84386044Y-58521964D01*
X84561289Y-58433441D01*
X84561291Y-58433440D01*
X84565610Y-58431258D01*
X84593142Y-58409748D01*
X85489500Y-58409748D01*
X85501133Y-58468231D01*
X85545448Y-58534552D01*
X85611769Y-58578867D01*
X85621332Y-58580769D01*
X85621334Y-58580770D01*
X85644005Y-58585279D01*
X85670252Y-58590500D01*
X87409748Y-58590500D01*
X87435995Y-58585279D01*
X87458666Y-58580770D01*
X87458668Y-58580769D01*
X87468231Y-58578867D01*
X87534552Y-58534552D01*
X87578867Y-58468231D01*
X87590500Y-58409748D01*
X87590500Y-56670252D01*
X87578867Y-56611769D01*
X87534552Y-56545448D01*
X87468231Y-56501133D01*
X87458668Y-56499231D01*
X87458666Y-56499230D01*
X87435995Y-56494721D01*
X87409748Y-56489500D01*
X85670252Y-56489500D01*
X85644005Y-56494721D01*
X85621334Y-56499230D01*
X85621332Y-56499231D01*
X85611769Y-56501133D01*
X85545448Y-56545448D01*
X85501133Y-56611769D01*
X85489500Y-56670252D01*
X85489500Y-58409748D01*
X84593142Y-58409748D01*
X84600943Y-58403653D01*
X84724135Y-58307406D01*
X84724139Y-58307402D01*
X84727951Y-58304424D01*
X84862564Y-58148472D01*
X84881231Y-58115613D01*
X84961934Y-57973550D01*
X84961935Y-57973547D01*
X84964323Y-57969344D01*
X84977882Y-57928586D01*
X85027824Y-57778454D01*
X85027824Y-57778452D01*
X85029351Y-57773863D01*
X85055171Y-57569474D01*
X85055583Y-57540000D01*
X85054067Y-57524536D01*
X85035952Y-57339780D01*
X85035951Y-57339776D01*
X85035480Y-57334970D01*
X85023559Y-57295484D01*
X84995650Y-57203049D01*
X84975935Y-57137749D01*
X84879218Y-56955849D01*
X84749011Y-56796200D01*
X84602639Y-56675110D01*
X84594002Y-56667965D01*
X84594000Y-56667964D01*
X84590275Y-56664882D01*
X84409055Y-56566897D01*
X84337203Y-56544655D01*
X84216875Y-56507407D01*
X84216871Y-56507406D01*
X84212254Y-56505977D01*
X84207446Y-56505472D01*
X84207443Y-56505471D01*
X84012185Y-56484949D01*
X84012183Y-56484949D01*
X84007369Y-56484443D01*
X83951800Y-56489500D01*
X83807022Y-56502675D01*
X83807017Y-56502676D01*
X83802203Y-56503114D01*
X83604572Y-56561280D01*
X83600288Y-56563519D01*
X83600287Y-56563520D01*
X83592169Y-56567764D01*
X83422002Y-56656726D01*
X83418231Y-56659758D01*
X83265220Y-56782781D01*
X83265217Y-56782783D01*
X83261447Y-56785815D01*
X83258333Y-56789526D01*
X83258332Y-56789527D01*
X83207863Y-56849674D01*
X83129024Y-56943630D01*
X83126689Y-56947878D01*
X83126688Y-56947879D01*
X83119955Y-56960126D01*
X83029776Y-57124162D01*
X83028313Y-57128775D01*
X83028311Y-57128779D01*
X82998595Y-57222458D01*
X82967484Y-57320532D01*
X82966944Y-57325344D01*
X82966944Y-57325345D01*
X82952644Y-57452838D01*
X82944520Y-57525262D01*
X82200000Y-57525262D01*
X82200000Y-54985262D01*
X82944520Y-54985262D01*
X82961759Y-55190553D01*
X83018544Y-55388586D01*
X83112712Y-55571818D01*
X83240677Y-55733270D01*
X83244357Y-55736402D01*
X83244359Y-55736404D01*
X83346638Y-55823450D01*
X83397564Y-55866791D01*
X83401787Y-55869151D01*
X83401791Y-55869154D01*
X83441342Y-55891258D01*
X83577398Y-55967297D01*
X83581996Y-55968791D01*
X83768724Y-56029463D01*
X83768726Y-56029464D01*
X83773329Y-56030959D01*
X83977894Y-56055351D01*
X83982716Y-56054980D01*
X83982719Y-56054980D01*
X84050541Y-56049761D01*
X84183300Y-56039546D01*
X84381725Y-55984145D01*
X84386038Y-55981966D01*
X84386044Y-55981964D01*
X84561289Y-55893441D01*
X84561291Y-55893440D01*
X84565610Y-55891258D01*
X84600943Y-55863653D01*
X84724135Y-55767406D01*
X84724139Y-55767402D01*
X84727951Y-55764424D01*
X84738881Y-55751762D01*
X84805027Y-55675130D01*
X84862564Y-55608472D01*
X84881231Y-55575613D01*
X84961934Y-55433550D01*
X84961935Y-55433547D01*
X84964323Y-55429344D01*
X84965851Y-55424753D01*
X85027824Y-55238454D01*
X85027824Y-55238452D01*
X85029351Y-55233863D01*
X85038334Y-55162759D01*
X85054823Y-55032228D01*
X85055171Y-55029474D01*
X85055583Y-55000000D01*
X85035480Y-54794970D01*
X85030927Y-54779888D01*
X84978625Y-54606659D01*
X84975935Y-54597749D01*
X84879218Y-54415849D01*
X84749011Y-54256200D01*
X84590275Y-54124882D01*
X84409055Y-54026897D01*
X84345855Y-54007333D01*
X84216875Y-53967407D01*
X84216871Y-53967406D01*
X84212254Y-53965977D01*
X84207446Y-53965472D01*
X84207443Y-53965471D01*
X84012185Y-53944949D01*
X84012183Y-53944949D01*
X84007369Y-53944443D01*
X83947354Y-53949905D01*
X83807022Y-53962675D01*
X83807017Y-53962676D01*
X83802203Y-53963114D01*
X83604572Y-54021280D01*
X83600288Y-54023519D01*
X83600287Y-54023520D01*
X83589428Y-54029197D01*
X83422002Y-54116726D01*
X83418231Y-54119758D01*
X83265220Y-54242781D01*
X83265217Y-54242783D01*
X83261447Y-54245815D01*
X83258333Y-54249526D01*
X83258332Y-54249527D01*
X83135529Y-54395878D01*
X83129024Y-54403630D01*
X83126689Y-54407878D01*
X83126688Y-54407879D01*
X83121432Y-54417440D01*
X83029776Y-54584162D01*
X83028313Y-54588775D01*
X83028311Y-54588779D01*
X83002313Y-54670736D01*
X82967484Y-54780532D01*
X82966944Y-54785344D01*
X82966944Y-54785345D01*
X82959729Y-54849674D01*
X82944520Y-54985262D01*
X82200000Y-54985262D01*
X82200000Y-53889743D01*
X97800000Y-53889743D01*
X97800359Y-53895699D01*
X97810090Y-53976113D01*
X97813195Y-53988340D01*
X97863842Y-54116260D01*
X97870408Y-54127913D01*
X97953352Y-54237186D01*
X97962814Y-54246648D01*
X98072087Y-54329592D01*
X98083740Y-54336158D01*
X98211660Y-54386805D01*
X98223887Y-54389910D01*
X98304301Y-54399641D01*
X98310257Y-54400000D01*
X98834320Y-54400000D01*
X98847005Y-54395878D01*
X98850000Y-54391757D01*
X98850000Y-54384320D01*
X99150000Y-54384320D01*
X99154122Y-54397005D01*
X99158243Y-54400000D01*
X99689743Y-54400000D01*
X99695699Y-54399641D01*
X99776113Y-54389910D01*
X99788340Y-54386805D01*
X99916260Y-54336158D01*
X99927913Y-54329592D01*
X100037186Y-54246648D01*
X100046648Y-54237186D01*
X100129592Y-54127913D01*
X100136158Y-54116260D01*
X100186805Y-53988340D01*
X100189910Y-53976113D01*
X100199641Y-53895699D01*
X100200000Y-53889743D01*
X100200000Y-53603180D01*
X100195878Y-53590495D01*
X100191757Y-53587500D01*
X99165680Y-53587500D01*
X99152995Y-53591622D01*
X99150000Y-53595743D01*
X99150000Y-54384320D01*
X98850000Y-54384320D01*
X98850000Y-53603180D01*
X98845878Y-53590495D01*
X98841757Y-53587500D01*
X97815680Y-53587500D01*
X97802995Y-53591622D01*
X97800000Y-53595743D01*
X97800000Y-53889743D01*
X82200000Y-53889743D01*
X82200000Y-52619405D01*
X82857898Y-52619405D01*
X82858995Y-52636145D01*
X82860408Y-52645064D01*
X82910200Y-52841121D01*
X82913220Y-52849649D01*
X82997904Y-53033341D01*
X83002422Y-53041167D01*
X83119171Y-53206363D01*
X83125035Y-53213229D01*
X83269931Y-53354381D01*
X83276954Y-53360068D01*
X83445138Y-53472446D01*
X83453093Y-53476764D01*
X83638929Y-53556606D01*
X83647540Y-53559404D01*
X83839830Y-53602914D01*
X83847167Y-53600840D01*
X83849787Y-53597514D01*
X83850000Y-53596317D01*
X83850000Y-53584679D01*
X84150000Y-53584679D01*
X84154122Y-53597364D01*
X84155292Y-53598215D01*
X84161272Y-53598725D01*
X84265115Y-53583668D01*
X84273914Y-53581556D01*
X84465450Y-53516538D01*
X84473714Y-53512858D01*
X84650194Y-53414026D01*
X84657652Y-53408900D01*
X84813157Y-53279568D01*
X84819568Y-53273157D01*
X84948900Y-53117652D01*
X84954026Y-53110194D01*
X85052858Y-52933714D01*
X85056538Y-52925450D01*
X85121556Y-52733914D01*
X85123668Y-52725115D01*
X85138109Y-52625518D01*
X85137059Y-52619405D01*
X85397898Y-52619405D01*
X85398995Y-52636145D01*
X85400408Y-52645064D01*
X85450200Y-52841121D01*
X85453220Y-52849649D01*
X85537904Y-53033341D01*
X85542422Y-53041167D01*
X85659171Y-53206363D01*
X85665035Y-53213229D01*
X85809931Y-53354381D01*
X85816954Y-53360068D01*
X85985138Y-53472446D01*
X85993093Y-53476764D01*
X86178929Y-53556606D01*
X86187540Y-53559404D01*
X86379830Y-53602914D01*
X86387167Y-53600840D01*
X86389787Y-53597514D01*
X86390000Y-53596317D01*
X86390000Y-53584679D01*
X86690000Y-53584679D01*
X86694122Y-53597364D01*
X86695292Y-53598215D01*
X86701272Y-53598725D01*
X86805115Y-53583668D01*
X86813914Y-53581556D01*
X87005450Y-53516538D01*
X87013714Y-53512858D01*
X87190194Y-53414026D01*
X87197652Y-53408900D01*
X87353157Y-53279568D01*
X87359568Y-53273157D01*
X87360680Y-53271820D01*
X97800000Y-53271820D01*
X97804122Y-53284505D01*
X97808243Y-53287500D01*
X98834320Y-53287500D01*
X98847005Y-53283378D01*
X98850000Y-53279257D01*
X98850000Y-53271820D01*
X99150000Y-53271820D01*
X99154122Y-53284505D01*
X99158243Y-53287500D01*
X100184320Y-53287500D01*
X100197005Y-53283378D01*
X100200000Y-53279257D01*
X100200000Y-52985257D01*
X100199641Y-52979301D01*
X100189910Y-52898887D01*
X100186805Y-52886660D01*
X100136158Y-52758740D01*
X100129592Y-52747087D01*
X100046648Y-52637814D01*
X100037186Y-52628352D01*
X99927913Y-52545408D01*
X99916260Y-52538842D01*
X99788340Y-52488195D01*
X99776113Y-52485090D01*
X99695699Y-52475359D01*
X99689743Y-52475000D01*
X99165680Y-52475000D01*
X99152995Y-52479122D01*
X99150000Y-52483243D01*
X99150000Y-53271820D01*
X98850000Y-53271820D01*
X98850000Y-52490680D01*
X98845878Y-52477995D01*
X98841757Y-52475000D01*
X98310257Y-52475000D01*
X98304301Y-52475359D01*
X98223887Y-52485090D01*
X98211660Y-52488195D01*
X98083740Y-52538842D01*
X98072087Y-52545408D01*
X97962814Y-52628352D01*
X97953352Y-52637814D01*
X97870408Y-52747087D01*
X97863842Y-52758740D01*
X97813195Y-52886660D01*
X97810090Y-52898887D01*
X97800359Y-52979301D01*
X97800000Y-52985257D01*
X97800000Y-53271820D01*
X87360680Y-53271820D01*
X87488900Y-53117652D01*
X87494026Y-53110194D01*
X87592858Y-52933714D01*
X87596538Y-52925450D01*
X87661556Y-52733914D01*
X87663668Y-52725115D01*
X87678109Y-52625518D01*
X87675850Y-52612372D01*
X87674815Y-52611363D01*
X87668968Y-52610000D01*
X86705680Y-52610000D01*
X86692995Y-52614122D01*
X86690000Y-52618243D01*
X86690000Y-53584679D01*
X86390000Y-53584679D01*
X86390000Y-52625680D01*
X86385878Y-52612995D01*
X86381757Y-52610000D01*
X85412962Y-52610000D01*
X85400277Y-52614122D01*
X85398202Y-52616978D01*
X85397898Y-52619405D01*
X85137059Y-52619405D01*
X85135850Y-52612372D01*
X85134815Y-52611363D01*
X85128968Y-52610000D01*
X84165680Y-52610000D01*
X84152995Y-52614122D01*
X84150000Y-52618243D01*
X84150000Y-53584679D01*
X83850000Y-53584679D01*
X83850000Y-52625680D01*
X83845878Y-52612995D01*
X83841757Y-52610000D01*
X82872962Y-52610000D01*
X82860277Y-52614122D01*
X82858202Y-52616978D01*
X82857898Y-52619405D01*
X82200000Y-52619405D01*
X82200000Y-52294428D01*
X82861487Y-52294428D01*
X82864090Y-52307511D01*
X82865663Y-52308965D01*
X82870378Y-52310000D01*
X83834320Y-52310000D01*
X83847005Y-52305878D01*
X83850000Y-52301757D01*
X83850000Y-52294320D01*
X84150000Y-52294320D01*
X84154122Y-52307005D01*
X84158243Y-52310000D01*
X85125464Y-52310000D01*
X85138149Y-52305878D01*
X85139818Y-52303582D01*
X85140222Y-52299966D01*
X85139713Y-52294428D01*
X85401487Y-52294428D01*
X85404090Y-52307511D01*
X85405663Y-52308965D01*
X85410378Y-52310000D01*
X86374320Y-52310000D01*
X86387005Y-52305878D01*
X86390000Y-52301757D01*
X86390000Y-52294320D01*
X86690000Y-52294320D01*
X86694122Y-52307005D01*
X86698243Y-52310000D01*
X87665464Y-52310000D01*
X87678149Y-52305878D01*
X87679818Y-52303582D01*
X87680222Y-52299966D01*
X87676003Y-52254048D01*
X87674356Y-52245164D01*
X87619449Y-52050481D01*
X87616208Y-52042037D01*
X87526745Y-51860624D01*
X87522020Y-51852914D01*
X87400994Y-51690840D01*
X87394945Y-51684122D01*
X87246405Y-51546814D01*
X87239240Y-51541315D01*
X87068163Y-51433374D01*
X87060110Y-51429271D01*
X86872229Y-51354314D01*
X86863571Y-51351749D01*
X86705379Y-51320283D01*
X86692132Y-51321851D01*
X86692100Y-51321881D01*
X86690000Y-51329928D01*
X86690000Y-52294320D01*
X86390000Y-52294320D01*
X86390000Y-51334517D01*
X86385878Y-51321832D01*
X86385274Y-51321393D01*
X86378127Y-51320877D01*
X86245559Y-51343657D01*
X86236823Y-51345998D01*
X86047050Y-51416009D01*
X86038887Y-51419902D01*
X85865047Y-51523326D01*
X85857745Y-51528631D01*
X85705657Y-51662010D01*
X85699434Y-51668568D01*
X85574209Y-51827415D01*
X85569284Y-51834998D01*
X85475097Y-52014018D01*
X85471643Y-52022358D01*
X85411658Y-52215538D01*
X85409777Y-52224389D01*
X85401487Y-52294428D01*
X85139713Y-52294428D01*
X85136003Y-52254048D01*
X85134356Y-52245164D01*
X85079449Y-52050481D01*
X85076208Y-52042037D01*
X84986745Y-51860624D01*
X84982020Y-51852914D01*
X84860994Y-51690840D01*
X84854945Y-51684122D01*
X84706405Y-51546814D01*
X84699240Y-51541315D01*
X84528163Y-51433374D01*
X84520110Y-51429271D01*
X84332229Y-51354314D01*
X84323571Y-51351749D01*
X84165379Y-51320283D01*
X84152132Y-51321851D01*
X84152100Y-51321881D01*
X84150000Y-51329928D01*
X84150000Y-52294320D01*
X83850000Y-52294320D01*
X83850000Y-51334517D01*
X83845878Y-51321832D01*
X83845274Y-51321393D01*
X83838127Y-51320877D01*
X83705559Y-51343657D01*
X83696823Y-51345998D01*
X83507050Y-51416009D01*
X83498887Y-51419902D01*
X83325047Y-51523326D01*
X83317745Y-51528631D01*
X83165657Y-51662010D01*
X83159434Y-51668568D01*
X83034209Y-51827415D01*
X83029284Y-51834998D01*
X82935097Y-52014018D01*
X82931643Y-52022358D01*
X82871658Y-52215538D01*
X82869777Y-52224389D01*
X82861487Y-52294428D01*
X82200000Y-52294428D01*
X82200000Y-49299000D01*
X82218907Y-49240809D01*
X82268407Y-49204845D01*
X82299000Y-49200000D01*
X90094123Y-49200000D01*
X90145449Y-49200045D01*
X90155498Y-49195219D01*
X90155500Y-49195219D01*
X90156341Y-49194815D01*
X90177183Y-49187537D01*
X90178093Y-49187330D01*
X90178096Y-49187328D01*
X90188962Y-49184850D01*
X90198210Y-49177480D01*
X90217046Y-49165666D01*
X90217653Y-49165375D01*
X90217657Y-49165372D01*
X90227705Y-49160547D01*
X90235254Y-49151107D01*
X90250872Y-49135516D01*
X90260323Y-49127985D01*
X90265459Y-49117337D01*
X90277308Y-49098522D01*
X90277730Y-49097995D01*
X90277732Y-49097990D01*
X90284694Y-49089285D01*
X90287402Y-49077508D01*
X90294715Y-49056682D01*
X90295123Y-49055836D01*
X90299965Y-49045798D01*
X90299985Y-49022787D01*
X90301730Y-49022789D01*
X90301724Y-49022723D01*
X90300000Y-49022723D01*
X90300000Y-49005877D01*
X90300005Y-49000000D01*
X91394318Y-49000000D01*
X91414956Y-49156762D01*
X91475464Y-49302841D01*
X91571718Y-49428282D01*
X91576871Y-49432236D01*
X91644227Y-49483920D01*
X91653964Y-49492458D01*
X91673357Y-49511851D01*
X91676051Y-49514654D01*
X91710124Y-49551515D01*
X91710127Y-49551517D01*
X91715146Y-49556947D01*
X91721210Y-49560469D01*
X91728535Y-49567029D01*
X93456990Y-51295484D01*
X93464731Y-51304196D01*
X93486737Y-51332110D01*
X93492824Y-51336317D01*
X93535350Y-51365708D01*
X93537881Y-51367517D01*
X93579470Y-51398236D01*
X93579472Y-51398237D01*
X93585425Y-51402634D01*
X93592241Y-51405027D01*
X93598178Y-51409131D01*
X93605237Y-51411364D01*
X93605238Y-51411364D01*
X93625582Y-51417798D01*
X93654538Y-51426956D01*
X93657423Y-51427918D01*
X93713240Y-51447519D01*
X93719282Y-51447756D01*
X93721956Y-51448277D01*
X93727339Y-51449980D01*
X93733946Y-51450500D01*
X93787150Y-51450500D01*
X93791037Y-51450576D01*
X93848603Y-51452838D01*
X93855382Y-51451041D01*
X93865202Y-51450500D01*
X96567067Y-51450500D01*
X96627335Y-51470958D01*
X96697159Y-51524536D01*
X96843238Y-51585044D01*
X97000000Y-51605682D01*
X97156762Y-51585044D01*
X97302841Y-51524536D01*
X97372665Y-51470958D01*
X97432933Y-51450500D01*
X102567067Y-51450500D01*
X102627335Y-51470958D01*
X102697159Y-51524536D01*
X102843238Y-51585044D01*
X103000000Y-51605682D01*
X103156762Y-51585044D01*
X103302841Y-51524536D01*
X103372665Y-51470958D01*
X103432933Y-51450500D01*
X108567067Y-51450500D01*
X108627335Y-51470958D01*
X108697159Y-51524536D01*
X108843238Y-51585044D01*
X109000000Y-51605682D01*
X109156762Y-51585044D01*
X109302841Y-51524536D01*
X109372665Y-51470958D01*
X109432933Y-51450500D01*
X114567067Y-51450500D01*
X114627335Y-51470958D01*
X114697159Y-51524536D01*
X114843238Y-51585044D01*
X115000000Y-51605682D01*
X115156762Y-51585044D01*
X115302841Y-51524536D01*
X115428282Y-51428282D01*
X115524536Y-51302841D01*
X115585044Y-51156762D01*
X115605682Y-51000000D01*
X115585044Y-50843238D01*
X115524536Y-50697159D01*
X115428282Y-50571718D01*
X115302841Y-50475464D01*
X115156762Y-50414956D01*
X115000000Y-50394318D01*
X114843238Y-50414956D01*
X114697159Y-50475464D01*
X114692010Y-50479415D01*
X114627334Y-50529042D01*
X114567067Y-50549500D01*
X109432933Y-50549500D01*
X109372666Y-50529042D01*
X109307990Y-50479415D01*
X109302841Y-50475464D01*
X109156762Y-50414956D01*
X109000000Y-50394318D01*
X108843238Y-50414956D01*
X108697159Y-50475464D01*
X108692010Y-50479415D01*
X108627334Y-50529042D01*
X108567067Y-50549500D01*
X103432933Y-50549500D01*
X103372666Y-50529042D01*
X103307990Y-50479415D01*
X103302841Y-50475464D01*
X103156762Y-50414956D01*
X103000000Y-50394318D01*
X102843238Y-50414956D01*
X102697159Y-50475464D01*
X102692010Y-50479415D01*
X102627334Y-50529042D01*
X102567067Y-50549500D01*
X100199500Y-50549500D01*
X100141309Y-50530593D01*
X100105345Y-50481093D01*
X100100500Y-50450500D01*
X100100500Y-50096166D01*
X100097519Y-50064631D01*
X100052634Y-49936816D01*
X99972150Y-49827850D01*
X99863184Y-49747366D01*
X99735369Y-49702481D01*
X99729362Y-49701913D01*
X99729361Y-49701913D01*
X99706145Y-49699718D01*
X99706135Y-49699718D01*
X99703834Y-49699500D01*
X98296166Y-49699500D01*
X98293865Y-49699718D01*
X98293855Y-49699718D01*
X98270639Y-49701913D01*
X98270638Y-49701913D01*
X98264631Y-49702481D01*
X98136816Y-49747366D01*
X98027850Y-49827850D01*
X97947366Y-49936816D01*
X97902481Y-50064631D01*
X97899500Y-50096166D01*
X97899500Y-50450500D01*
X97880593Y-50508691D01*
X97831093Y-50544655D01*
X97800500Y-50549500D01*
X97432933Y-50549500D01*
X97372666Y-50529042D01*
X97307990Y-50479415D01*
X97302841Y-50475464D01*
X97156762Y-50414956D01*
X97000000Y-50394318D01*
X96843238Y-50414956D01*
X96697159Y-50475464D01*
X96692010Y-50479415D01*
X96627334Y-50529042D01*
X96567067Y-50549500D01*
X94026220Y-50549500D01*
X93968029Y-50530593D01*
X93956216Y-50520504D01*
X93165359Y-49729647D01*
X93137582Y-49675130D01*
X93147153Y-49614698D01*
X93190418Y-49571433D01*
X93197471Y-49568182D01*
X93302841Y-49524536D01*
X93428282Y-49428282D01*
X93477429Y-49364233D01*
X93527852Y-49329577D01*
X93555970Y-49325500D01*
X116444030Y-49325500D01*
X116502221Y-49344407D01*
X116522571Y-49364232D01*
X116571718Y-49428282D01*
X116697159Y-49524536D01*
X116843238Y-49585044D01*
X117000000Y-49605682D01*
X117156762Y-49585044D01*
X117302841Y-49524536D01*
X117428282Y-49428282D01*
X117524536Y-49302841D01*
X117585044Y-49156762D01*
X117605682Y-49000000D01*
X117585044Y-48843238D01*
X117524536Y-48697159D01*
X117428282Y-48571718D01*
X117302841Y-48475464D01*
X117156762Y-48414956D01*
X117020410Y-48397005D01*
X117006434Y-48395165D01*
X117000000Y-48394318D01*
X116993566Y-48395165D01*
X116979590Y-48397005D01*
X116843238Y-48414956D01*
X116697159Y-48475464D01*
X116571718Y-48571718D01*
X116567764Y-48576871D01*
X116522572Y-48635767D01*
X116472148Y-48670423D01*
X116444030Y-48674500D01*
X93555970Y-48674500D01*
X93497779Y-48655593D01*
X93477428Y-48635767D01*
X93432236Y-48576871D01*
X93428282Y-48571718D01*
X93302841Y-48475464D01*
X93156762Y-48414956D01*
X93020410Y-48397005D01*
X93006434Y-48395165D01*
X93000000Y-48394318D01*
X92993566Y-48395165D01*
X92979590Y-48397005D01*
X92843238Y-48414956D01*
X92697159Y-48475464D01*
X92571718Y-48571718D01*
X92569148Y-48575067D01*
X92515487Y-48602408D01*
X92455055Y-48592837D01*
X92431174Y-48575487D01*
X92428282Y-48571718D01*
X92302841Y-48475464D01*
X92156762Y-48414956D01*
X92020410Y-48397005D01*
X92006434Y-48395165D01*
X92000000Y-48394318D01*
X91993566Y-48395165D01*
X91979590Y-48397005D01*
X91843238Y-48414956D01*
X91697159Y-48475464D01*
X91571718Y-48571718D01*
X91475464Y-48697159D01*
X91414956Y-48843238D01*
X91394318Y-49000000D01*
X90300005Y-49000000D01*
X90300045Y-48954840D01*
X90300045Y-48954551D01*
X90300003Y-48954463D01*
X90300000Y-48954439D01*
X90300000Y-47889743D01*
X97800000Y-47889743D01*
X97800359Y-47895699D01*
X97810090Y-47976113D01*
X97813195Y-47988340D01*
X97863842Y-48116260D01*
X97870408Y-48127913D01*
X97953352Y-48237186D01*
X97962814Y-48246648D01*
X98072087Y-48329592D01*
X98083740Y-48336158D01*
X98211660Y-48386805D01*
X98223887Y-48389910D01*
X98304301Y-48399641D01*
X98310257Y-48400000D01*
X98834320Y-48400000D01*
X98847005Y-48395878D01*
X98850000Y-48391757D01*
X98850000Y-48384320D01*
X99150000Y-48384320D01*
X99154122Y-48397005D01*
X99158243Y-48400000D01*
X99689743Y-48400000D01*
X99695699Y-48399641D01*
X99776113Y-48389910D01*
X99788340Y-48386805D01*
X99916260Y-48336158D01*
X99927913Y-48329592D01*
X100037186Y-48246648D01*
X100046648Y-48237186D01*
X100129592Y-48127913D01*
X100136158Y-48116260D01*
X100186805Y-47988340D01*
X100189910Y-47976113D01*
X100199641Y-47895699D01*
X100200000Y-47889743D01*
X100200000Y-47603180D01*
X100195878Y-47590495D01*
X100191757Y-47587500D01*
X99165680Y-47587500D01*
X99152995Y-47591622D01*
X99150000Y-47595743D01*
X99150000Y-48384320D01*
X98850000Y-48384320D01*
X98850000Y-47603180D01*
X98845878Y-47590495D01*
X98841757Y-47587500D01*
X97815680Y-47587500D01*
X97802995Y-47591622D01*
X97800000Y-47595743D01*
X97800000Y-47889743D01*
X90300000Y-47889743D01*
X90300000Y-47271820D01*
X97800000Y-47271820D01*
X97804122Y-47284505D01*
X97808243Y-47287500D01*
X98834320Y-47287500D01*
X98847005Y-47283378D01*
X98850000Y-47279257D01*
X98850000Y-47271820D01*
X99150000Y-47271820D01*
X99154122Y-47284505D01*
X99158243Y-47287500D01*
X100184320Y-47287500D01*
X100197005Y-47283378D01*
X100200000Y-47279257D01*
X100200000Y-46985257D01*
X100199641Y-46979301D01*
X100189910Y-46898887D01*
X100186805Y-46886660D01*
X100136158Y-46758740D01*
X100129592Y-46747087D01*
X100046648Y-46637814D01*
X100037186Y-46628352D01*
X99927913Y-46545408D01*
X99916260Y-46538842D01*
X99788340Y-46488195D01*
X99776113Y-46485090D01*
X99695699Y-46475359D01*
X99689743Y-46475000D01*
X99165680Y-46475000D01*
X99152995Y-46479122D01*
X99150000Y-46483243D01*
X99150000Y-47271820D01*
X98850000Y-47271820D01*
X98850000Y-46490680D01*
X98845878Y-46477995D01*
X98841757Y-46475000D01*
X98310257Y-46475000D01*
X98304301Y-46475359D01*
X98223887Y-46485090D01*
X98211660Y-46488195D01*
X98083740Y-46538842D01*
X98072087Y-46545408D01*
X97962814Y-46628352D01*
X97953352Y-46637814D01*
X97870408Y-46747087D01*
X97863842Y-46758740D01*
X97813195Y-46886660D01*
X97810090Y-46898887D01*
X97800359Y-46979301D01*
X97800000Y-46985257D01*
X97800000Y-47271820D01*
X90300000Y-47271820D01*
X90300000Y-43000000D01*
X91394318Y-43000000D01*
X91414956Y-43156762D01*
X91475464Y-43302841D01*
X91571718Y-43428282D01*
X91576871Y-43432236D01*
X91644227Y-43483920D01*
X91653964Y-43492458D01*
X91673357Y-43511851D01*
X91676051Y-43514654D01*
X91710124Y-43551515D01*
X91710127Y-43551517D01*
X91715146Y-43556947D01*
X91721210Y-43560469D01*
X91728535Y-43567029D01*
X93456990Y-45295484D01*
X93464731Y-45304196D01*
X93486737Y-45332110D01*
X93492824Y-45336317D01*
X93535350Y-45365708D01*
X93537881Y-45367517D01*
X93579470Y-45398236D01*
X93579472Y-45398237D01*
X93585425Y-45402634D01*
X93592241Y-45405027D01*
X93598178Y-45409131D01*
X93605237Y-45411364D01*
X93605238Y-45411364D01*
X93625582Y-45417798D01*
X93654538Y-45426956D01*
X93657423Y-45427918D01*
X93713240Y-45447519D01*
X93719282Y-45447756D01*
X93721956Y-45448277D01*
X93727339Y-45449980D01*
X93733946Y-45450500D01*
X93787150Y-45450500D01*
X93791037Y-45450576D01*
X93848603Y-45452838D01*
X93855382Y-45451041D01*
X93865202Y-45450500D01*
X96567067Y-45450500D01*
X96627335Y-45470958D01*
X96697159Y-45524536D01*
X96843238Y-45585044D01*
X97000000Y-45605682D01*
X97156762Y-45585044D01*
X97302841Y-45524536D01*
X97372665Y-45470958D01*
X97432933Y-45450500D01*
X102567067Y-45450500D01*
X102627335Y-45470958D01*
X102697159Y-45524536D01*
X102843238Y-45585044D01*
X103000000Y-45605682D01*
X103156762Y-45585044D01*
X103302841Y-45524536D01*
X103372665Y-45470958D01*
X103432933Y-45450500D01*
X108567067Y-45450500D01*
X108627335Y-45470958D01*
X108697159Y-45524536D01*
X108843238Y-45585044D01*
X109000000Y-45605682D01*
X109156762Y-45585044D01*
X109302841Y-45524536D01*
X109372665Y-45470958D01*
X109432933Y-45450500D01*
X114567067Y-45450500D01*
X114627335Y-45470958D01*
X114697159Y-45524536D01*
X114843238Y-45585044D01*
X115000000Y-45605682D01*
X115156762Y-45585044D01*
X115302841Y-45524536D01*
X115428282Y-45428282D01*
X115524536Y-45302841D01*
X115585044Y-45156762D01*
X115605682Y-45000000D01*
X115585044Y-44843238D01*
X115524536Y-44697159D01*
X115428282Y-44571718D01*
X115302841Y-44475464D01*
X115156762Y-44414956D01*
X115000000Y-44394318D01*
X114843238Y-44414956D01*
X114697159Y-44475464D01*
X114692010Y-44479415D01*
X114627334Y-44529042D01*
X114567067Y-44549500D01*
X109432933Y-44549500D01*
X109372666Y-44529042D01*
X109307990Y-44479415D01*
X109302841Y-44475464D01*
X109156762Y-44414956D01*
X109000000Y-44394318D01*
X108843238Y-44414956D01*
X108697159Y-44475464D01*
X108692010Y-44479415D01*
X108627334Y-44529042D01*
X108567067Y-44549500D01*
X103432933Y-44549500D01*
X103372666Y-44529042D01*
X103307990Y-44479415D01*
X103302841Y-44475464D01*
X103156762Y-44414956D01*
X103000000Y-44394318D01*
X102843238Y-44414956D01*
X102697159Y-44475464D01*
X102692010Y-44479415D01*
X102627334Y-44529042D01*
X102567067Y-44549500D01*
X100199500Y-44549500D01*
X100141309Y-44530593D01*
X100105345Y-44481093D01*
X100100500Y-44450500D01*
X100100500Y-44096166D01*
X100097519Y-44064631D01*
X100052634Y-43936816D01*
X99972150Y-43827850D01*
X99863184Y-43747366D01*
X99735369Y-43702481D01*
X99729362Y-43701913D01*
X99729361Y-43701913D01*
X99706145Y-43699718D01*
X99706135Y-43699718D01*
X99703834Y-43699500D01*
X98296166Y-43699500D01*
X98293865Y-43699718D01*
X98293855Y-43699718D01*
X98270639Y-43701913D01*
X98270638Y-43701913D01*
X98264631Y-43702481D01*
X98136816Y-43747366D01*
X98027850Y-43827850D01*
X97947366Y-43936816D01*
X97902481Y-44064631D01*
X97899500Y-44096166D01*
X97899500Y-44450500D01*
X97880593Y-44508691D01*
X97831093Y-44544655D01*
X97800500Y-44549500D01*
X97432933Y-44549500D01*
X97372666Y-44529042D01*
X97307990Y-44479415D01*
X97302841Y-44475464D01*
X97156762Y-44414956D01*
X97000000Y-44394318D01*
X96843238Y-44414956D01*
X96697159Y-44475464D01*
X96692010Y-44479415D01*
X96627334Y-44529042D01*
X96567067Y-44549500D01*
X94026220Y-44549500D01*
X93968029Y-44530593D01*
X93956216Y-44520504D01*
X93165359Y-43729647D01*
X93137582Y-43675130D01*
X93147153Y-43614698D01*
X93190418Y-43571433D01*
X93197471Y-43568182D01*
X93302841Y-43524536D01*
X93428282Y-43428282D01*
X93477429Y-43364233D01*
X93527852Y-43329577D01*
X93555970Y-43325500D01*
X116444030Y-43325500D01*
X116502221Y-43344407D01*
X116522571Y-43364232D01*
X116571718Y-43428282D01*
X116697159Y-43524536D01*
X116843238Y-43585044D01*
X117000000Y-43605682D01*
X117156762Y-43585044D01*
X117302841Y-43524536D01*
X117428282Y-43428282D01*
X117524536Y-43302841D01*
X117585044Y-43156762D01*
X117605682Y-43000000D01*
X117585044Y-42843238D01*
X117524536Y-42697159D01*
X117428282Y-42571718D01*
X117302841Y-42475464D01*
X117156762Y-42414956D01*
X117020410Y-42397005D01*
X117006434Y-42395165D01*
X117000000Y-42394318D01*
X116993566Y-42395165D01*
X116979590Y-42397005D01*
X116843238Y-42414956D01*
X116697159Y-42475464D01*
X116571718Y-42571718D01*
X116567764Y-42576871D01*
X116522572Y-42635767D01*
X116472148Y-42670423D01*
X116444030Y-42674500D01*
X93555970Y-42674500D01*
X93497779Y-42655593D01*
X93477428Y-42635767D01*
X93432236Y-42576871D01*
X93428282Y-42571718D01*
X93302841Y-42475464D01*
X93156762Y-42414956D01*
X93020410Y-42397005D01*
X93006434Y-42395165D01*
X93000000Y-42394318D01*
X92993566Y-42395165D01*
X92979590Y-42397005D01*
X92843238Y-42414956D01*
X92697159Y-42475464D01*
X92571718Y-42571718D01*
X92569148Y-42575067D01*
X92515487Y-42602408D01*
X92455055Y-42592837D01*
X92431174Y-42575487D01*
X92428282Y-42571718D01*
X92302841Y-42475464D01*
X92156762Y-42414956D01*
X92020410Y-42397005D01*
X92006434Y-42395165D01*
X92000000Y-42394318D01*
X91993566Y-42395165D01*
X91979590Y-42397005D01*
X91843238Y-42414956D01*
X91697159Y-42475464D01*
X91571718Y-42571718D01*
X91475464Y-42697159D01*
X91414956Y-42843238D01*
X91394318Y-43000000D01*
X90300000Y-43000000D01*
X90300000Y-41889743D01*
X97800000Y-41889743D01*
X97800359Y-41895699D01*
X97810090Y-41976113D01*
X97813195Y-41988340D01*
X97863842Y-42116260D01*
X97870408Y-42127913D01*
X97953352Y-42237186D01*
X97962814Y-42246648D01*
X98072087Y-42329592D01*
X98083740Y-42336158D01*
X98211660Y-42386805D01*
X98223887Y-42389910D01*
X98304301Y-42399641D01*
X98310257Y-42400000D01*
X98834320Y-42400000D01*
X98847005Y-42395878D01*
X98850000Y-42391757D01*
X98850000Y-42384320D01*
X99150000Y-42384320D01*
X99154122Y-42397005D01*
X99158243Y-42400000D01*
X99689743Y-42400000D01*
X99695699Y-42399641D01*
X99776113Y-42389910D01*
X99788340Y-42386805D01*
X99916260Y-42336158D01*
X99927913Y-42329592D01*
X100037186Y-42246648D01*
X100046648Y-42237186D01*
X100129592Y-42127913D01*
X100136158Y-42116260D01*
X100186805Y-41988340D01*
X100189910Y-41976113D01*
X100199641Y-41895699D01*
X100200000Y-41889743D01*
X100200000Y-41603180D01*
X100195878Y-41590495D01*
X100191757Y-41587500D01*
X99165680Y-41587500D01*
X99152995Y-41591622D01*
X99150000Y-41595743D01*
X99150000Y-42384320D01*
X98850000Y-42384320D01*
X98850000Y-41603180D01*
X98845878Y-41590495D01*
X98841757Y-41587500D01*
X97815680Y-41587500D01*
X97802995Y-41591622D01*
X97800000Y-41595743D01*
X97800000Y-41889743D01*
X90300000Y-41889743D01*
X90300000Y-40399000D01*
X90318907Y-40340809D01*
X90368407Y-40304845D01*
X90399000Y-40300000D01*
X98168010Y-40300000D01*
X98226201Y-40318907D01*
G37*
%TD.AperFunction*%
%TD*%
M02*
