M48
; DRILL file {KiCad 6.0.2-378541a8eb~116~ubuntu18.04.1} date 2022年03月16日 16時53分39秒
; FORMAT={-:-/ absolute / inch / decimal}
; #@! TF.CreationDate,2022-03-16T16:53:39+09:00
; #@! TF.GenerationSoftware,Kicad,Pcbnew,6.0.2-378541a8eb~116~ubuntu18.04.1
; #@! TF.FileFunction,Plated,1,2,PTH
FMAT,2
INCH
; #@! TA.AperFunction,Plated,PTH,ViaDrill
T1C0.0157
; #@! TA.AperFunction,Plated,PTH,ComponentDrill
T2C0.0394
%
G90
G05
T1
X3.622Y-1.6929
X3.622Y-1.9291
X3.622Y-2.1654
X3.622Y-2.4016
X3.622Y-2.6378
X3.6614Y-1.6929
X3.6614Y-1.9291
X3.6614Y-2.1654
X3.6614Y-2.4016
X3.7402Y-1.6142
X3.7402Y-1.8504
X3.7402Y-2.0866
X3.7402Y-2.3228
X3.8189Y-1.7717
X3.8189Y-2.0079
X3.8189Y-2.2441
X3.8189Y-2.4803
X3.8189Y-2.7165
X3.9764Y-1.6142
X3.9764Y-1.8504
X3.9764Y-2.0866
X3.9764Y-2.3228
X3.9764Y-2.5591
X4.0551Y-1.7717
X4.0551Y-2.0079
X4.0551Y-2.2441
X4.0551Y-2.4803
X4.0551Y-2.7165
X4.2126Y-1.6142
X4.2126Y-1.8504
X4.2126Y-2.0866
X4.2126Y-2.3228
X4.2126Y-2.5591
X4.2913Y-1.7717
X4.2913Y-2.0079
X4.2913Y-2.2441
X4.2913Y-2.4803
X4.2913Y-2.7165
X4.4488Y-1.6142
X4.4488Y-1.8504
X4.4488Y-2.0866
X4.4488Y-2.3228
X4.4488Y-2.5591
X4.5276Y-1.7717
X4.5276Y-2.0079
X4.5276Y-2.2441
X4.5276Y-2.4803
X4.5276Y-2.7165
X4.6063Y-1.6929
X4.6063Y-1.9291
X4.6063Y-2.1654
X4.6063Y-2.4016
X4.6063Y-2.6378
X4.685Y-1.6142
X4.685Y-1.8504
X4.685Y-2.0866
X4.685Y-2.3228
X4.685Y-2.5591
T2
X3.3071Y-2.0654
X3.3071Y-2.1654
X3.3071Y-2.2654
X3.4071Y-2.0654
X3.4071Y-2.1654
X3.4071Y-2.2654
T0
M30
