%TF.GenerationSoftware,KiCad,Pcbnew,6.0.2-378541a8eb~116~ubuntu18.04.1*%
%TF.CreationDate,2022-03-16T16:53:27+09:00*%
%TF.ProjectId,led_a,6c65645f-612e-46b6-9963-61645f706362,rev?*%
%TF.SameCoordinates,Original*%
%TF.FileFunction,Soldermask,Top*%
%TF.FilePolarity,Negative*%
%FSLAX46Y46*%
G04 Gerber Fmt 4.6, Leading zero omitted, Abs format (unit mm)*
G04 Created by KiCad (PCBNEW 6.0.2-378541a8eb~116~ubuntu18.04.1) date 2022-03-16 16:53:27*
%MOMM*%
%LPD*%
G01*
G04 APERTURE LIST*
%ADD10R,0.800000X2.000000*%
%ADD11R,1.700000X1.700000*%
%ADD12O,1.700000X1.700000*%
G04 APERTURE END LIST*
D10*
%TO.C,LD1*%
X92110000Y-44765000D03*
X93890000Y-44765000D03*
X93890000Y-41235000D03*
X92110000Y-41235000D03*
%TD*%
%TO.C,LD3*%
X104110000Y-44765000D03*
X105890000Y-44765000D03*
X105890000Y-41235000D03*
X104110000Y-41235000D03*
%TD*%
%TO.C,LD22*%
X98110000Y-68765000D03*
X99890000Y-68765000D03*
X99890000Y-65235000D03*
X98110000Y-65235000D03*
%TD*%
%TO.C,LD8*%
X104110000Y-50765000D03*
X105890000Y-50765000D03*
X105890000Y-47235000D03*
X104110000Y-47235000D03*
%TD*%
%TO.C,LD7*%
X98110000Y-50765000D03*
X99890000Y-50765000D03*
X99890000Y-47235000D03*
X98110000Y-47235000D03*
%TD*%
%TO.C,LD12*%
X98110000Y-56765000D03*
X99890000Y-56765000D03*
X99890000Y-53235000D03*
X98110000Y-53235000D03*
%TD*%
D11*
%TO.C,J1*%
X86540000Y-57540000D03*
D12*
X84000000Y-57540000D03*
X86540000Y-55000000D03*
X84000000Y-55000000D03*
X86540000Y-52460000D03*
X84000000Y-52460000D03*
%TD*%
D10*
%TO.C,LD4*%
X110110000Y-44765000D03*
X111890000Y-44765000D03*
X111890000Y-41235000D03*
X110110000Y-41235000D03*
%TD*%
%TO.C,LD5*%
X116110000Y-44765000D03*
X117890000Y-44765000D03*
X117890000Y-41235000D03*
X116110000Y-41235000D03*
%TD*%
%TO.C,LD2*%
X98110000Y-44765000D03*
X99890000Y-44765000D03*
X99890000Y-41235000D03*
X98110000Y-41235000D03*
%TD*%
%TO.C,LD16*%
X92110000Y-62765000D03*
X93890000Y-62765000D03*
X93890000Y-59235000D03*
X92110000Y-59235000D03*
%TD*%
%TO.C,LD18*%
X104110000Y-62875000D03*
X105890000Y-62875000D03*
X105890000Y-59345000D03*
X104110000Y-59345000D03*
%TD*%
%TO.C,LD25*%
X116110000Y-68765000D03*
X117890000Y-68765000D03*
X117890000Y-65235000D03*
X116110000Y-65235000D03*
%TD*%
%TO.C,LD10*%
X116110000Y-50765000D03*
X117890000Y-50765000D03*
X117890000Y-47235000D03*
X116110000Y-47235000D03*
%TD*%
%TO.C,LD6*%
X92110000Y-50765000D03*
X93890000Y-50765000D03*
X93890000Y-47235000D03*
X92110000Y-47235000D03*
%TD*%
%TO.C,LD17*%
X98110000Y-62765000D03*
X99890000Y-62765000D03*
X99890000Y-59235000D03*
X98110000Y-59235000D03*
%TD*%
%TO.C,LD24*%
X110110000Y-68765000D03*
X111890000Y-68765000D03*
X111890000Y-65235000D03*
X110110000Y-65235000D03*
%TD*%
%TO.C,LD14*%
X110110000Y-56765000D03*
X111890000Y-56765000D03*
X111890000Y-53235000D03*
X110110000Y-53235000D03*
%TD*%
%TO.C,LD23*%
X104110000Y-68765000D03*
X105890000Y-68765000D03*
X105890000Y-65235000D03*
X104110000Y-65235000D03*
%TD*%
%TO.C,LD13*%
X104110000Y-56765000D03*
X105890000Y-56765000D03*
X105890000Y-53235000D03*
X104110000Y-53235000D03*
%TD*%
%TO.C,LD9*%
X110110000Y-50765000D03*
X111890000Y-50765000D03*
X111890000Y-47235000D03*
X110110000Y-47235000D03*
%TD*%
%TO.C,LD15*%
X116110000Y-56765000D03*
X117890000Y-56765000D03*
X117890000Y-53235000D03*
X116110000Y-53235000D03*
%TD*%
%TO.C,LD20*%
X116110000Y-62765000D03*
X117890000Y-62765000D03*
X117890000Y-59235000D03*
X116110000Y-59235000D03*
%TD*%
%TO.C,LD19*%
X110110000Y-62765000D03*
X111890000Y-62765000D03*
X111890000Y-59235000D03*
X110110000Y-59235000D03*
%TD*%
%TO.C,LD11*%
X92110000Y-56765000D03*
X93890000Y-56765000D03*
X93890000Y-53235000D03*
X92110000Y-53235000D03*
%TD*%
%TO.C,LD21*%
X92110000Y-68765000D03*
X93890000Y-68765000D03*
X93890000Y-65235000D03*
X92110000Y-65235000D03*
%TD*%
M02*
