%TF.GenerationSoftware,KiCad,Pcbnew,6.0.2-378541a8eb~116~ubuntu18.04.1*%
%TF.CreationDate,2022-03-16T16:53:27+09:00*%
%TF.ProjectId,led_a,6c65645f-612e-46b6-9963-61645f706362,rev?*%
%TF.SameCoordinates,Original*%
%TF.FileFunction,Legend,Bot*%
%TF.FilePolarity,Positive*%
%FSLAX46Y46*%
G04 Gerber Fmt 4.6, Leading zero omitted, Abs format (unit mm)*
G04 Created by KiCad (PCBNEW 6.0.2-378541a8eb~116~ubuntu18.04.1) date 2022-03-16 16:53:27*
%MOMM*%
%LPD*%
G01*
G04 APERTURE LIST*
%ADD10C,0.150000*%
%ADD11C,0.250000*%
%ADD12C,0.120000*%
G04 APERTURE END LIST*
D10*
X92095238Y-42071428D02*
X92857142Y-42071428D01*
X92666666Y-42261904D02*
X92857142Y-42071428D01*
X92666666Y-41880952D01*
X91095238Y-42452380D02*
X91666666Y-42452380D01*
X91380952Y-42452380D02*
X91380952Y-41452380D01*
X91476190Y-41595238D01*
X91571428Y-41690476D01*
X91666666Y-41738095D01*
X90321428Y-52125000D02*
X90392857Y-52089285D01*
X90500000Y-52089285D01*
X90607142Y-52125000D01*
X90678571Y-52196428D01*
X90714285Y-52267857D01*
X90750000Y-52410714D01*
X90750000Y-52517857D01*
X90714285Y-52660714D01*
X90678571Y-52732142D01*
X90607142Y-52803571D01*
X90500000Y-52839285D01*
X90428571Y-52839285D01*
X90321428Y-52803571D01*
X90285714Y-52767857D01*
X90285714Y-52517857D01*
X90428571Y-52517857D01*
X89964285Y-52839285D02*
X89964285Y-52089285D01*
X89535714Y-52839285D01*
X89535714Y-52089285D01*
X89178571Y-52839285D02*
X89178571Y-52089285D01*
X89000000Y-52089285D01*
X88892857Y-52125000D01*
X88821428Y-52196428D01*
X88785714Y-52267857D01*
X88750000Y-52410714D01*
X88750000Y-52517857D01*
X88785714Y-52660714D01*
X88821428Y-52732142D01*
X88892857Y-52803571D01*
X89000000Y-52839285D01*
X89178571Y-52839285D01*
X87320000Y-59579285D02*
X87177142Y-59579285D01*
X87105714Y-59615000D01*
X87034285Y-59686428D01*
X86998571Y-59829285D01*
X86998571Y-60079285D01*
X87034285Y-60222142D01*
X87105714Y-60293571D01*
X87177142Y-60329285D01*
X87320000Y-60329285D01*
X87391428Y-60293571D01*
X87462857Y-60222142D01*
X87498571Y-60079285D01*
X87498571Y-59829285D01*
X87462857Y-59686428D01*
X87391428Y-59615000D01*
X87320000Y-59579285D01*
X86677142Y-59579285D02*
X86677142Y-60186428D01*
X86641428Y-60257857D01*
X86605714Y-60293571D01*
X86534285Y-60329285D01*
X86391428Y-60329285D01*
X86320000Y-60293571D01*
X86284285Y-60257857D01*
X86248571Y-60186428D01*
X86248571Y-59579285D01*
X85998571Y-59579285D02*
X85570000Y-59579285D01*
X85784285Y-60329285D02*
X85784285Y-59579285D01*
X118880952Y-67547619D02*
X118833333Y-67500000D01*
X118738095Y-67452380D01*
X118500000Y-67452380D01*
X118404761Y-67500000D01*
X118357142Y-67547619D01*
X118309523Y-67642857D01*
X118309523Y-67738095D01*
X118357142Y-67880952D01*
X118928571Y-68452380D01*
X118309523Y-68452380D01*
X117404761Y-67452380D02*
X117880952Y-67452380D01*
X117928571Y-67928571D01*
X117880952Y-67880952D01*
X117785714Y-67833333D01*
X117547619Y-67833333D01*
X117452380Y-67880952D01*
X117404761Y-67928571D01*
X117357142Y-68023809D01*
X117357142Y-68261904D01*
X117404761Y-68357142D01*
X117452380Y-68404761D01*
X117547619Y-68452380D01*
X117785714Y-68452380D01*
X117880952Y-68404761D01*
X117928571Y-68357142D01*
X116166666Y-68071428D02*
X116928571Y-68071428D01*
X116738095Y-68261904D02*
X116928571Y-68071428D01*
X116738095Y-67880952D01*
D11*
X115238095Y-61952380D02*
X115714285Y-61952380D01*
X115714285Y-60952380D01*
X114904761Y-61428571D02*
X114571428Y-61428571D01*
X114428571Y-61952380D02*
X114904761Y-61952380D01*
X114904761Y-60952380D01*
X114428571Y-60952380D01*
X114000000Y-61952380D02*
X114000000Y-60952380D01*
X113761904Y-60952380D01*
X113619047Y-61000000D01*
X113523809Y-61095238D01*
X113476190Y-61190476D01*
X113428571Y-61380952D01*
X113428571Y-61523809D01*
X113476190Y-61714285D01*
X113523809Y-61809523D01*
X113619047Y-61904761D01*
X113761904Y-61952380D01*
X114000000Y-61952380D01*
X112238095Y-61952380D02*
X112238095Y-61285714D01*
X112238095Y-61380952D02*
X112190476Y-61333333D01*
X112095238Y-61285714D01*
X111952380Y-61285714D01*
X111857142Y-61333333D01*
X111809523Y-61428571D01*
X111809523Y-61952380D01*
X111809523Y-61428571D02*
X111761904Y-61333333D01*
X111666666Y-61285714D01*
X111523809Y-61285714D01*
X111428571Y-61333333D01*
X111380952Y-61428571D01*
X111380952Y-61952380D01*
X110761904Y-61952380D02*
X110857142Y-61904761D01*
X110904761Y-61857142D01*
X110952380Y-61761904D01*
X110952380Y-61476190D01*
X110904761Y-61380952D01*
X110857142Y-61333333D01*
X110761904Y-61285714D01*
X110619047Y-61285714D01*
X110523809Y-61333333D01*
X110476190Y-61380952D01*
X110428571Y-61476190D01*
X110428571Y-61761904D01*
X110476190Y-61857142D01*
X110523809Y-61904761D01*
X110619047Y-61952380D01*
X110761904Y-61952380D01*
X109571428Y-61952380D02*
X109571428Y-60952380D01*
X109571428Y-61904761D02*
X109666666Y-61952380D01*
X109857142Y-61952380D01*
X109952380Y-61904761D01*
X110000000Y-61857142D01*
X110047619Y-61761904D01*
X110047619Y-61476190D01*
X110000000Y-61380952D01*
X109952380Y-61333333D01*
X109857142Y-61285714D01*
X109666666Y-61285714D01*
X109571428Y-61333333D01*
X108666666Y-61285714D02*
X108666666Y-61952380D01*
X109095238Y-61285714D02*
X109095238Y-61809523D01*
X109047619Y-61904761D01*
X108952380Y-61952380D01*
X108809523Y-61952380D01*
X108714285Y-61904761D01*
X108666666Y-61857142D01*
X108047619Y-61952380D02*
X108142857Y-61904761D01*
X108190476Y-61809523D01*
X108190476Y-60952380D01*
X107285714Y-61904761D02*
X107380952Y-61952380D01*
X107571428Y-61952380D01*
X107666666Y-61904761D01*
X107714285Y-61809523D01*
X107714285Y-61428571D01*
X107666666Y-61333333D01*
X107571428Y-61285714D01*
X107380952Y-61285714D01*
X107285714Y-61333333D01*
X107238095Y-61428571D01*
X107238095Y-61523809D01*
X107714285Y-61619047D01*
D10*
X90517857Y-55303571D02*
X90410714Y-55339285D01*
X90232142Y-55339285D01*
X90160714Y-55303571D01*
X90125000Y-55267857D01*
X90089285Y-55196428D01*
X90089285Y-55125000D01*
X90125000Y-55053571D01*
X90160714Y-55017857D01*
X90232142Y-54982142D01*
X90375000Y-54946428D01*
X90446428Y-54910714D01*
X90482142Y-54875000D01*
X90517857Y-54803571D01*
X90517857Y-54732142D01*
X90482142Y-54660714D01*
X90446428Y-54625000D01*
X90375000Y-54589285D01*
X90196428Y-54589285D01*
X90089285Y-54625000D01*
X89767857Y-55339285D02*
X89767857Y-54589285D01*
X89017857Y-54625000D02*
X89089285Y-54589285D01*
X89196428Y-54589285D01*
X89303571Y-54625000D01*
X89375000Y-54696428D01*
X89410714Y-54767857D01*
X89446428Y-54910714D01*
X89446428Y-55017857D01*
X89410714Y-55160714D01*
X89375000Y-55232142D01*
X89303571Y-55303571D01*
X89196428Y-55339285D01*
X89125000Y-55339285D01*
X89017857Y-55303571D01*
X88982142Y-55267857D01*
X88982142Y-55017857D01*
X89125000Y-55017857D01*
D11*
X117476190Y-60452380D02*
X117809523Y-59976190D01*
X118047619Y-60452380D02*
X118047619Y-59452380D01*
X117666666Y-59452380D01*
X117571428Y-59500000D01*
X117523809Y-59547619D01*
X117476190Y-59642857D01*
X117476190Y-59785714D01*
X117523809Y-59880952D01*
X117571428Y-59928571D01*
X117666666Y-59976190D01*
X118047619Y-59976190D01*
X117047619Y-60452380D02*
X117047619Y-59785714D01*
X117047619Y-59452380D02*
X117095238Y-59500000D01*
X117047619Y-59547619D01*
X117000000Y-59500000D01*
X117047619Y-59452380D01*
X117047619Y-59547619D01*
X116571428Y-59785714D02*
X116571428Y-60452380D01*
X116571428Y-59880952D02*
X116523809Y-59833333D01*
X116428571Y-59785714D01*
X116285714Y-59785714D01*
X116190476Y-59833333D01*
X116142857Y-59928571D01*
X116142857Y-60452380D01*
X115238095Y-60452380D02*
X115238095Y-59928571D01*
X115285714Y-59833333D01*
X115380952Y-59785714D01*
X115571428Y-59785714D01*
X115666666Y-59833333D01*
X115238095Y-60404761D02*
X115333333Y-60452380D01*
X115571428Y-60452380D01*
X115666666Y-60404761D01*
X115714285Y-60309523D01*
X115714285Y-60214285D01*
X115666666Y-60119047D01*
X115571428Y-60071428D01*
X115333333Y-60071428D01*
X115238095Y-60023809D01*
X114761904Y-60071428D02*
X114000000Y-60071428D01*
X113095238Y-60404761D02*
X113190476Y-60452380D01*
X113380952Y-60452380D01*
X113476190Y-60404761D01*
X113523809Y-60357142D01*
X113571428Y-60261904D01*
X113571428Y-59976190D01*
X113523809Y-59880952D01*
X113476190Y-59833333D01*
X113380952Y-59785714D01*
X113190476Y-59785714D01*
X113095238Y-59833333D01*
X112666666Y-60452380D02*
X112666666Y-59452380D01*
X112238095Y-60452380D02*
X112238095Y-59928571D01*
X112285714Y-59833333D01*
X112380952Y-59785714D01*
X112523809Y-59785714D01*
X112619047Y-59833333D01*
X112666666Y-59880952D01*
X111333333Y-60452380D02*
X111333333Y-59928571D01*
X111380952Y-59833333D01*
X111476190Y-59785714D01*
X111666666Y-59785714D01*
X111761904Y-59833333D01*
X111333333Y-60404761D02*
X111428571Y-60452380D01*
X111666666Y-60452380D01*
X111761904Y-60404761D01*
X111809523Y-60309523D01*
X111809523Y-60214285D01*
X111761904Y-60119047D01*
X111666666Y-60071428D01*
X111428571Y-60071428D01*
X111333333Y-60023809D01*
X110857142Y-59785714D02*
X110857142Y-60452380D01*
X110857142Y-59880952D02*
X110809523Y-59833333D01*
X110714285Y-59785714D01*
X110571428Y-59785714D01*
X110476190Y-59833333D01*
X110428571Y-59928571D01*
X110428571Y-60452380D01*
X109190476Y-60452380D02*
X109190476Y-59452380D01*
X109190476Y-59833333D02*
X109095238Y-59785714D01*
X108904761Y-59785714D01*
X108809523Y-59833333D01*
X108761904Y-59880952D01*
X108714285Y-59976190D01*
X108714285Y-60261904D01*
X108761904Y-60357142D01*
X108809523Y-60404761D01*
X108904761Y-60452380D01*
X109095238Y-60452380D01*
X109190476Y-60404761D01*
X108142857Y-60452380D02*
X108238095Y-60404761D01*
X108285714Y-60357142D01*
X108333333Y-60261904D01*
X108333333Y-59976190D01*
X108285714Y-59880952D01*
X108238095Y-59833333D01*
X108142857Y-59785714D01*
X108000000Y-59785714D01*
X107904761Y-59833333D01*
X107857142Y-59880952D01*
X107809523Y-59976190D01*
X107809523Y-60261904D01*
X107857142Y-60357142D01*
X107904761Y-60404761D01*
X108000000Y-60452380D01*
X108142857Y-60452380D01*
X106952380Y-60452380D02*
X106952380Y-59928571D01*
X107000000Y-59833333D01*
X107095238Y-59785714D01*
X107285714Y-59785714D01*
X107380952Y-59833333D01*
X106952380Y-60404761D02*
X107047619Y-60452380D01*
X107285714Y-60452380D01*
X107380952Y-60404761D01*
X107428571Y-60309523D01*
X107428571Y-60214285D01*
X107380952Y-60119047D01*
X107285714Y-60071428D01*
X107047619Y-60071428D01*
X106952380Y-60023809D01*
X106476190Y-60452380D02*
X106476190Y-59785714D01*
X106476190Y-59976190D02*
X106428571Y-59880952D01*
X106380952Y-59833333D01*
X106285714Y-59785714D01*
X106190476Y-59785714D01*
X105428571Y-60452380D02*
X105428571Y-59452380D01*
X105428571Y-60404761D02*
X105523809Y-60452380D01*
X105714285Y-60452380D01*
X105809523Y-60404761D01*
X105857142Y-60357142D01*
X105904761Y-60261904D01*
X105904761Y-59976190D01*
X105857142Y-59880952D01*
X105809523Y-59833333D01*
X105714285Y-59785714D01*
X105523809Y-59785714D01*
X105428571Y-59833333D01*
X104952380Y-60357142D02*
X104904761Y-60404761D01*
X104952380Y-60452380D01*
X105000000Y-60404761D01*
X104952380Y-60357142D01*
X104952380Y-60452380D01*
X104952380Y-60071428D02*
X105000000Y-59500000D01*
X104952380Y-59452380D01*
X104904761Y-59500000D01*
X104952380Y-60071428D01*
X104952380Y-59452380D01*
X112738095Y-63452380D02*
X113071428Y-62976190D01*
X113309523Y-63452380D02*
X113309523Y-62452380D01*
X112928571Y-62452380D01*
X112833333Y-62500000D01*
X112785714Y-62547619D01*
X112738095Y-62642857D01*
X112738095Y-62785714D01*
X112785714Y-62880952D01*
X112833333Y-62928571D01*
X112928571Y-62976190D01*
X113309523Y-62976190D01*
X111928571Y-63404761D02*
X112023809Y-63452380D01*
X112214285Y-63452380D01*
X112309523Y-63404761D01*
X112357142Y-63309523D01*
X112357142Y-62928571D01*
X112309523Y-62833333D01*
X112214285Y-62785714D01*
X112023809Y-62785714D01*
X111928571Y-62833333D01*
X111880952Y-62928571D01*
X111880952Y-63023809D01*
X112357142Y-63119047D01*
X111547619Y-62785714D02*
X111309523Y-63452380D01*
X111071428Y-62785714D01*
X110690476Y-63357142D02*
X110642857Y-63404761D01*
X110690476Y-63452380D01*
X110738095Y-63404761D01*
X110690476Y-63357142D01*
X110690476Y-63452380D01*
X109642857Y-63357142D02*
X109690476Y-63404761D01*
X109833333Y-63452380D01*
X109928571Y-63452380D01*
X110071428Y-63404761D01*
X110166666Y-63309523D01*
X110214285Y-63214285D01*
X110261904Y-63023809D01*
X110261904Y-62880952D01*
X110214285Y-62690476D01*
X110166666Y-62595238D01*
X110071428Y-62500000D01*
X109928571Y-62452380D01*
X109833333Y-62452380D01*
X109690476Y-62500000D01*
X109642857Y-62547619D01*
D10*
X84392857Y-60339285D02*
X84392857Y-59589285D01*
X84035714Y-60339285D02*
X84035714Y-59589285D01*
X83607142Y-60339285D01*
X83607142Y-59589285D01*
X90714285Y-57553571D02*
X90142857Y-57553571D01*
X90428571Y-57839285D02*
X90428571Y-57267857D01*
X89428571Y-57089285D02*
X89785714Y-57089285D01*
X89821428Y-57446428D01*
X89785714Y-57410714D01*
X89714285Y-57375000D01*
X89535714Y-57375000D01*
X89464285Y-57410714D01*
X89428571Y-57446428D01*
X89392857Y-57517857D01*
X89392857Y-57696428D01*
X89428571Y-57767857D01*
X89464285Y-57803571D01*
X89535714Y-57839285D01*
X89714285Y-57839285D01*
X89785714Y-57803571D01*
X89821428Y-57767857D01*
X89178571Y-57089285D02*
X88928571Y-57839285D01*
X88678571Y-57089285D01*
D12*
%TO.C,C2*%
X98090000Y-49711252D02*
X98090000Y-48288748D01*
X99910000Y-49711252D02*
X99910000Y-48288748D01*
%TO.C,C4*%
X99910000Y-61711252D02*
X99910000Y-60288748D01*
X98090000Y-61711252D02*
X98090000Y-60288748D01*
%TO.C,G\u002A\u002A\u002A*%
G36*
X116491958Y-55783570D02*
G01*
X115937296Y-55783570D01*
X115937296Y-55264125D01*
X116491958Y-55264125D01*
X116491958Y-55783570D01*
G37*
G36*
X114827972Y-55264125D02*
G01*
X114273310Y-55264125D01*
X114273310Y-54744679D01*
X114827972Y-54744679D01*
X114827972Y-55264125D01*
G37*
G36*
X107062704Y-55783570D02*
G01*
X106508042Y-55783570D01*
X106508042Y-55264125D01*
X107062704Y-55264125D01*
X107062704Y-55783570D01*
G37*
G36*
X116491958Y-52147452D02*
G01*
X115382634Y-52147452D01*
X115382634Y-51628007D01*
X116491958Y-51628007D01*
X116491958Y-52147452D01*
G37*
G36*
X108172028Y-55783570D02*
G01*
X107617366Y-55783570D01*
X107617366Y-55264125D01*
X108172028Y-55264125D01*
X108172028Y-55783570D01*
G37*
G36*
X115382634Y-55783570D02*
G01*
X114827972Y-55783570D01*
X114827972Y-55264125D01*
X115382634Y-55264125D01*
X115382634Y-55783570D01*
G37*
G36*
X115382634Y-53705788D02*
G01*
X114273310Y-53705788D01*
X114273310Y-53186343D01*
X115382634Y-53186343D01*
X115382634Y-53705788D01*
G37*
G36*
X107617366Y-54225234D02*
G01*
X106508042Y-54225234D01*
X106508042Y-53705788D01*
X107617366Y-53705788D01*
X107617366Y-54225234D01*
G37*
G36*
X109281352Y-53186343D02*
G01*
X108726690Y-53186343D01*
X108726690Y-52666897D01*
X109281352Y-52666897D01*
X109281352Y-53186343D01*
G37*
G36*
X115937296Y-55264125D02*
G01*
X115382634Y-55264125D01*
X115382634Y-54744679D01*
X115937296Y-54744679D01*
X115937296Y-55264125D01*
G37*
G36*
X108726690Y-55264125D02*
G01*
X108172028Y-55264125D01*
X108172028Y-54744679D01*
X108726690Y-54744679D01*
X108726690Y-55264125D01*
G37*
G36*
X113718648Y-56822461D02*
G01*
X113163986Y-56822461D01*
X113163986Y-56303015D01*
X109836014Y-56303015D01*
X109836014Y-56822461D01*
X110390676Y-56822461D01*
X110390676Y-57341906D01*
X110945338Y-57341906D01*
X110945338Y-57861352D01*
X112054662Y-57861352D01*
X112054662Y-57341906D01*
X112609324Y-57341906D01*
X112609324Y-56822461D01*
X113163986Y-56822461D01*
X113163986Y-57341906D01*
X112609324Y-57341906D01*
X112609324Y-57861352D01*
X112054662Y-57861352D01*
X112054662Y-58380797D01*
X110945338Y-58380797D01*
X110945338Y-57861352D01*
X110390676Y-57861352D01*
X110390676Y-57341906D01*
X109836014Y-57341906D01*
X109836014Y-56822461D01*
X109281352Y-56822461D01*
X109281352Y-55783570D01*
X113718648Y-55783570D01*
X113718648Y-56822461D01*
G37*
G36*
X114273310Y-53186343D02*
G01*
X113718648Y-53186343D01*
X113718648Y-52666897D01*
X114273310Y-52666897D01*
X114273310Y-53186343D01*
G37*
G36*
X108726690Y-53705788D02*
G01*
X107617366Y-53705788D01*
X107617366Y-53186343D01*
X108726690Y-53186343D01*
X108726690Y-53705788D01*
G37*
G36*
X108726690Y-52666897D02*
G01*
X107617366Y-52666897D01*
X107617366Y-52147452D01*
X108726690Y-52147452D01*
X108726690Y-52666897D01*
G37*
G36*
X115382634Y-52666897D02*
G01*
X114273310Y-52666897D01*
X114273310Y-52147452D01*
X115382634Y-52147452D01*
X115382634Y-52666897D01*
G37*
G36*
X116491958Y-54225234D02*
G01*
X115382634Y-54225234D01*
X115382634Y-53705788D01*
X116491958Y-53705788D01*
X116491958Y-54225234D01*
G37*
G36*
X107617366Y-52147452D02*
G01*
X106508042Y-52147452D01*
X106508042Y-51628007D01*
X107617366Y-51628007D01*
X107617366Y-52147452D01*
G37*
G36*
X107617366Y-55264125D02*
G01*
X107062704Y-55264125D01*
X107062704Y-54744679D01*
X107617366Y-54744679D01*
X107617366Y-55264125D01*
G37*
%TO.C,C5*%
X99910000Y-67711252D02*
X99910000Y-66288748D01*
X98090000Y-67711252D02*
X98090000Y-66288748D01*
%TO.C,C3*%
X98090000Y-55711252D02*
X98090000Y-54288748D01*
X99910000Y-55711252D02*
X99910000Y-54288748D01*
%TO.C,C1*%
X99910000Y-43711252D02*
X99910000Y-42288748D01*
X98090000Y-43711252D02*
X98090000Y-42288748D01*
%TD*%
M02*
